<?xml version="1.0" standalone="no"?><!DOCTYPE svg PUBLIC "-//W3C//DTD SVG 1.1//EN" "http://www.w3.org/Graphics/SVG/1.1/DTD/svg11.dtd"><svg t="1632280063371" class="icon" viewBox="0 0 1547 1024" version="1.1" xmlns="http://www.w3.org/2000/svg" p-id="35796" xmlns:xlink="http://www.w3.org/1999/xlink" width="302.1484375" height="200"><defs><style type="text/css"></style></defs><path d="M833.488372 857.302326h690.604651v142.883721H833.488372zM23.813953 1000.186047h809.674419v-133.739163L270.978977 512.952558 107.019907 309.581395h-80.014884z" fill="#F3F3F3" p-id="35797"></path><path d="M850.515349 880.973395c0-16.431628-10.12093-31.148651-25.290419-36.840186L274.527256 508.02307 131.453023 329.013581h644.643721c5.262884 0 10.287628 2.405209 13.645396 6.620279l150.980465 188.89228 3.095814 2.71479 553.507721 337.872372 2.452837 1.14307a15.407628 15.407628 0 0 1 10.382883 14.717023v103.304931h-659.646511v-103.304931zM776.096744 305.199628H23.813953a11.906977 11.906977 0 0 0-11.906976 11.906977v679.078697a11.906977 11.906977 0 0 0 11.906976 11.906977h1498.254884a11.906977 11.906977 0 0 0 11.906977-11.906977v-115.211907c0-16.455442-10.12093-31.148651-25.290419-36.840186L957.987721 508.02307l-149.646884-187.249117a41.269581 41.269581 0 0 0-32.244093-15.574325zM35.72093 984.278326V329.013581h56.915349c5.262884 0 10.287628 2.405209 13.645395 6.620279l150.980466 188.89228 3.095813 2.71479 553.507721 337.872372 2.452838 1.14307a15.407628 15.407628 0 0 1 10.382883 14.717023v103.304931H35.72093z" fill="#960011" p-id="35798"></path><path d="M950.010047 505.189209H272.550698a11.906977 11.906977 0 1 0 0 23.813954h677.459349a11.906977 11.906977 0 1 0 0-23.813954zM107.543814 35.72093c38.697674 0 70.155907 32.053581 70.155907 71.703814v209.681861a11.906977 11.906977 0 0 0 23.813953 0V107.40093A95.994047 95.994047 0 0 0 169.602977 35.72093h471.540093c32.52986 0 58.987163 26.957395 58.987163 60.320744v221.064931a11.906977 11.906977 0 0 0 23.813953 0V96.041674C723.944186 49.628279 686.937302 11.906977 641.14307 11.906977H107.543814c-15.883907 0-15.883907 23.813953 0 23.813953z" fill="#960011" p-id="35799"></path><path d="M77.085767 154.933581a11.906977 11.906977 0 0 0 12.097489-0.095255l20.24186-12.145117 19.098791 12.026047a11.906977 11.906977 0 0 0 12.145116 0.309581l22.432744-12.526139 20.337117 12.311814a11.906977 11.906977 0 1 0 12.335628-20.360931l-26.266791-15.907721a11.906977 11.906977 0 0 0-11.978419-0.214325l-22.313674 12.454698-19.289302-12.145117a11.906977 11.906977 0 0 0-12.478512-0.119069l-20.48 12.288-21.38493-12.383256a11.906977 11.906977 0 0 0-11.740279-0.095256l-10.882977 6.048744V100.256744c0-35.697116 28.290977-64.535814 63.106977-64.535814h103.042976a11.906977 11.906977 0 0 0 0-23.813953H102.066605C54.010047 11.906977 15.145674 51.509581 15.145674 100.256744v44.365396a11.906977 11.906977 0 0 0 17.693768 10.406697l22.670884-12.621395 21.575441 12.526139zM696.224744 619.877209c7.477581 4.477023 4.310326 15.955349-4.405581 15.955349h-87.39721l-4.381767-1.190698-118.164837-70.489302c-7.477581-4.477023-4.310326-15.955349 4.405581-15.955349h87.39721l4.381767 1.190698 118.164837 70.489302z m-124.928-54.533953h-53.819535l89.32614 53.343256h53.819535l-89.32614-53.343256zM855.492465 619.877209c7.501395 4.477023 4.33414 15.955349-4.405581 15.955349H763.713488l-4.405581-1.190698-118.141023-70.489302c-7.501395-4.477023-4.33414-15.955349 4.381767-15.955349h87.397209l4.381768 1.190698 118.164837 70.489302z m-124.928-54.533953h-53.819535l89.349954 53.343256h53.819535l-89.349954-53.343256zM1014.760186 619.877209c7.501395 4.477023 4.33414 15.955349-4.381767 15.955349h-87.39721l-4.381767-1.190698-118.164837-70.489302c-7.501395-4.477023-4.33414-15.955349 4.405581-15.955349h87.373395l4.405582 1.190698 118.141023 70.489302z m-124.928-54.533953h-53.819535l89.349954 53.343256h53.819535l-89.349954-53.343256zM862.517581 719.75293c7.501395 4.477023 4.310326 15.955349-4.405581 15.955349h-87.373395l-4.405582-1.190698-118.164837-70.489302c-7.477581-4.477023-4.310326-15.979163 4.405581-15.979163h87.39721l4.381767 1.214512 118.164837 70.489302z m-124.928-54.533953h-53.819534l89.326139 53.343256h53.843349l-89.349954-53.343256zM1021.785302 719.75293c7.501395 4.477023 4.33414 15.955349-4.405581 15.955349h-87.373395l-4.405582-1.190698-118.141023-70.489302c-7.501395-4.477023-4.33414-15.979163 4.405581-15.979163h87.373396l4.381767 1.214512 118.164837 70.489302z m-124.928-54.533953h-53.819535l89.349954 53.343256h53.819535l-89.349954-53.343256zM1181.076837 719.75293c7.477581 4.477023 4.310326 15.955349-4.405581 15.955349h-87.397209l-4.381768-1.190698-118.164837-70.489302c-7.501395-4.477023-4.33414-15.979163 4.405581-15.979163h87.373396l4.405581 1.214512 118.164837 70.489302z m-124.928-54.533953h-53.843349l89.349954 53.343256h53.819535l-89.32614-53.343256zM1035.430698 822.795907c7.477581 4.477023 4.286512 15.955349-4.429396 15.955349h-87.373395l-4.381767-1.190698-118.164838-70.489302c-7.501395-4.477023-4.33414-15.955349 4.405582-15.955349h87.373395l4.381768 1.190698 118.164837 70.489302z m-124.951814-54.51014h-53.819535l89.349953 53.295628h53.819535l-89.349953-53.295628zM1194.698419 822.795907c7.477581 4.477023 4.310326 15.955349-4.405582 15.955349h-87.397209l-4.381768-1.190698-118.164837-70.489302c-7.477581-4.477023-4.310326-15.955349 4.405582-15.955349h87.373395l4.405581 1.190698 118.164838 70.489302z m-124.928-54.51014h-53.819535l89.326139 53.295628h53.819535l-89.326139-53.295628zM1353.96614 822.795907c7.501395 4.477023 4.310326 15.955349-4.405582 15.955349h-87.373395l-4.405582-1.190698-118.141023-70.489302c-7.501395-4.477023-4.33414-15.955349 4.381768-15.955349h87.397209l4.381767 1.190698 118.164838 70.489302z m-35.578047-1.190698l-89.349953-53.319442h-53.819535l89.349953 53.295628h53.819535z" fill="#960011" p-id="35800"></path><path d="M388.953302 236.496372a4.762791 4.762791 0 0 1-3.572093-1.595535 4.21507 4.21507 0 0 1 0.619163-6.144c15.621953-12.04986 40.507535-19.265488 66.583814-19.265488 25.933395 0 50.747535 7.215628 66.369488 19.265488 1.285953 0.976372 1.905116 2.548093 1.643163 4.072186a4.429395 4.429395 0 0 1-2.95293 3.381582 4.905674 4.905674 0 0 1-4.596093-0.714419c-14.002605-10.787721-36.602047-17.241302-60.463628-17.241302-23.647256 0-46.889674 6.620279-60.654139 17.265116a4.858047 4.858047 0 0 1-2.976745 0.976372z m-12.669023-15.288558a6.167814 6.167814 0 0 1 2.381395-7.144186c18.050977-12.692837 45.675163-20.289488 73.894698-20.289488 28.100465 0 55.677023 7.596651 73.728 20.313302a6.191628 6.191628 0 0 1 2.690977 5.858232 6.429767 6.429767 0 0 1-4.072186 5.12 7.191814 7.191814 0 0 1-6.763163-0.762046 119.093581 119.093581 0 0 0-65.583628-17.717581 119.450791 119.450791 0 0 0-65.726512 17.717581 7.001302 7.001302 0 0 1-4.072186 1.285953 6.810791 6.810791 0 0 1-6.477395-4.381767z m156.219535-15.812465a16.479256 16.479256 0 0 1-7.930047-2.024186 14.193116 14.193116 0 0 1-5.477209-20.075163 15.47907 15.47907 0 0 1 9.525582-6.739349 16.455442 16.455442 0 0 1 11.81172 1.571721 14.288372 14.288372 0 0 1 7.144187 16.479256 15.502884 15.502884 0 0 1-15.074233 10.811535z m-160.029767 0h-0.095256a15.979163 15.979163 0 0 1-12.288-5.691535 13.907349 13.907349 0 0 1-2.762419-12.597581 15.47907 15.47907 0 0 1 15.074233-11.002047c4.834233 0 9.406512 2.095628 12.359442 5.667721s4.000744 8.239628 2.786232 12.621395a14.645581 14.645581 0 0 1-7.144186 8.977861 16.50307 16.50307 0 0 1-7.930046 2.024186z m121.474976-15.193302a15.59814 15.59814 0 0 1-14.859907-9.930419 14.145488 14.145488 0 0 1 5.286698-16.384 16.50307 16.50307 0 0 1 18.265302-0.523907 14.21693 14.21693 0 0 1 6.358326 16.050605 15.407628 15.407628 0 0 1-15.002791 10.787721h-0.047628z m-82.658232 0h-0.35721a15.47907 15.47907 0 0 1-15.050418-10.859163 14.288372 14.288372 0 0 1 7.28707-16.431628c6.096372-3.333953 13.812093-2.381395 18.813023 2.262325 5.00093 4.667535 6.048744 11.906977 2.571907 17.622326a15.36 15.36 0 0 1-9.430326 6.906046 16.717395 16.717395 0 0 1-3.810232 0.47628l-0.023814 0.023814zM452.465116 185.082047a15.693395 15.693395 0 0 1-14.478883-9.001675 14.002605 14.002605 0 0 1 3.333953-15.979163 16.407814 16.407814 0 0 1 17.050791-3.214883c5.858233 2.262326 9.668465 7.620465 9.668465 13.550139 0 8.07293-6.953674 14.621767-15.574326 14.645582z m99.899535-11.264a15.860093 15.860093 0 0 1-13.550139-7.429954 13.883535 13.883535 0 0 1 0.119069-14.693209 16.122047 16.122047 0 0 1 18.884466-6.191628 14.526512 14.526512 0 0 1 9.88279 16.288744 15.36 15.36 0 0 1-15.336186 12.026047z m-199.79907 0h-0.095255a15.502884 15.502884 0 0 1-15.002791-10.835349 14.288372 14.288372 0 0 1 7.144186-16.431628 16.479256 16.479256 0 0 1 17.860465 1.333581 14.074047 14.074047 0 0 1 4.762791 16.217302 15.59814 15.59814 0 0 1-14.669396 9.716094z m151.694884-19.027349a16.455442 16.455442 0 0 1-4.143628-0.523907c-7.882419-2.024186-12.764279-9.45414-11.121116-16.979349 1.643163-7.525209 9.216-12.573767 17.336558-11.525954 8.096744 1.024 13.978791 7.763349 13.43107 15.431442-0.547721 7.644279-7.334698 13.597767-15.526698 13.597768z m-103.54307 0h-0.095255c-7.787163-0.095256-14.312186-5.524837-15.336187-12.740465-1.000186-7.239442 3.810233-14.050233 11.287814-16.026791a16.336372 16.336372 0 0 1 4.119814-0.523907c8.644465 0 15.645767 6.548837 15.645768 14.645581 0 8.096744-7.001302 14.669395-15.645768 14.669396V154.790698zM452.465116 148.36093a15.693395 15.693395 0 0 1-14.478883-9.001674 14.002605 14.002605 0 0 1 3.357767-15.979163 16.407814 16.407814 0 0 1 17.050791-3.19107c5.834419 2.262326 9.644651 7.620465 9.668465 13.526326 0 8.096744-6.977488 14.645581-15.59814 14.669395z" fill="#EC001A" p-id="35801"></path><path d="M95.255814 762.046512v119.069767a11.906977 11.906977 0 1 0 23.813953 0v-119.069767a11.906977 11.906977 0 1 0-23.813953 0z" fill="#960011" p-id="35802"></path></svg>