<?xml version="1.0" standalone="no"?><!DOCTYPE svg PUBLIC "-//W3C//DTD SVG 1.1//EN" "http://www.w3.org/Graphics/SVG/1.1/DTD/svg11.dtd"><svg t="1632280053683" class="icon" viewBox="0 0 1619 1024" version="1.1" xmlns="http://www.w3.org/2000/svg" p-id="35496" xmlns:xlink="http://www.w3.org/1999/xlink" width="316.2109375" height="200"><defs><style type="text/css"></style></defs><path d="M500.093023 23.813953v303.365954h472.564093V857.302326H1071.627907V23.813953zM50.009302 628.688372h471.516279v132.667535H50.009302z" fill="#F3F3F3" p-id="35497"></path><path d="M961.726512 354.399256v515.167256a11.906977 11.906977 0 0 0 23.813953 0V342.492279a11.906977 11.906977 0 0 0-11.906977-11.906977H398.431256c-13.812093 0-26.885953 6.286884-35.578047 17.098419l-170.793674 212.349023-113.592558 37.459349a43.031814 43.031814 0 0 0-29.434047 40.936186v131.214884a11.906977 11.906977 0 1 0 23.813954 0v-131.214884c0-8.382512 5.286698-15.764837 13.07386-18.336744l116.926512-38.530977a11.906977 11.906977 0 0 0 5.548651-3.85786l173.008372-215.087628a21.861209 21.861209 0 0 1 17.026977-8.215814h563.295256z" fill="#960011" p-id="35498"></path><path d="M534.813767 597.492093a43.031814 43.031814 0 0 0-29.434046 40.936186v131.214884a11.906977 11.906977 0 1 0 23.813953 0v-131.214884c0-8.382512 5.310512-15.764837 13.073861-18.336744l116.926512-38.530977a11.906977 11.906977 0 0 0 5.572465-3.85786l183.17693-227.732838a11.906977 11.906977 0 0 0-18.574884-14.931348l-180.962232 224.994232-113.592559 37.459349z" fill="#960011" p-id="35499"></path><path d="M199.132279 582.155907h456.346791a11.906977 11.906977 0 0 0 0-23.813954H199.132279a11.906977 11.906977 0 0 0 0 23.813954zM1485.633488 881.473488h83.348838c20.384744 0 36.816372-16.645953 36.816372-37.102139V49.03293c0-20.48-16.431628-37.125953-36.792558-37.125953H532.551442c-20.36093 0-36.816372 16.669767-36.816372 37.125953v293.459349a11.906977 11.906977 0 1 0 23.813953 0V49.056744c0-7.382326 5.858233-13.312 13.002419-13.312h1036.454698c7.144186 0 12.978605 5.929674 12.978604 13.312v795.338419c0 7.382326-5.834419 13.288186-12.978604 13.288186h-83.372652a11.906977 11.906977 0 0 0 0 23.813953zM821.00986 881.473488h500.450233a11.906977 11.906977 0 0 0 0-23.813953H821.00986a11.906977 11.906977 0 0 0 0 23.813953zM623.425488 857.659535H70.155907a2.381395 2.381395 0 0 1-2.143256-1.452651l-32.101209-72.203907c-0.571535-1.285953 0.309581-2.667163 1.500279-2.667163h546.149209a11.906977 11.906977 0 0 0 0-23.813954H37.387907c-18.527256 0-30.791442 19.21786-23.266233 36.149582l32.125024 72.203907a26.195349 26.195349 0 0 0 23.885395 15.598139H636.546977a11.906977 11.906977 0 0 0 11.764093-13.740651 107.186605 107.186605 0 0 1-0.714419-6.144c-1.547907-17.098419-0.952558-35.95907 3.31014-53.390884 6.953674-28.600558 22.194605-47.151628 48.461395-53.057488a11.906977 11.906977 0 0 0-5.215256-23.242418c-36.197209 8.144372-57.486884 34.03014-66.393302 70.679813a185.748837 185.748837 0 0 0-4.33414 55.081675z" fill="#960011" p-id="35500"></path><path d="M213.754047 876.948837l28.933953 36.578233c7.858605 9.882791 19.717953 15.645767 32.267907 15.645767H528.907907a11.906977 11.906977 0 0 0 0-23.813953H274.955907a17.384186 17.384186 0 0 1-13.597767-6.620279L232.424186 862.184186a11.906977 11.906977 0 1 0-18.670139 14.764651zM782.050233 929.172837h507.261023a11.906977 11.906977 0 1 0 0-23.813953h-507.237209a11.906977 11.906977 0 1 0 0 23.813953z" fill="#960011" p-id="35501"></path><path d="M312.08186 925.45786a114.44986 114.44986 0 0 1-101.304558 61.701954c-63.297488 0-114.688-52.009674-114.688-116.235907a11.906977 11.906977 0 1 0-23.813953 0c0 77.323907 61.987721 140.04986 138.501953 140.04986a138.263814 138.263814 0 0 0 122.403721-74.442418 11.906977 11.906977 0 1 0-21.099163-11.073489zM728.468837 781.216744a116.593116 116.593116 0 0 1 41.674419 89.683349c0 64.250047-51.366698 116.259721-114.664186 116.259721-63.321302 0-114.688-52.009674-114.688-116.259721a11.906977 11.906977 0 0 0-23.813954 0c0 77.347721 61.963907 140.073674 138.501954 140.073674 76.514233 0 138.501953-62.725953 138.501953-140.073674a140.40707 140.40707 0 0 0-50.247442-107.924837 11.906977 11.906977 0 0 0-15.288558 18.241488zM1494.897116 870.923907c0 76.466605-35.292279 140.04986-83.039256 140.04986s-83.06307-63.583256-83.063069-140.04986c0-76.490419 35.316093-140.073674 83.063069-140.073674s83.039256 63.583256 83.039256 140.073674z m-23.813953 0c0-65.083535-28.386233-116.259721-59.225303-116.259721-30.83907 0-59.249116 51.176186-59.249116 116.259721 0 65.059721 28.410047 116.235907 59.249116 116.235907s59.225302-51.152372 59.225303-116.235907z" fill="#960011" p-id="35502"></path><path d="M1269.76 870.923907c0 76.466605 35.316093 140.04986 83.06307 140.04986h59.03479a11.906977 11.906977 0 1 0 0-23.813953h-59.03479c-30.83907 0-59.225302-51.152372-59.225303-116.235907a11.906977 11.906977 0 0 0-23.813953 0zM1094.489302 916.837209c-11.859349 42.841302-38.888186 70.322605-67.631628 70.322605-29.362605 0-56.867721-28.695814-68.322232-72.870698a11.906977 11.906977 0 1 0-23.051907 5.953489c13.907349 53.652837 49.461581 90.731163 91.374139 90.731162 41.102884 0 76.133209-35.649488 90.588279-87.754418a11.906977 11.906977 0 1 0-22.956651-6.358326z" fill="#960011" p-id="35503"></path><path d="M713.632744 258.095628a5.215256 5.215256 0 0 1-3.97693-1.786047 4.738977 4.738977 0 0 1 0.714419-6.858418c17.16986-13.43107 44.555907-21.432558 73.227907-21.432558 28.529116 0 55.843721 8.001488 73.013581 21.432558a4.738977 4.738977 0 0 1-1.428837 8.334884 5.334326 5.334326 0 0 1-5.048558-0.809675c-15.407628-12.04986-40.293209-19.241674-66.512373-19.241674-26.004837 0-51.581023 7.382326-66.726697 19.241674a5.286698 5.286698 0 0 1-3.262512 1.119256z m-13.954977-17.050791a6.906047 6.906047 0 0 1 2.619535-7.95386c19.860837-14.145488 50.247442-22.623256 81.300838-22.623256 30.910512 0 61.225674 8.477767 81.086511 22.623256 2.143256 1.524093 3.262512 4.024558 2.95293 6.548837a7.144186 7.144186 0 0 1-4.477023 5.715349 7.810977 7.810977 0 0 1-7.429953-0.857303 129.738419 129.738419 0 0 0-72.156279-19.765581 130.095628 130.095628 0 0 0-72.275349 19.765581 7.620465 7.620465 0 0 1-4.500837 1.428838 7.477581 7.477581 0 0 1-7.120373-4.881861z m171.841489-17.622325a17.955721 17.955721 0 0 1-8.715907-2.262326 15.907721 15.907721 0 0 1-6.02493-22.385116 17.050791 17.050791 0 0 1 10.478139-7.477582 17.908093 17.908093 0 0 1 13.002419 1.762233c6.667907 3.738791 9.882791 11.264 7.858604 18.336744a17.074605 17.074605 0 0 1-16.598325 12.049861z m-176.032744 0H695.367442a17.503256 17.503256 0 0 1-13.526326-6.334512 15.669581 15.669581 0 0 1-3.024372-14.050233 17.026977 17.026977 0 0 1 16.574512-12.240372c5.310512 0 10.335256 2.309953 13.573953 6.310698a15.693395 15.693395 0 0 1 3.095814 14.050233 16.26493 16.26493 0 0 1-7.882418 10.00186 17.979535 17.979535 0 0 1-8.715907 2.262326z m133.643907-16.907907a17.146047 17.146047 0 0 1-16.360186-11.073489 15.860093 15.860093 0 0 1 5.810604-18.265302 17.955721 17.955721 0 0 1 20.075163-0.571535 15.955349 15.955349 0 0 1 7.001302 17.860465 16.955535 16.955535 0 0 1-16.526883 12.026047z m-90.969303 0h-0.381023a17.050791 17.050791 0 0 1-16.526884-12.145117 15.979163 15.979163 0 0 1 8.001489-18.31293 17.860465 17.860465 0 0 1 20.718139 2.548093 15.717209 15.717209 0 0 1 2.810047 19.646512 16.907907 16.907907 0 0 1-10.382884 7.668093 18.170047 18.170047 0 0 1-4.21507 0.571535z m45.341768-5.715349a17.241302 17.241302 0 0 1-15.931535-10.049489 15.717209 15.717209 0 0 1 3.691163-17.812837 17.860465 17.860465 0 0 1 18.741581-3.572093c6.429767 2.548093 10.644837 8.501581 10.644837 15.098047 0 9.001674-7.668093 16.288744-17.146046 16.336372z m109.877581-12.549954a17.384186 17.384186 0 0 1-14.883721-8.287255 15.621953 15.621953 0 0 1 0.142884-16.360187 17.622326 17.622326 0 0 1 20.741953-6.906046 16.193488 16.193488 0 0 1 10.882977 18.146233 16.931721 16.931721 0 0 1-16.884093 13.407255z m-219.755163 0h-0.119069a17.074605 17.074605 0 0 1-16.526884-12.073674 16.002977 16.002977 0 0 1 7.858604-18.336744 17.931907 17.931907 0 0 1 19.69414 1.500279 15.812465 15.812465 0 0 1 5.215256 18.098604 17.146047 17.146047 0 0 1-16.122047 10.811535z m166.840558-21.194418a17.884279 17.884279 0 0 1-4.524651-0.595349c-8.692093-2.262326-14.050233-10.549581-12.240372-18.932093 1.786047-8.382512 10.12093-14.002605 19.051163-12.859535 8.930233 1.14307 15.383814 8.668279 14.764651 17.217488-0.595349 8.525395-8.049116 15.145674-17.050791 15.145675z m-113.902139 0h-0.095256a16.907907 16.907907 0 0 1-16.860279-14.216931 16.360186 16.360186 0 0 1 12.40707-17.860465 17.765209 17.765209 0 0 1 4.524651-0.595348c9.525581 0 17.217488 7.334698 17.217488 16.336372 0 9.049302-7.691907 16.336372-17.193674 16.336372z m56.939163-7.144186a17.241302 17.241302 0 0 1-15.907721-10.049489 15.717209 15.717209 0 0 1 3.691163-17.812837 17.860465 17.860465 0 0 1 18.741581-3.572093c6.429767 2.524279 10.621023 8.477767 10.621023 15.074233 0 9.001674-7.668093 16.312558-17.146046 16.336372z" fill="#EC001A" p-id="35504"></path></svg>