<?xml version="1.0" standalone="no"?><!DOCTYPE svg PUBLIC "-//W3C//DTD SVG 1.1//EN" "http://www.w3.org/Graphics/SVG/1.1/DTD/svg11.dtd"><svg t="1632280058861" class="icon" viewBox="0 0 1024 1024" version="1.1" xmlns="http://www.w3.org/2000/svg" p-id="35645" xmlns:xlink="http://www.w3.org/1999/xlink" width="200" height="200"><defs><style type="text/css"></style></defs><path d="M141.748459 352.52459l181.566951 51.2v87.694689l76.58177 18.750951 4.901771-84.605902L604.327869 479.702033V1007.213115l-311.161705-104.414426c-9.937836-124.105443-62.900459-174.533246-158.871082-151.316984" fill="#E8E8E8" p-id="35646"></path><path d="M422.760918 871.575082l86.50282 33.57377a7.554098 7.554098 0 0 0 5.472524-14.100983l-86.502819-33.573771a7.554098 7.554098 0 0 0-5.472525 14.100984z" fill="#960011" p-id="35647"></path><path d="M186.754098 1003.284984c-52.039344-13.429508-94.627672-71.008525-100.855606-135.302295-7.218361-74.349115 34.580984-137.148852 96.809967-137.148853 71.68 0 130.601967 79.737705 124.558689 166.408394-5.254295 75.037377-59.761311 121.721705-120.51305 106.042754z m105.42164-107.100328c5.522885-78.612984-47.422951-150.242623-109.450492-150.242623-52.123279 0-88.215082 54.255213-81.785705 120.580197 5.65718 58.351213 44.149508 110.407344 89.591607 122.141377 50.948197 13.144131 97.028197-26.321836 101.661377-92.478951z" fill="#960011" p-id="35648"></path><path d="M191.051541 932.511475c-24.962098-6.446164-45.022426-33.57377-47.960131-63.80695-3.424525-35.269246 16.736525-65.569574 47.221508-65.569574 34.54741 0 62.413639 37.703344 59.559869 78.461901-2.518033 35.823213-29.091672 58.58623-58.821246 50.914623z m43.746623-51.972196c2.283016-32.700852-19.573508-62.296131-44.485246-62.296131-20.362492 0-34.832787 21.739016-32.180459 49.017704 2.350164 24.273836 18.331279 45.878557 36.696131 50.629246 19.94282 5.136787 38.072656-10.407869 39.952787-37.350819zM600.567607 476.999344V992.776393l-300.317377-105.455213a7.554098 7.554098 0 1 0-5.002492 14.268853l310.372721 108.963672a7.554098 7.554098 0 0 0 10.055344-7.117639V471.25823a7.554098 7.554098 0 0 0-5.539672-7.268722L149.151475 335.704131a7.554098 7.554098 0 1 0-4.062426 14.55423l455.478558 126.740983z" fill="#960011" p-id="35649"></path><path d="M610.992262 1010.41941l397.429508-163.722492a7.554098 7.554098 0 0 0 4.683541-6.983344v-496.723935a7.554098 7.554098 0 0 0-9.870688-7.21836l-397.446295 128.302164a7.554098 7.554098 0 0 0-5.220721 7.184787v532.177836c0 5.371803 5.455738 9.031344 10.407868 6.983344z m4.683541-533.655082l382.321312-123.41718V834.643934l-382.321312 157.511345V476.747541z" fill="#960011" p-id="35650"></path><path d="M176.648393 343.358951l374.347541-93.989771 425.832918 94.946623-368.875016 119.069377-190.346492-52.97941a7.554098 7.554098 0 0 0-4.028852 14.55423l192.512 53.583738a7.554098 7.554098 0 0 0 4.347803-0.083935l397.429508-128.302164c7.319082-2.350164 6.832262-12.875541-0.671475-14.554229l-454.656-101.359213-3.474885 0.05036-403.791738 101.359213c-7.520525 1.880131-7.65482 12.523016-0.167869 14.604591l173.727475 48.346229a7.554098 7.554098 0 1 0 4.04564-14.554229l-146.230558-40.69141z" fill="#960011" p-id="35651"></path><path d="M808.943213 306.041705c7.503738-2.182295 7.168-12.925902-0.470033-14.621377l-85.227016-19.002754-3.743475 0.117508-391.638033 113.311475a7.554098 7.554098 0 0 0-5.438951 7.268722v89.977705a7.554098 7.554098 0 0 0 5.12 7.151213l77.454688 26.388983a7.554098 7.554098 0 0 0 9.988197-7.151213v-89.13836l393.954623-114.301902zM721.836066 287.576131l54.59095 12.170492-371.107672 107.654295a7.554098 7.554098 0 0 0-5.438951 7.268721v84.270164l-62.346491-21.252196v-78.898361L721.836066 287.559344zM14.772459 120.311607l42.219016 17.391213c47.37259 19.506361 78.344393 66.02282 78.344394 117.676065v490.076328a7.554098 7.554098 0 1 0 15.108197 0V255.378885c0-57.763672-34.648131-109.803016-87.694689-131.642754L20.513574 106.344918a7.554098 7.554098 0 1 0-5.757902 13.966689zM422.609836 25.86859l42.25259 17.391213c47.355803 19.489574 78.344393 66.006033 78.344394 117.676066v80.67777a7.554098 7.554098 0 0 0 15.108196 0V160.935869c0-57.780459-34.664918-109.819803-87.711475-131.642754L428.367738 11.901902a7.554098 7.554098 0 0 0-5.757902 13.966688z" fill="#960011" p-id="35652"></path><path d="M150.645508 261.808262l397.429508-92.764328a7.554098 7.554098 0 1 0-3.424524-14.705311L147.204197 247.086164a7.554098 7.554098 0 1 0 3.441311 14.722098z" fill="#960011" p-id="35653"></path><path d="M540.554492 920.760656l2.870557 1.544393a7.554098 7.554098 0 0 0 7.168-13.295213l-2.870557-1.544393a7.554098 7.554098 0 0 0-7.168 13.295213z" fill="#960011" p-id="35654"></path><path d="M774.513311 721.601049c-1.342951 0.453246-2.618754 0.251803-3.491672-0.621115-1.56118-1.611541-1.275803-4.868197 0.621115-7.302295 14.940328-18.801311 37.921574-34.312393 60.936394-41.681836 21.906885-7.016918 42.000787-5.959344 54.221639 2.434099 1.007213 0.671475 1.494033 2.081574 1.275803 3.726688a6.697967 6.697967 0 0 1-2.283016 4.280656c-1.191869 0.990426-2.551607 1.175082-3.575607 0.503606-11.062557-7.419803-29.460984-8.108066-49.638819-1.460459-20.815738 6.882623-42.135082 21.403279-55.228853 38.005509a6.563672 6.563672 0 0 1-2.85377 2.115147z m-12.371934-13.463082c-0.906492-2.702689 0.016787-6.36223 2.350164-9.031344 17.458361-20.177836 43.108721-36.59541 68.054033-44.183082 23.719869-7.218361 45.912131-6.060066 59.912393 2.551607 1.477246 0.923279 2.249443 2.937705 2.048 5.338229a9.75318 9.75318 0 0 1-3.12236 6.244721c-1.712262 1.51082-3.693115 1.880131-5.203935 1.007213-15.242492-7.503738-33.909508-8.074492-53.600524-1.242229-20.563934 5.908984-41.597902 19.573508-60.113837 39.44918a9.232787 9.232787 0 0 1-3.961704 2.820197c-2.887344 0.973639-5.438951-0.235016-6.36223-2.954492z m135.050492-61.003541a8.628459 8.628459 0 0 1-6.043279-0.167869c-5.741115-2.484459-7.621246-11.146492-4.213508-19.321705 1.611541-3.911344 4.247082-7.151213 7.302295-9.014557 3.021639-1.863344 6.244721-2.182295 8.897049-0.940065 4.532459 2.081574 6.68118 8.225574 5.321443 15.057836-1.376525 6.798689-5.959344 12.707672-11.264 14.403147v-0.016787z m-138.844328 43.847344l-0.083934 0.016787c-4.817836 1.51082-9.383869 0.503607-12.371935-2.803409-3.004852-3.307016-4.028852-8.477377-2.80341-14.01705 1.812984-8.141639 8.091279-15.276066 15.225705-17.324065 4.767475-1.359738 9.249574-0.251803 12.136918 3.072 2.85377 3.273443 3.860984 8.343082 2.685902 13.748459a24.962098 24.962098 0 0 1-6.949771 12.489442c-2.350164 2.283016-5.052852 3.928131-7.822688 4.80105h-0.016787z m108.745443-50.293508c-5.438951 1.645115-10.357508-1.107934-12.136918-6.932983-1.796197-5.808262-0.033574-13.295213 4.36459-18.566295 4.347803-5.203934 10.24-7.000131 14.705311-4.532459 4.398164 2.450885 6.41259 8.578098 5.002492 15.259278-1.410098 7.016918-6.311869 13.09377-11.935475 14.755672v0.016787z m-71.461771 21.420066l-0.335738 0.100721c-6.580459 1.930492-12.422295-1.393311-14.151344-8.175213-1.712262-6.798689 1.124721-15.309639 6.882623-20.631082 5.707541-5.287869 12.858754-6.144 17.441574-2.182295 4.532459 3.961705 5.472525 11.700459 2.333377 19.002754-1.846557 4.31423-4.935344 7.990557-8.611672 10.24a17.794098 17.794098 0 0 1-3.525246 1.628328h-0.033574z m36.864-16.619017c-5.506098 1.645115-10.50859-0.788984-12.657311-6.177573-2.182295-5.438951-0.973639-12.690885 2.971278-18.38164 3.894557-5.640393 9.736393-8.527738 14.772459-7.403016 4.985705 1.124721 8.192 6.009705 8.192 12.338361 0 8.662033-5.892197 17.424787-13.278426 19.607082v0.033573z m79.502689-34.681704c-4.146361 1.175082-7.990557-0.621115-10.072132-4.666755-2.048-4.062426-2.014426-9.75318 0.117509-14.889967 2.887344-6.882623 8.745967-10.961836 13.933114-9.803541 5.086426 1.208656 8.074492 7.218361 7.11764 14.352787-0.940066 7.151213-5.590033 13.463082-11.096131 15.007476z m-173.744263 49.034491h-0.134295c-7.285508 2.048-13.765246-1.460459-15.695737-8.594885-1.964066-7.134426 1.141508-16.048262 7.537311-21.705443 5.87541-5.203934 13.244852-6.41259 18.398426-3.088786 5.086426 3.323803 7.000131 10.424656 4.767476 17.810885-2.232656 7.38623-8.158426 13.647738-14.889968 15.578229z m137.064918-58.468721a9.367082 9.367082 0 0 1-3.273442 0.318951c-6.328656-0.503607-10.290361-7.285508-8.94741-15.544656 1.309377-8.242361 7.419803-14.957115 13.865967-15.376787 6.36223-0.386098 10.911475 5.472525 10.491803 13.446295-0.419672 7.97377-5.707541 15.460721-12.136918 17.156197z m-89.574819 23.434492l-0.083935 0.016787c-7.38623 1.846557-13.681311-2.736262-14.688524-10.827541a21.99082 21.99082 0 0 1 10.844328-20.983607 16.216131 16.216131 0 0 1 3.928131-1.494033c8.074492-1.863344 14.55423 4.012066 14.554229 13.076984 0 9.081705-6.479738 18.129836-14.554229 20.228197z m46.751475-19.18741c-5.489311 1.410098-10.50859-1.225443-12.657311-6.714754s-0.973639-12.707672 2.971278-18.247344c3.911344-5.472525 9.736393-8.158426 14.772459-6.815476 4.985705 1.309377 8.192 6.311869 8.192 12.674099 0 8.662033-5.892197 17.172984-13.278426 19.103475z" fill="#EC001A" p-id="35655"></path></svg>