<?xml version="1.0" encoding="UTF-8"?>
<svg width="149px" height="185px" viewBox="0 0 149 185" version="1.1" xmlns="http://www.w3.org/2000/svg" xmlns:xlink="http://www.w3.org/1999/xlink">
    <title>addDiscount</title>
    <g id="图标" stroke="none" stroke-width="1" fill="none" fill-rule="evenodd">
        <path d="M64.2779896,3.19325348 C70.1008589,-0.98972184 77.9083762,-1.06310737 83.8008823,2.97309689 L84.1146981,3.19325348 L137.225316,41.3463347 C144.146152,46.3180562 148.183614,54.3588792 148.053034,62.8605041 L148.042306,63.3083694 L144.877679,160.53401 C144.443193,173.882544 133.601505,184.506363 120.294888,184.717505 L119.890911,184.720708 L25,184.720708 C11.3309524,184.720708 0.224119049,173.750565 0.00334928573,160.134128 L0,159.720708 L0,62.7043526 C0,54.4818858 3.88867153,46.7534989 10.4691545,41.8526527 L10.8307524,41.588152 L64.2779896,3.19325348 Z M133.377,145 L12,145 L12,159.720708 C12,166.797842 17.6551918,172.554136 24.6931438,172.717157 L25,172.720708 L119.890911,172.720708 C126.801273,172.720708 132.483897,167.319877 132.870136,160.456586 L132.88403,160.143625 L133.377,145 Z M77.1135069,12.9391922 C75.4373618,11.7350996 73.2020882,11.6887884 71.4829333,12.8002584 L71.2791808,12.9391922 L17.8319436,51.3340907 C14.2696857,53.8931104 12.1184257,57.9687748 12.0047435,62.3394711 L12,62.7043526 L12,133 L133.767,133 L136.048658,62.9179844 C136.196656,58.3711098 134.126594,54.0439155 130.512633,51.3051655 L130.224125,51.0922734 L77.1135069,12.9391922 Z M74,49 C88.9116882,49 101,61.0883118 101,76 C101,90.9116882 88.9116882,103 74,103 C59.0883118,103 47,90.9116882 47,76 C47,61.0883118 59.0883118,49 74,49 Z M74,61 C65.7157288,61 59,67.7157288 59,76 C59,84.2842712 65.7157288,91 74,91 C82.2842712,91 89,84.2842712 89,76 C89,67.7157288 82.2842712,61 74,61 Z" id="形状" fill="#D81E06" fill-rule="nonzero"></path>
    </g>
</svg>