<?xml version="1.0" encoding="UTF-8"?>
<svg width="46px" height="30px" viewBox="0 0 46 30" version="1.1" xmlns="http://www.w3.org/2000/svg" xmlns:xlink="http://www.w3.org/1999/xlink">
    <title>编组</title>
    <g id="页面-1" stroke="none" stroke-width="1" fill="none" fill-rule="evenodd">
        <g id="Desktop" transform="translate(-581.000000, -321.000000)">
            <g id="编组" transform="translate(581.000000, 321.000000)">
                <polygon id="Fill-1" fill="#FFFFFF" points="0 30 46 30 46 0 0 0"></polygon>
                <path d="M0,0 L0,29.9787742 L0.109599448,29.9787742 L0.109599448,0 L45.8929891,0 L45.8929891,29.9787742 L46,29.9787742 L45.8929891,29.9787742 L45.8929891,0 L0,0 Z M0.109599448,30.0000208 L45.8929891,30.0000208 L0.109599448,30.0000208 Z" id="Fill-2" fill="#F2F2F2"></path>
                <path d="M0,2.57144995 L46,2.57144995 L46,0 L0,0 L0,2.57144995 Z M0,6.96439156 L46,6.96439156 L46,4.82143988 L0,4.82143988 L0,6.96439156 Z M0,11.5715823 L46,11.5715823 L46,9.42857307 L0,9.42857307 L0,11.5715823 Z M0,16.1787731 L46,16.1787731 L46,14.0358214 L0,14.0358214 L0,16.1787731 Z M0,20.7859062 L46,20.7859062 L46,18.6429546 L0,18.6429546 L0,20.7859062 Z M0,25.393097 L46,25.393097 L46,23.2501453 L0,23.2501453 L0,25.393097 Z M0,30 L46,30 L46,27.8572785 L0,27.8572785 L0,30 Z" id="Fill-3" fill="#B72343"></path>
                <polygon id="Fill-4" fill="#00467B" points="0 16 18 16 18 0 0 0"></polygon>
                <path d="M16.6734372,15.1514962 L16.7821745,15.4697065 L17,15.4697065 L16.7821745,15.6817327 L16.8910873,16 L16.6734372,15.7879168 L16.3468743,16 L16.4556117,15.6817327 L16.2379616,15.4697065 L16.5645244,15.4697065 L16.6734372,15.1514962 Z M13.6256929,15.1514962 L13.7346641,15.4697065 L14.0612269,15.4697065 L13.7346641,15.6817327 L13.8433429,16 L13.6256929,15.7879168 L13.4081012,16 L13.4081012,15.6817327 L13.1904511,15.4697065 L13.517014,15.4697065 L13.6256929,15.1514962 Z M10.5782408,15.1514962 L10.5782408,15.4697065 L10.9048037,15.4697065 L10.6869197,15.6817327 L10.7958325,16 L10.5782408,15.7879168 L10.251678,16 L10.3603569,15.6817327 L10.1427068,15.4697065 L10.4692696,15.4697065 L10.5782408,15.1514962 Z M7.53049652,15.1514962 L7.63940925,15.4697065 L7.96597208,15.4697065 L7.63940925,15.6817327 L7.74808814,16 L7.53049652,15.7879168 L7.20393369,16 L7.31284643,15.6817327 L7.09519634,15.4697065 L7.42175916,15.4697065 L7.53049652,15.1514962 Z M4.48298604,15.1514962 L4.59166493,15.4697065 L4.80931502,15.4697065 L4.59166493,15.6817327 L4.70063613,16 L4.48298604,15.7879168 L4.15642321,16 L4.26510211,15.6817327 L4.04751048,15.4697065 L4.3740733,15.4697065 L4.48298604,15.1514962 Z M1.43524172,15.1514962 L1.54415445,15.4697065 L1.87071728,15.4697065 L1.54415445,15.6817327 L1.65289181,16 L1.43524172,15.7879168 L1.21759163,16 L1.21759163,15.6817327 L1,15.4697065 L1.32656283,15.4697065 L1.43524172,15.1514962 Z M16.6734372,12.075805 L16.7821745,12.2878313 L17,12.2878313 L16.7821745,12.4999146 L16.8910873,12.8181249 L16.6734372,12.6060416 L16.3468743,12.8181249 L16.4556117,12.4999146 L16.2379616,12.2878313 L16.5645244,12.2878313 L16.6734372,12.075805 Z M13.6256929,12.075805 L13.7346641,12.2878313 L14.0612269,12.2878313 L13.7346641,12.4999146 L13.8433429,12.8181249 L13.6256929,12.6060416 L13.4081012,12.8181249 L13.4081012,12.4999146 L13.1904511,12.2878313 L13.517014,12.2878313 L13.6256929,12.075805 Z M10.5782408,12.075805 L10.5782408,12.2878313 L10.9048037,12.2878313 L10.6869197,12.4999146 L10.7958325,12.8181249 L10.5782408,12.6060416 L10.251678,12.8181249 L10.3603569,12.4999146 L10.1427068,12.2878313 L10.4692696,12.2878313 L10.5782408,12.075805 Z M7.53049652,12.075805 L7.63940925,12.2878313 L7.96597208,12.2878313 L7.63940925,12.4999146 L7.74808814,12.8181249 L7.53049652,12.6060416 L7.20393369,12.8181249 L7.31284643,12.4999146 L7.09519634,12.2878313 L7.42175916,12.2878313 L7.53049652,12.075805 Z M4.48298604,12.075805 L4.59166493,12.2878313 L4.80931502,12.2878313 L4.59166493,12.4999146 L4.70063613,12.8181249 L4.48298604,12.6060416 L4.15642321,12.8181249 L4.26510211,12.4999146 L4.04751048,12.2878313 L4.3740733,12.2878313 L4.48298604,12.075805 Z M1.43524172,12.075805 L1.54415445,12.2878313 L1.87071728,12.2878313 L1.54415445,12.4999146 L1.65289181,12.8181249 L1.43524172,12.6060416 L1.21759163,12.8181249 L1.21759163,12.4999146 L1,12.2878313 L1.32656283,12.2878313 L1.43524172,12.075805 Z M15.1495942,13.5606725 L15.2582731,13.878655 L15.584836,13.878655 L15.2582731,14.0909661 L15.3672443,14.3029923 L15.1495942,14.1968653 L14.8230314,14.3029923 L14.9319442,14.0909661 L14.7141187,13.878655 L15.0406815,13.878655 L15.1495942,13.5606725 Z M11.993171,13.5606725 L12.1018499,13.878655 L12.4284127,13.878655 L12.2107627,14.0909661 L12.3197339,14.3029923 L11.993171,14.1968653 L11.7755209,14.3029923 L11.8841998,14.0909661 L11.6666082,13.878655 L11.993171,13.878655 L11.993171,13.5606725 Z M9.05433945,13.5606725 L9.1630768,13.878655 L9.48958116,13.878655 L9.1630768,14.0909661 L9.27198954,14.3029923 L9.05433945,14.1968653 L8.72777662,14.3029923 L8.83674782,14.0909661 L8.61886388,13.878655 L8.94542671,13.878655 L9.05433945,13.5606725 Z M6.00659513,13.5606725 L6.00659513,13.878655 L6.33315795,13.878655 L6.11556632,14.0909661 L6.22447906,14.3029923 L6.00659513,14.1968653 L5.6800323,14.3029923 L5.7890035,14.0909661 L5.57135341,13.878655 L5.89791623,13.878655 L6.00659513,13.5606725 Z M2.95908465,13.5606725 L3.06805584,13.878655 L3.39438483,13.878655 L3.17673474,14.0909661 L3.28564747,14.3029923 L2.95908465,14.1968653 L2.74149302,14.3029923 L2.85017191,14.0909661 L2.52360909,13.878655 L2.85017191,13.878655 L2.95908465,13.5606725 Z M16.6734372,8.68184666 L16.7821745,9.00005697 L17,9.00005697 L16.7821745,9.10601313 L16.8910873,9.42422344 L16.6734372,9.31826727 L16.3468743,9.42422344 L16.4556117,9.10601313 L16.2379616,9.00005697 L16.5645244,9.00005697 L16.6734372,8.68184666 Z M13.6256929,8.68184666 L13.7346641,9.00005697 L14.0612269,9.00005697 L13.7346641,9.10601313 L13.8433429,9.42422344 L13.6256929,9.31826727 L13.4081012,9.42422344 L13.4081012,9.10601313 L13.1904511,9.00005697 L13.517014,9.00005697 L13.6256929,8.68184666 Z M10.5782408,8.68184666 L10.5782408,9.00005697 L10.9048037,9.00005697 L10.6869197,9.10601313 L10.7958325,9.42422344 L10.5782408,9.3180394 L10.251678,9.42422344 L10.3603569,9.10601313 L10.1427068,9.00005697 L10.4692696,9.00005697 L10.5782408,8.68184666 Z M7.53049652,8.68184666 L7.63940925,9.00005697 L7.96597208,9.00005697 L7.63940925,9.10601313 L7.74808814,9.42422344 L7.53049652,9.31826727 L7.20393369,9.42422344 L7.31284643,9.10601313 L7.09519634,9.00005697 L7.42175916,9.00005697 L7.53049652,8.68184666 Z M4.48298604,8.68184666 L4.59166493,9.00005697 L4.80931502,9.00005697 L4.59166493,9.10601313 L4.70063613,9.42422344 L4.48298604,9.31826727 L4.15642321,9.42422344 L4.26510211,9.10601313 L4.04751048,9.00005697 L4.3740733,9.00005697 L4.48298604,8.68184666 Z M1.43524172,8.68184666 L1.54415445,9.00005697 L1.87071728,9.00005697 L1.54415445,9.10601313 L1.65289181,9.42422344 L1.43524172,9.31826727 L1.21759163,9.42422344 L1.21759163,9.10601313 L1,9.00005697 L1.32656283,9.00005697 L1.43524172,8.68184666 Z M15.1495942,10.1667711 L15.2582731,10.4847535 L15.584836,10.4847535 L15.2582731,10.6970077 L15.3672443,11.015218 L15.1495942,10.8029638 L14.8230314,11.015218 L14.9319442,10.6970077 L14.7141187,10.4847535 L15.0406815,10.4847535 L15.1495942,10.1667711 Z M11.993171,10.1667711 L12.1018499,10.4847535 L12.4284127,10.4847535 L12.2107627,10.6970077 L12.3197339,11.015218 L11.993171,10.8029638 L11.7755209,11.015218 L11.8841998,10.6970077 L11.6666082,10.4847535 L11.993171,10.4847535 L11.993171,10.1667711 Z M9.05433945,10.1667711 L9.1630768,10.4847535 L9.48958116,10.4847535 L9.1630768,10.6970077 L9.27198954,11.015218 L9.05433945,10.8029638 L8.72777662,11.015218 L8.83674782,10.6970077 L8.61886388,10.4847535 L8.94542671,10.4847535 L9.05433945,10.1667711 Z M6.00659513,10.1667711 L6.00659513,10.4847535 L6.33315795,10.4847535 L6.11556632,10.6970077 L6.22447906,11.015218 L6.00659513,10.8029638 L5.6800323,11.015218 L5.7890035,10.6970077 L5.57135341,10.4847535 L5.89791623,10.4847535 L6.00659513,10.1667711 Z M2.95908465,10.1667711 L3.06805584,10.4847535 L3.39438483,10.4847535 L3.17673474,10.6970077 L3.28564747,11.015218 L2.95908465,10.8029638 L2.74149302,11.015218 L2.85017191,10.6970077 L2.52360909,10.4847535 L2.85017191,10.4847535 L2.95908465,10.1667711 Z M16.6734372,5.28794525 L16.7821745,5.60615555 L17,5.60615555 L16.7821745,5.81823878 L16.8910873,6.13644908 L16.6734372,5.92436585 L16.3468743,6.13644908 L16.4556117,5.81823878 L16.2379616,5.60615555 L16.5645244,5.60615555 L16.6734372,5.28794525 Z M13.6256929,5.28794525 L13.7346641,5.60615555 L14.0612269,5.60615555 L13.7346641,5.81823878 L13.8433429,6.13644908 L13.6256929,5.92436585 L13.4081012,6.13644908 L13.4081012,5.81823878 L13.1904511,5.60615555 L13.517014,5.60615555 L13.6256929,5.28794525 Z M10.5782408,5.28794525 L10.5782408,5.60615555 L10.9048037,5.60615555 L10.6869197,5.81823878 L10.7958325,6.13644908 L10.5782408,5.92436585 L10.251678,6.13644908 L10.3603569,5.81823878 L10.1427068,5.60615555 L10.4692696,5.60615555 L10.5782408,5.28794525 Z M7.53049652,5.28794525 L7.63940925,5.60615555 L7.96597208,5.60615555 L7.63940925,5.81823878 L7.74808814,6.13644908 L7.53049652,5.92436585 L7.20393369,6.13644908 L7.31284643,5.81823878 L7.09519634,5.60615555 L7.42175916,5.60615555 L7.53049652,5.28794525 Z M4.48298604,5.28794525 L4.59166493,5.60615555 L4.80931502,5.60615555 L4.59166493,5.81823878 L4.70063613,6.13644908 L4.48298604,5.92436585 L4.15642321,6.13644908 L4.26510211,5.81823878 L4.04751048,5.60615555 L4.3740733,5.60615555 L4.48298604,5.28794525 Z M1.43524172,5.28794525 L1.54415445,5.60615555 L1.87071728,5.60615555 L1.54415445,5.81823878 L1.65289181,6.13644908 L1.43524172,5.92436585 L1.21759163,6.13644908 L1.21759163,5.81823878 L1,5.60615555 L1.32656283,5.60615555 L1.43524172,5.28794525 Z M15.1495942,6.87876889 L15.2582731,7.09107999 L15.584836,7.09107999 L15.2582731,7.30310626 L15.3672443,7.62131656 L15.1495942,7.40906243 L14.8230314,7.62131656 L14.9319442,7.30310626 L14.7141187,7.09107999 L15.0406815,7.09107999 L15.1495942,6.87876889 Z M11.993171,6.87876889 L12.1018499,7.09107999 L12.4284127,7.09107999 L12.2107627,7.30310626 L12.3197339,7.62131656 L11.993171,7.40906243 L11.7755209,7.62131656 L11.8841998,7.30310626 L11.6666082,7.09107999 L11.993171,7.09107999 L11.993171,6.87876889 Z M9.05433945,6.87876889 L9.1630768,7.09107999 L9.48958116,7.09107999 L9.1630768,7.30310626 L9.27198954,7.62131656 L9.05433945,7.40906243 L8.72777662,7.62131656 L8.83674782,7.30310626 L8.61886388,7.09107999 L8.94542671,7.09107999 L9.05433945,6.87876889 Z M6.00659513,6.87876889 L6.00659513,7.09107999 L6.33315795,7.09107999 L6.11556632,7.30310626 L6.22447906,7.62131656 L6.00659513,7.40906243 L5.6800323,7.62131656 L5.7890035,7.30310626 L5.57135341,7.09107999 L5.89791623,7.09107999 L6.00659513,6.87876889 Z M2.95908465,6.87876889 L3.06805584,7.09107999 L3.39438483,7.09107999 L3.17673474,7.30310626 L3.28564747,7.62131656 L2.95908465,7.40906243 L2.74149302,7.62131656 L2.85017191,7.30310626 L2.52360909,7.09107999 L2.85017191,7.09107999 L2.95908465,6.87876889 Z M16.6734372,2 L16.7821745,2.3182103 L17,2.3182103 L16.7821745,2.53046443 L16.8910873,2.84844687 L16.6734372,2.63636364 L16.3468743,2.84844687 L16.4556117,2.53046443 L16.2379616,2.3182103 L16.5645244,2.3182103 L16.6734372,2 Z M13.6256929,2 L13.7346641,2.3182103 L14.0612269,2.3182103 L13.7346641,2.53046443 L13.8433429,2.84844687 L13.6256929,2.63636364 L13.4081012,2.84844687 L13.4081012,2.53046443 L13.1904511,2.3182103 L13.517014,2.3182103 L13.6256929,2 Z M10.5782408,2 L10.5782408,2.3182103 L10.9048037,2.3182103 L10.6869197,2.53046443 L10.7958325,2.84844687 L10.5782408,2.63636364 L10.251678,2.84844687 L10.3603569,2.53046443 L10.1427068,2.3182103 L10.4692696,2.3182103 L10.5782408,2 Z M7.53049652,2 L7.63940925,2.3182103 L7.96597208,2.3182103 L7.63940925,2.53046443 L7.74808814,2.84844687 L7.53049652,2.63636364 L7.20393369,2.84844687 L7.31284643,2.53046443 L7.09519634,2.3182103 L7.42175916,2.3182103 L7.53049652,2 Z M4.48298604,2 L4.59166493,2.3182103 L4.80931502,2.3182103 L4.59166493,2.53046443 L4.70063613,2.84844687 L4.48298604,2.63636364 L4.15642321,2.84844687 L4.26510211,2.53046443 L4.04751048,2.3182103 L4.3740733,2.3182103 L4.48298604,2 Z M1.43524172,2 L1.54415445,2.3182103 L1.87071728,2.3182103 L1.54415445,2.53046443 L1.65289181,2.84844687 L1.43524172,2.63636364 L1.21759163,2.84844687 L1.21759163,2.53046443 L1,2.3182103 L1.32656283,2.3182103 L1.43524172,2 Z M15.1495942,3.59099454 L15.2582731,3.90920484 L15.584836,3.90920484 L15.2582731,4.01516101 L15.3672443,4.33337131 L15.1495942,4.12128808 L14.8230314,4.33337131 L14.9319442,4.01516101 L14.7141187,3.90920484 L15.0406815,3.90920484 L15.1495942,3.59099454 Z M11.993171,3.59099454 L12.1018499,3.90920484 L12.4284127,3.90920484 L12.2107627,4.01516101 L12.3197339,4.33337131 L11.993171,4.12128808 L11.7755209,4.33337131 L11.8841998,4.01516101 L11.6666082,3.90920484 L11.993171,3.90920484 L11.993171,3.59099454 Z M9.05433945,3.59099454 L9.1630768,3.90920484 L9.48958116,3.90920484 L9.1630768,4.01516101 L9.27198954,4.33337131 L9.05433945,4.12128808 L8.72777662,4.33337131 L8.83674782,4.01516101 L8.61886388,3.90920484 L8.94542671,3.90920484 L9.05433945,3.59099454 Z M6.00659513,3.59099454 L6.00659513,3.90920484 L6.33315795,3.90920484 L6.11556632,4.01516101 L6.22447906,4.33337131 L6.00659513,4.12128808 L5.6800323,4.33337131 L5.7890035,4.01516101 L5.57135341,3.90920484 L5.89791623,3.90920484 L6.00659513,3.59099454 Z M2.95908465,3.59099454 L3.06805584,3.90920484 L3.39438483,3.90920484 L3.17673474,4.01516101 L3.28564747,4.33337131 L2.95908465,4.12128808 L2.74149302,4.33337131 L2.85017191,4.01516101 L2.52360909,3.90920484 L2.85017191,3.90920484 L2.95908465,3.59099454 Z" id="Fill-5" fill="#FFFFFF"></path>
            </g>
        </g>
    </g>
</svg>