<?xml version="1.0" standalone="no"?><!DOCTYPE svg PUBLIC "-//W3C//DTD SVG 1.1//EN" "http://www.w3.org/Graphics/SVG/1.1/DTD/svg11.dtd"><svg t="1632280043338" class="icon" viewBox="0 0 1319 1024" version="1.1" xmlns="http://www.w3.org/2000/svg" p-id="35347" xmlns:xlink="http://www.w3.org/1999/xlink" width="257.6171875" height="200"><defs><style type="text/css"></style></defs><path d="M955.234462 137.846154L905.846154 315.076923h118.153846zM1142.153846 550.321231V1004.307692l-315.076923-3.623384V315.076923l164.115692 235.244308z" fill="#E8E8E8" p-id="35348"></path><path d="M508.061538 274.077538a4.726154 4.726154 0 0 1-3.564307-1.575384 4.174769 4.174769 0 0 1 0.630154-6.104616c15.497846-11.972923 40.192-19.121231 66.067692-19.12123 25.737846 0 50.372923 7.148308 65.851077 19.101538 1.28 0.984615 1.910154 2.520615 1.634461 4.056616a4.411077 4.411077 0 0 1-2.914461 3.347692 4.864 4.864 0 0 1-4.568616-0.689231c-13.902769-10.732308-36.332308-17.132308-60.002461-17.132308-23.453538 0-46.532923 6.557538-60.199385 17.132308a4.824615 4.824615 0 0 1-2.934154 0.984615z m-12.583384-15.182769a6.104615 6.104615 0 0 1 2.363077-7.089231c17.92-12.603077 45.331692-20.125538 73.334154-20.125538 27.904 0 55.256615 7.522462 73.156923 20.125538 1.929846 1.378462 2.953846 3.584 2.658461 5.828924a6.4 6.4 0 0 1-4.036923 5.080615 7.128615 7.128615 0 0 1-6.695384-0.748308 118.193231 118.193231 0 0 0-65.083077-17.604923 118.528 118.528 0 0 0-65.220923 17.604923 6.931692 6.931692 0 0 1-4.056616 1.260308 6.754462 6.754462 0 0 1-6.419692-4.332308z m155.017846-15.694769a16.344615 16.344615 0 0 1-7.876923-2.008615c-7.345231-4.115692-9.767385-12.996923-5.415385-19.928616a15.36 15.36 0 0 1 9.452308-6.695384 16.344615 16.344615 0 0 1 11.716923 1.575384 14.178462 14.178462 0 0 1 7.089231 16.344616 15.399385 15.399385 0 0 1-14.966154 10.732307z m-158.798769 0h-0.098462a15.872 15.872 0 0 1-12.209231-5.651692 13.804308 13.804308 0 0 1-2.717538-12.484923 15.36 15.36 0 0 1 14.966154-10.929231c4.785231 0 9.314462 2.067692 12.248615 5.632 2.953846 3.544615 3.958154 8.172308 2.756923 12.524308a14.532923 14.532923 0 0 1-7.08923 8.920615 16.384 16.384 0 0 1-7.837539 1.988923h-0.019692z m120.556307-15.064615a15.478154 15.478154 0 0 1-14.76923-9.846154 14.020923 14.020923 0 0 1 5.277538-16.265846 16.364308 16.364308 0 0 1 18.097231-0.531693c5.513846 3.485538 8.073846 9.905231 6.301538 15.931077a15.281231 15.281231 0 0 1-14.887384 10.692923h-0.019693z m-82.038153 0h-0.354462a15.36 15.36 0 0 1-14.926769-10.791385 14.178462 14.178462 0 0 1 7.207384-16.324923 16.285538 16.285538 0 0 1 18.707693 2.264615c4.942769 4.627692 5.986462 11.815385 2.520615 17.506462a15.261538 15.261538 0 0 1-9.334154 6.813538 16.580923 16.580923 0 0 1-3.800615 0.512h-0.019692zM571.076923 223.035077a15.556923 15.556923 0 0 1-14.375385-8.940308 13.883077 13.883077 0 0 1 3.347693-15.872 16.265846 16.265846 0 0 1 16.896-3.170461 14.572308 14.572308 0 0 1 9.590154 13.430154c0 8.014769-6.892308 14.513231-15.43877 14.532923l-0.019692 0.019692z m99.131077-11.185231a15.734154 15.734154 0 0 1-13.430154-7.364923 13.784615 13.784615 0 0 1 0.118154-14.572308 16.009846 16.009846 0 0 1 18.707692-6.163692c7.030154 2.441846 11.145846 9.255385 9.826462 16.147692-1.339077 6.912-7.739077 11.933538-15.222154 11.953231z m-198.242462 0h-0.118153a15.379692 15.379692 0 0 1-14.887385-10.752 14.178462 14.178462 0 0 1 7.089231-16.344615 16.344615 16.344615 0 0 1 17.723077 1.378461 13.981538 13.981538 0 0 1 4.726154 16.068923 15.478154 15.478154 0 0 1-14.532924 9.649231zM622.473846 192.984615a16.344615 16.344615 0 0 1-4.076308-0.512c-7.837538-2.028308-12.662154-9.393231-11.027692-16.856615 1.614769-7.463385 9.117538-12.465231 17.171692-11.441231 8.073846 1.004308 13.883077 7.699692 13.351385 15.300923-0.551385 7.601231-7.286154 13.508923-15.419077 13.508923z m-102.734769 0h-0.098462c-7.719385-0.078769-14.178462-5.474462-15.202461-12.642461-0.984615-7.187692 3.761231-13.961846 11.204923-15.911385a16.226462 16.226462 0 0 1 4.076308-0.512c8.566154 0 15.517538 6.498462 15.517538 14.532923 0 8.054154-6.951385 14.572308-15.517538 14.572308l0.019692-0.039385z m51.357538-6.360615a15.556923 15.556923 0 0 1-14.375384-8.940308 13.883077 13.883077 0 0 1 3.347692-15.872 16.265846 16.265846 0 0 1 16.915692-3.170461 14.572308 14.572308 0 0 1 9.590154 13.430154c0 8.014769-6.912 14.513231-15.458461 14.552615z" fill="#EC001A" p-id="35349"></path><path d="M254.286769 125.144615h706.56a9.846154 9.846154 0 0 0 9.846154-9.846153V19.692308a9.846154 9.846154 0 0 0-9.846154-9.846154h-706.56a9.846154 9.846154 0 0 0-9.846154 9.846154v95.606154a9.846154 9.846154 0 0 0 9.846154 9.846153z m9.846154-19.692307V29.538462h686.867692v75.913846h-686.867692z" fill="#960011" p-id="35350"></path><path d="M214.961231 317.735385l48.896-200.113231a9.846154 9.846154 0 0 0-19.121231-4.667077L195.84 313.068308a9.846154 9.846154 0 1 0 19.121231 4.667077zM1015.138462 318.385231a9.846154 9.846154 0 0 0 18.747076-5.966769L970.24 112.305231c-3.032615-9.550769-16.738462-8.979692-18.983385 0.787692l-45.705846 200.113231a9.846154 9.846154 0 1 0 19.2 4.391384l37.671385-164.923076 52.736 165.710769z" fill="#960011" p-id="35351"></path><path d="M821.248 325.238154v662.803692H152.497231V553.353846a9.846154 9.846154 0 0 0-19.692308 0v444.553846a9.846154 9.846154 0 0 0 9.846154 9.846154h688.443077a9.846154 9.846154 0 0 0 9.846154-9.846154V315.392a9.846154 9.846154 0 0 0-9.846154-9.846154H142.651077a9.846154 9.846154 0 0 0 0 19.692308h678.596923z" fill="#960011" p-id="35352"></path><path d="M840.940308 988.041846V325.238154h296.526769a9.846154 9.846154 0 1 0 0-19.692308H831.094154a9.846154 9.846154 0 0 0-9.846154 9.846154v682.496a9.846154 9.846154 0 0 0 9.846154 9.846154h306.372923a9.846154 9.846154 0 0 0 9.846154-9.846154v-431.852308a9.846154 9.846154 0 1 0-19.692308 0v422.006154H840.940308z" fill="#960011" p-id="35353"></path><path d="M720.167385 554.043077a9.846154 9.846154 0 0 1-8.763077 5.376H22.961231a9.846154 9.846154 0 0 1-8.763077-14.336L133.888 310.941538a9.846154 9.846154 0 0 1 8.763077-5.376h688.443077a9.846154 9.846154 0 0 1 8.763077 14.336l-119.689846 234.161231z m-14.769231-14.316308l109.607384-214.488615H148.676923L39.049846 539.726769H705.378462z" fill="#960011" p-id="35354"></path><path d="M1305.186462 544.019692a9.846154 9.846154 0 0 1-8.152616 15.399385H990.680615a9.846154 9.846154 0 0 1-8.132923-4.312615L822.941538 320.945231a9.846154 9.846154 0 0 1 8.132924-15.399385h306.372923a9.846154 9.846154 0 0 1 8.132923 4.312616l159.586461 234.16123z m-172.937847-218.781538H849.723077l146.156308 214.488615H1278.424615l-146.176-214.488615z" fill="#960011" p-id="35355"></path></svg>