<?xml version="1.0" standalone="no"?>
<!DOCTYPE svg PUBLIC "-//W3C//DTD SVG 1.1//EN" "http://www.w3.org/Graphics/SVG/1.1/DTD/svg11.dtd" >
<!--
2013-9-30: Created.
-->
<svg>
<metadata>
Created by iconfont
</metadata>
<defs>

<font id="iconfont" horiz-adv-x="1024" >
  <font-face
    font-family="iconfont"
    font-weight="500"
    font-stretch="normal"
    units-per-em="1024"
    ascent="896"
    descent="-128"
  />
    <missing-glyph />
    
    <glyph glyph-name="jian1" unicode="&#59126;" d="M102.4 896h819.2a102.4 102.4 0 0 0 102.4-102.4v-819.2a102.4 102.4 0 0 0-102.4-102.4H102.4a102.4 102.4 0 0 0-102.4 102.4V793.6a102.4 102.4 0 0 0 102.4 102.4z m0-51.2a51.2 51.2 0 0 1-51.2-51.2v-819.2a51.2 51.2 0 0 1 51.2-51.2h819.2a51.2 51.2 0 0 1 51.2 51.2V793.6a51.2 51.2 0 0 1-51.2 51.2H102.4zM307.2 345.6h409.6v76.8H307.2z"  horiz-adv-x="1024" />

    
    <glyph glyph-name="jia" unicode="&#59127;" d="M102.4 896h819.2a102.4 102.4 0 0 0 102.4-102.4v-819.2a102.4 102.4 0 0 0-102.4-102.4H102.4a102.4 102.4 0 0 0-102.4 102.4V793.6a102.4 102.4 0 0 0 102.4 102.4z m0-51.2a51.2 51.2 0 0 1-51.2-51.2v-819.2a51.2 51.2 0 0 1 51.2-51.2h819.2a51.2 51.2 0 0 1 51.2 51.2V793.6a51.2 51.2 0 0 1-51.2 51.2H102.4zM307.2 345.6h409.6v76.8H307.2zM473.6 588.8v-409.6h76.8V588.8z"  horiz-adv-x="1024" />

    
    <glyph glyph-name="jian2" unicode="&#59128;" d="M102.4 896h819.2a102.4 102.4 0 0 0 102.4-102.4v-819.2a102.4 102.4 0 0 0-102.4-102.4H102.4a102.4 102.4 0 0 0-102.4 102.4V793.6a102.4 102.4 0 0 0 102.4 102.4z m0-51.2a51.2 51.2 0 0 1-51.2-51.2v-819.2a51.2 51.2 0 0 1 51.2-51.2h819.2a51.2 51.2 0 0 1 51.2 51.2V793.6a51.2 51.2 0 0 1-51.2 51.2H102.4zM307.2 345.6h409.6v76.8H307.2z"  horiz-adv-x="1024" />

    
    <glyph glyph-name="shibai" unicode="&#59114;" d="M512 384m-487.619048 0a487.619048 487.619048 0 1 1 975.238096 0 487.619048 487.619048 0 1 1-975.238096 0ZM316.806095 188.806095a49.39581 49.39581 0 0 0 0 69.241905L442.806857 384 316.806095 509.952a49.39581 49.39581 0 0 0 0 69.241905 49.39581 49.39581 0 0 0 69.241905 0L512 453.193143l125.952 126.000762a49.39581 49.39581 0 0 0 69.241905 0 49.39581 49.39581 0 0 0 0-69.241905L581.193143 384l126.000762-125.952a49.39581 49.39581 0 0 0 0-69.241905 49.39581 49.39581 0 0 0-69.241905 0L512 314.806857l-125.952-126.000762a49.39581 49.39581 0 0 0-69.241905 0z"  horiz-adv-x="1024" />

    
    <glyph glyph-name="chenggong" unicode="&#59113;" d="M912.2304-31.9488c-156.8768-128.0512-646.7584-128.0512-800.4608 0-156.928 128.1024-140.9024 675.7376 0 819.8656 140.8512 144.128 659.6096 144.128 800.4608 0 140.9024-144.128 156.928-691.712 0-819.8656zM805.6832 499.712l-320.512-353.1264a52.48 52.48 0 0 0-80.0768 0l-135.5776 151.7568a57.4976 57.4976 0 0 0 3.072 77.4144 56.832 56.832 0 0 0 77.056-3.072l95.488-108.3904 280.4224 306.6368c21.6064 21.6576 55.5008 24.7296 77.056 3.072 21.5552-18.5856 21.5552-55.7568 3.072-74.3424z"  horiz-adv-x="1024" />

    
    <glyph glyph-name="audit-1" unicode="&#59110;" d="M882.688 29.184c96.768 119.808 77.824 295.424-42.496 392.192s-295.424 77.824-392.192-42.496-77.824-295.424 42.496-392.192c102.912-82.944 249.344-81.92 351.232 1.536l115.2-115.2 40.96 40.96-115.2 115.2z m-44.544 36.352l-14.336-17.92-17.92-14.336c-95.232-77.312-235.52-62.976-313.344 32.256s-62.976 235.52 32.256 313.344 235.52 62.976 313.344-32.256c66.048-81.92 66.048-199.168 0-281.088zM198.144 558.08h241.664v-57.856H198.144V558.08zM82.944 837.12h180.224v-85.504h57.344V837.12h142.336v-85.504h57.344V837.12h142.336v-85.504h57.344V837.12h179.712v-311.296h57.344V894.464H25.6v-954.368h311.296v57.344H82.944v839.68zM198.144 336.384h138.752v-57.344H198.144v57.344z"  horiz-adv-x="1024" />

    
    <glyph glyph-name="Enabled-1" unicode="&#59111;" d="M972.288 382.976c-1.536-238.08-186.368-440.32-424.96-459.264-239.104-19.456-452.096 154.112-491.52 388.096C16.384 547.84 177.664 775.68 406.016 832 637.952 888.32 878.592 747.52 951.296 522.24c14.336-45.056 20.992-91.648 20.992-139.264 0.512-33.28 52.224-33.28 51.712 0-1.536 235.008-164.352 442.88-393.216 498.688C401.408 937.984 158.72 821.76 53.248 612.352-53.248 400.896 5.12 136.704 186.88-12.8c182.784-150.528 453.12-153.088 639.488-8.192 124.416 97.792 197.12 246.784 198.144 404.48 0 33.28-51.712 33.28-52.224-0.512zM237.056 397.312l222.208-219.136c9.728-9.216 27.136-10.752 36.352 0L821.76 542.72c22.016 24.576-14.336 61.44-36.352 36.352l-325.632-364.544h36.352L273.408 434.176c-23.552 23.04-59.904-13.312-36.352-36.864z"  horiz-adv-x="1024" />

    
    <glyph glyph-name="email-1" unicode="&#59112;" d="M938.496 42.496H85.504C38.4 42.496 0 80.896 0 128V640c0 47.104 38.4 85.504 85.504 85.504h853.504c47.104 0 85.504-38.4 85.504-85.504v-512c-0.512-47.104-38.912-85.504-86.016-85.504zM85.504 682.496c-23.552 0-42.496-18.944-42.496-42.496v-512c0-23.552 18.944-42.496 42.496-42.496h853.504c23.552 0 42.496 18.944 42.496 42.496V640c0 23.552-18.944 42.496-42.496 42.496H85.504zM512 273.408L137.728 515.584c-9.728 6.656-12.8 19.456-6.144 29.696 6.144 9.728 19.456 12.8 29.696 6.144l351.232-227.328 351.232 227.328c9.728 6.144 23.04 3.584 29.696-6.144 6.656-9.728 3.584-23.04-6.144-29.696L512 273.408zM128 170.496c-6.656 0-13.824 3.072-17.92 9.728-6.656 9.728-4.096 23.04 6.144 29.696l192 128c9.728 6.656 23.04 4.096 29.696-6.144 6.656-9.728 4.096-23.04-6.144-29.696l-192-128c-3.584-2.048-7.68-3.584-11.776-3.584zM896 170.496c-4.096 0-8.192 1.024-11.776 3.584l-192 128c-9.728 6.656-12.288 19.968-6.144 29.696 6.656 9.728 19.968 12.288 29.696 6.144l192-128c9.728-6.656 12.288-19.968 6.144-29.696-4.096-6.144-11.264-9.728-17.92-9.728z"  horiz-adv-x="1024" />

    
    <glyph glyph-name="finance" unicode="&#59084;" d="M98.868966 705.57131h967.503448A84.992 84.992 0 0 0 1151.399724 620.57931v-649.710344a85.02731 85.02731 0 0 0-85.02731-85.027311H98.868966A84.992 84.992 0 0 0 13.876966-29.131034V620.57931A84.992 84.992 0 0 0 98.868966 705.57131z m0-42.902069c-23.269517 0-42.125241-18.820414-42.125242-42.089931v-649.710344c0-23.269517 18.855724-42.125241 42.125242-42.125242h967.503448c23.269517 0 42.089931 18.855724 42.089931 42.125242V620.57931c0 23.269517-18.820414 42.089931-42.089931 42.089931H98.868966zM591.448276 151.940414a145.054897 145.054897 0 1 1 0 290.074483 145.054897 145.054897 0 0 1 0-290.074483z m0 42.902069a102.152828 102.152828 0 1 0 0 204.270345 102.152828 102.152828 0 0 0 0-204.270345zM1045.46869 105.330759c0-15.183448-15.36-25.56469-29.448828-19.915035a56.249379 56.249379 0 0 1-75.246345-66.665931 21.46869 21.46869 0 0 0-20.762483-26.977103H223.408552a21.46869 21.46869 0 0 0-20.727173 26.977103 56.35531 56.35531 0 0 1-59.497931 70.444138 21.46869 21.46869 0 0 0-23.375448 21.362759V485.976276c0 12.605793 10.804966 22.49269 23.375448 21.362758a56.249379 56.249379 0 0 1 60.34538 66.771863 21.433379 21.433379 0 0 0 21.044965 25.529379h694.766345c13.771034 0 23.940414-12.711724 20.939034-26.129655a56.249379 56.249379 0 0 1 75.74069-64.653242c14.124138 5.649655 29.448828-4.766897 29.448828-19.915034v-383.611586z m-42.93738 26.69462v330.151724a99.151448 99.151448 0 0 0-106.460689 94.561104H247.207724a99.186759 99.186759 0 0 0-84.532965-91.489104v-333.965241a99.151448 99.151448 0 0 0 84.744827-96.609103h648.580414a99.151448 99.151448 0 0 0 106.53131 97.35062zM215.640276 797.625379c0 22.951724 18.820414 41.630897 42.125241 41.630897h985.158621c23.304828 0 42.089931-18.714483 42.089931-41.630897V198.62069c0-22.951724-18.785103-41.595586-42.089931-41.595587a21.433379 21.433379 0 1 1 0-42.902069 84.744828 84.744828 0 0 1 84.992 84.497656V797.625379A84.744828 84.744828 0 0 1 1242.924138 882.123034H257.765517a84.744828 84.744828 0 0 1-84.992-84.497655 21.433379 21.433379 0 1 1 42.866759 0z"  horiz-adv-x="1341" />

    
    <glyph glyph-name="data" unicode="&#59083;" d="M730.974316 831.919158v-90.920421H292.917895V831.865263a37.025684 37.025684 0 1 1-73.997474 0v-90.920421h-26.947368A165.079579 165.079579 0 0 1 26.947368 575.865263v-512A164.971789 164.971789 0 0 1 192.026947-101.052632h639.946106a164.971789 164.971789 0 0 1 165.079579 164.97179v512a165.079579 165.079579 0 0 1-165.079579 165.079579h-26.947369V831.865263a37.079579 37.079579 0 1 1-74.051368 0zM100.998737 575.919158c0 50.229895 40.744421 90.974316 90.974316 90.974316h639.946105c50.229895 0 90.920421-40.744421 90.920421-90.974316v-90.866526H101.052632V575.919158z m0-512V410.947368h821.840842v-347.02821c0-50.176-40.690526-90.920421-90.866526-90.920421H191.973053a90.974316 90.974316 0 0 0-90.920421 90.920421z"  horiz-adv-x="1024" />

    
    <glyph glyph-name="skip" unicode="&#59082;" d="M39.139556-121.912889a33.905778 33.905778 0 0 1 27.136 13.368889c3.072 3.982222 7.793778 9.898667 15.018666 18.432 11.776 13.937778 25.656889 29.354667 41.585778 45.909333a1224.362667 1224.362667 0 0 0 157.411556 137.500445c160.711111 117.987556 342.072889 192.056889 540.785777 200.988444l5.973334-5.688889v-188.757333c0-13.084444 8.135111-24.860444 20.821333-29.866667a34.247111 34.247111 0 0 1 36.579556 7.395556l327.395555 324.835555a103.537778 103.537778 0 0 1 0.625778 152.860445L884.508444 880.64a34.019556 34.019556 0 0 1-36.579555 7.395556 32.199111 32.199111 0 0 1-20.821333-29.866667v-190.236445l-5.518223-5.688888C502.499556 651.377778 281.6 509.952 140.913778 281.429333a1008.128 1008.128 0 0 1-109.738667-251.505777c-14.791111-51.882667-23.04-95.402667-25.315555-116.508445a32.142222 32.142222 0 0 1 21.447111-33.564444 33.735111 33.735111 0 0 1 11.548444-2.161778l0.284445 0.398222zM860.728889 598.186667a32.768 32.768 0 0 1 33.393778 32.199111V764.871111l9.671111 3.982222 261.802666-259.413333a41.528889 41.528889 0 0 0 13.710223-30.72 42.154667 42.154667 0 0 0-14.392889-31.004444l-261.063111-259.242667-9.671111 3.982222v134.542222a32.881778 32.881778 0 0 1-33.450667 32.256c-295.537778 0-547.498667-128.341333-748.088889-320.682666l-9.443556 5.802666c100.693333 327.224889 335.815111 553.813333 757.532445 553.813334z"  horiz-adv-x="1251" />

    
    <glyph glyph-name="BatchInvoicing" unicode="&#59081;" d="M1014.637714 453.266286c0 42.276571-36.790857 76.873143-82.651428 76.873143h-14.628572V804.059429c0 42.203429-36.790857 76.8-82.651428 76.8H194.56c-22.089143 0-43.300571-8.192-58.806857-22.820572-15.36-14.409143-23.844571-33.792-23.844572-53.979428v-273.92h-14.628571c-45.860571 0-82.651429-34.596571-82.651429-76.8v-488.082286c0-42.203429 36.790857-76.8 82.651429-76.8h551.789714l-64.950857 62.171428H82.651429v498.102858l24.356571-21.723429 307.053714-273.627429 5.485715-4.022857a138.459429 138.459429 0 0 1 161.133714 3.657143l365.933714 301.860572v-124.342858l68.022857 58.514286v64.219429z m-183.369143-428.470857l-91.940571 85.430857-47.104-44.909715 138.971429-129.097142 243.273142 225.353142-47.104 44.982858-196.096-181.76z m18.066286 793.892571v-351.744l-5.193143-11.190857-304.64-255.268572-4.681143-3.291428a66.048 66.048 0 0 0-74.971428 4.388571l-275.090286 247.222857-4.827428 10.898286V818.688h669.403428zM643.657143 452.681143v62.171428H307.2v-62.171428h336.457143z m73.142857 183.003428v62.171429H307.2v-62.171429h409.6z"  horiz-adv-x="1097" />

    
    <glyph glyph-name="jinyong" unicode="&#59078;" d="M512-105.244444A489.244444 489.244444 0 1 1 512 873.244444a489.244444 489.244444 0 0 1 0-978.488888z m0 68.266666A420.977778 420.977778 0 1 0 512 804.977778a420.977778 420.977778 0 0 0 0-841.955556zM221.070222 44.771556L839.68 663.438222a34.133333 34.133333 0 1 1-48.241778 48.241778L172.771556 93.070222a34.133333 34.133333 0 1 1 48.298666-48.298666z"  horiz-adv-x="1024" />

    
    <glyph glyph-name="xiangqing" unicode="&#59079;" d="M910.734222 165.660444l-187.448889-194.730666a25.827556 25.827556 0 0 0-9.955555-6.428445v121.571556c0 67.356444 54.613333 121.969778 121.969778 121.969778h0.853333l95.687111-0.625778a79.644444 79.644444 0 0 0-21.105778-41.756445z m-74.126222 110.648889h-1.308444a190.236444 190.236444 0 0 1-190.236445-190.236444v-131.697778c0-32.938667 26.737778-59.619556 59.676445-59.619555 25.6 0 50.062222 10.410667 67.754666 28.842666l187.392 194.730667a147.911111 147.911111 0 0 1 41.358222 102.570667V668.444444A204.8 204.8 0 0 1 796.444444 873.244444H227.555556A204.8 204.8 0 0 1 22.755556 668.444444v-568.888888A204.8 204.8 0 0 1 227.555556-105.244444h232.789333a34.133333 34.133333 0 0 1 0 68.266666H227.555556A136.533333 136.533333 0 0 0 91.022222 99.555556V668.444444A136.533333 136.533333 0 0 0 227.555556 804.977778h568.888888A136.533333 136.533333 0 0 0 932.977778 668.444444v-392.760888l-96.369778 0.625777zM256 577.991111h511.544889a34.133333 34.133333 0 0 1 0 68.266667H256a34.133333 34.133333 0 1 1 0-68.266667zM256 349.866667h511.544889a34.133333 34.133333 0 0 1 0 68.266666H256a34.133333 34.133333 0 1 1 0-68.266666zM256 120.376889h207.075556a34.133333 34.133333 0 0 1 0 68.266667H256a34.133333 34.133333 0 1 1 0-68.266667z"  horiz-adv-x="1024" />

    
    <glyph glyph-name="fenxiang" unicode="&#59080;" d="M927.623529 327.499294v-282.322823c0-42.405647-34.334118-76.8-76.8-76.8H173.176471c-42.405647 0-76.8 34.334118-76.8 76.8V722.823529c0 42.405647 34.334118 76.8 76.8 76.8h225.882353a36.141176 36.141176 0 1 1 0 72.282353h-225.882353A149.082353 149.082353 0 0 1 24.094118 722.823529v-677.647058A149.082353 149.082353 0 0 1 173.176471-103.905882h677.647058a149.082353 149.082353 0 0 1 149.082353 149.082353V327.499294a36.141176 36.141176 0 0 1-72.282353 0zM472.365176 166.851765c0 244.374588 136.975059 412.310588 418.334118 508.506353a36.141176 36.141176 0 1 1-23.431529 68.427294c-309.007059-105.712941-467.184941-299.610353-467.184941-576.933647a36.141176 36.141176 0 0 1 72.282352 0zM872.448 712.944941l-68.608-256a36.141176 36.141176 0 0 1 69.872941-18.672941l77.884235 290.936471a36.141176 36.141176 0 0 1-25.539764 44.212705L635.120941 851.425882a36.141176 36.141176 0 1 1-18.672941-69.812706l256-68.608z"  horiz-adv-x="1024" />

    
    <glyph glyph-name="kaipiao" unicode="&#59077;" d="M256 873.244444h625.777778A91.022222 91.022222 0 0 0 972.8 782.222222v-682.666666a91.022222 91.022222 0 0 0-91.022222-91.022223H256A91.022222 91.022222 0 0 0 164.977778 99.555556V782.222222A91.022222 91.022222 0 0 0 256 873.244444z m0-68.266666a22.755556 22.755556 0 0 1-22.755556-22.755556v-682.666666c0-12.515556 10.24-22.755556 22.755556-22.755556h625.777778a22.755556 22.755556 0 0 1 22.755555 22.755556V782.222222a22.755556 22.755556 0 0 1-22.755555 22.755556H256zM824.888889-36.977778H256A136.533333 136.533333 0 0 0 119.466667 99.555556V725.333333A34.133333 34.133333 0 1 1 51.2 725.333333v-625.777777A204.8 204.8 0 0 1 256-105.244444h568.888889a34.133333 34.133333 0 0 1 0 68.266666zM450.787556 451.242667a34.133333 34.133333 0 1 1-48.241778-48.298667l120.661333-120.661333a34.133333 34.133333 0 0 1 48.298667 0l241.322666 241.322666a34.133333 34.133333 0 1 1-48.241777 48.298667L547.271111 354.702222 450.787556 451.242667z"  horiz-adv-x="1024" />

    
    <glyph glyph-name="icon" unicode="&#59062;" d="M512 31.623529a412.611765 412.611765 0 1 1 0 825.22353 412.611765 412.611765 0 0 1 0-825.22353z m0 42.164706a370.447059 370.447059 0 1 0 0 740.894118 370.447059 370.447059 0 0 0 0-740.894118zM714.209882 106.315294l38.189177-48.308706a21.082353 21.082353 0 0 1 33.069176 26.142118l-38.189176 48.24847a21.082353 21.082353 0 0 1-33.069177-26.142117zM844.257882 62.945882l72.342589-104.026353a53.970824 53.970824 0 0 0-13.492706-75.113411 54.452706 54.452706 0 0 0-75.65553 13.613176l-72.342588 104.026353a53.970824 53.970824 0 0 0 13.492706 75.113412l0.240941 0.180706a54.332235 54.332235 0 0 0 75.414588-13.733647z m-54.512941-37.406117l72.282353-104.086589a12.167529 12.167529 0 0 1 16.986353-3.072 11.806118 11.806118 0 0 1 3.011765 16.444236l-72.402824 104.086588a12.167529 12.167529 0 0 1-16.865882 3.072 11.806118 11.806118 0 0 1-3.011765-16.444235zM423.875765 558.802824L546.936471 300.754824a21.082353 21.082353 0 0 1 38.00847 0l46.98353 98.785882h183.717647a21.082353 21.082353 0 1 1 0 42.164706h-196.969412a21.082353 21.082353 0 0 1-19.034353-12.047059l-33.731765-70.836706L441.344 620.122353a21.082353 21.082353 0 0 1-38.550588-1.144471L330.691765 441.705412H213.353412a21.082353 21.082353 0 0 1 0-42.164706h131.493647a21.082353 21.082353 0 0 1 19.57647 13.131294l59.452236 146.130824z"  horiz-adv-x="1024" />

    
    <glyph glyph-name="Content" unicode="&#59041;" d="M75.069793 876.932414l493.850483-87.075311c10.946207-1.906759 18.926345-11.440552 18.926345-22.528V-92.689655a22.881103 22.881103 0 0 0-26.835862-22.528L56.567172-26.306207a53.389241 53.389241 0 0 0-44.137931 52.577104V824.32A53.389241 53.389241 0 0 0 75.069793 876.932414z m-7.944827-45.091311a7.627034 7.627034 0 0 1-8.933518-7.521103V26.306207c0-3.707586 2.648276-6.850207 6.320552-7.521104l477.572414-84.179862V748.120276L67.160276 831.841103zM1054.861241 876.932414L561.010759 789.821793a22.881103 22.881103 0 0 1-18.926345-22.528V-92.689655c0-14.230069 12.852966-24.999724 26.835862-22.528l504.443586 88.911448a53.389241 53.389241 0 0 1 44.137931 52.577104V824.32A53.389241 53.389241 0 0 1 1054.861241 876.932414z m7.944828-45.091311a7.627034 7.627034 0 0 0 8.933517-7.521103V26.306207a7.627034 7.627034 0 0 0-6.320552-7.521104l-477.572413-84.179862V748.120276l474.924138 83.720827zM423.97131 514.754207l-248.584827 47.845517a22.881103 22.881103 0 1 0 8.615724 44.950069l248.584827-47.845517a22.881103 22.881103 0 1 0-8.615724-44.950069zM711.397517 514.754207l248.584828 47.845517a22.881103 22.881103 0 0 1-8.651035 44.950069l-248.584827-47.845517a22.881103 22.881103 0 1 1 8.651034-44.950069zM423.97131 331.034483l-248.584827 47.845517a22.881103 22.881103 0 1 0 8.615724 44.914759l248.584827-47.845518A22.881103 22.881103 0 0 0 424.006621 331.034483zM711.397517 331.034483l248.584828 47.845517a22.881103 22.881103 0 0 1-8.651035 44.914759l-248.584827-47.845518A22.881103 22.881103 0 1 1 711.397517 331.034483zM423.97131 143.430621l-248.584827 47.845517a22.881103 22.881103 0 1 0 8.615724 44.950069l248.584827-47.845517a22.881103 22.881103 0 0 0-8.615724-44.950069zM711.397517 143.430621l248.584828 47.845517a22.881103 22.881103 0 0 1-8.651035 44.950069l-248.584827-47.845517a22.881103 22.881103 0 0 1 8.651034-44.950069z"  horiz-adv-x="1129" />

    
    <glyph glyph-name="dog" unicode="&#58913;" d="M927.3 443c-21.1 55.3-51.7 109.1-88.4 155.5-41.1 51.9-88.3 93.2-140.1 122.6-58.6 33.2-121.3 50.1-186.4 50.1-65.9 0-129.2-16.7-188.1-49.7-52.2-29.2-99.5-70.3-140.7-122-36.7-46.1-67.3-99.7-88.3-154.9-20.3-53.1-31-105.4-31-151.1 0-41.7 9.2-76.8 26.5-101.5 19.6-28 49.4-42.8 86.1-42.8 27.4 0 51 6.6 69.7 18.6 24.1-51.8 75.7-85 132.9-85 17.8 0 34.9 3.2 50.7 9.1v-14.1c0-44.1 35.9-80 80-80s80 35.9 80 80v14.8c16.3-6.3 33.9-9.8 52.3-9.8 57.5 0 109.1 33.6 133 86 18.9-12.6 43-19.5 71.1-19.5 36.4 0 66 14.6 85.4 42.2 17.2 24.4 26.2 59.1 26.2 100.3 0.2 45.5-10.6 97.9-30.9 151.2zM560.2 77.60000000000002c0-27.6-22.4-50-50-50s-50 22.4-50 50V107c13.8 9.2 26 20.7 36 33.9v-45.8c0-8.3 6.7-15 15-15s15 6.7 15 15v45.7c9.5-12.6 21-23.6 34-32.5v-30.7z m-49.1 167.6h-0.2l-73 40.8 20.8 29.8h104.4l20.8-29.8-72.8-40.8z m396.5-36.6c-13.8-19.6-34.2-29.5-60.9-29.5-26.1 0-47.8 7.2-62.9 20.9-15.7 14.2-23.6 34.7-23.6 60.8 0 57.3-0.4 130.2-0.7 183.5-0.2 34.3-0.4 61.4-0.4 75 0 8.3-6.7 15-15 15s-15-6.7-15-15c0-13.7 0.2-40.8 0.4-75.1 0.3-53.2 0.7-126.2 0.7-183.3 0-28.5 8.1-52.8 22.7-71.4-1.2-1.3-2.2-2.8-2.9-4.5-18.1-43.9-60.3-72.3-107.4-72.3-60.6 0-110.5 47.1-115.9 107l74.1 41.5c6.8 3.8 11.7 10.4 13.5 18 1.7 7.6 0.2 15.6-4.3 22L587 334c-5.2 7.4-13.7 11.8-22.7 11.8H457.6c-9.1 0-17.6-4.4-22.7-11.8l-23-32.9c-4.5-6.4-6-14.4-4.3-22 1.7-7.6 6.6-14.2 13.4-18l74.7-41.9c-5.5-59.7-55.5-106.6-116.2-106.6-47 0-89.2 28.2-107.5 71.8-0.6 1.4-1.4 2.7-2.3 3.8 15.3 18.7 23.7 43.4 23.7 72.6 0 57.2 0.4 130.1 0.7 183.3 0.2 34.3 0.4 61.5 0.4 75.1 0 8.3-6.7 15-15 15s-15-6.7-15-15c0-13.6-0.2-40.7-0.4-75-0.3-53.3-0.7-126.2-0.7-183.5 0-26.1-8-46.6-23.6-60.8-15.1-13.7-36.8-20.9-62.9-20.9-26.9 0-47.6 10.1-61.5 30-13.8 19.6-21 48.8-21 84.3 0 42.2 10 90.7 29 140.5 20 52.4 48.9 103.1 83.8 146.9 38.7 48.7 83.1 87.2 131.9 114.5 54.4 30.5 112.7 45.9 173.4 45.9 59.9 0 117.6-15.5 171.6-46.2 48.5-27.5 92.7-66.2 131.4-115.1 68.7-86.8 113-199.9 113-288.2-0.1-35-7.3-63.7-20.9-83zM383.2 415.1m-25 0a25 25 0 1 1 50 0 25 25 0 1 1-50 0ZM639.2 415.1m-25 0a25 25 0 1 1 50 0 25 25 0 1 1-50 0Z"  horiz-adv-x="1024" />

    
    <glyph glyph-name="cat" unicode="&#58914;" d="M951.5 704.8c-5.1 26.7-12.5 43.5-22.4 51.5-19.4 15.5-52.9 7.5-105.3-25.2-34.7-21.6-71.5-50.3-98.7-72.5-64.2 35-137.9 53.4-214 53.4-75.6 0-149-18.2-212.9-52.8-27.1 22.2-63.9 50.7-98.5 72.2-52.1 32.4-85.4 40.3-104.7 24.9-10-8-17.3-24.8-22.4-51.5-4.6-24-7-54-6.8-86.6 0.2-45.6 5.9-136 41-228.1 0.2-0.5 0.4-0.9 0.6-1.4-1-10.4-1.6-20.9-1.6-31.2 0-48.1 10.8-94.8 32.2-138.7 20.5-42.3 49.9-80.2 87.3-112.7 76.4-66.5 177.9-103.2 285.8-103.2s209.3 36.6 285.8 103.2c37.4 32.5 66.7 70.4 87.3 112.7 21.4 43.9 32.2 90.6 32.2 138.7 0 9.2-0.4 18.5-1.3 27.9 0.9 1.5 1.6 3.1 2.3 4.8 35.1 92.2 40.8 182.5 41 228.1 0 32.5-2.3 62.5-6.9 86.5z m-23.3-87c-0.3-43.5-5.7-129.6-39-217 0-0.1-0.1-0.2-0.1-0.3-3.3-3.2-5-7.8-4.5-12.4 1.1-10.3 1.7-20.6 1.7-30.6 0-86.3-38.8-167.6-109.1-228.8-71-61.8-165.5-95.8-266.1-95.8-100.6 0-195.1 34-266.1 95.8-70.4 61.3-109.1 142.5-109.1 228.8 0 10.8 0.6 21.8 1.9 32.6 0.4 3.6-0.5 7.3-2.6 10.3-0.1 0.2-0.2 0.3-0.3 0.5-33.3 87.5-38.8 173.5-39 217-0.2 30.6 1.9 58.6 6.1 80.8 4.5 23.8 10.1 32.8 11.8 34.3 0 0 1.4 1 5.4 1 8 0 26.3-4 64.7-27.9 36.6-22.8 76.3-54.1 103.1-76.4 4.8-4 11.6-4.6 17-1.5 61.5 35.3 133 53.9 207 53.9 74.5 0 146.4-18.9 208.2-54.5 5.4-3.1 12.3-2.6 17.1 1.5 26.8 22.3 66.5 53.7 103.3 76.7 58.2 36.3 70.6 27.3 70.7 27.3 1.8-1.5 7.3-10.5 11.8-34.3 4.2-22.4 6.3-50.4 6.1-81zM434 398.3c0 52.7-42.9 95.5-95.5 95.5S243 450.9 243 398.3c0-52.7 42.9-95.5 95.5-95.5s95.5 42.8 95.5 95.5z m-95.5-75.6c-41.7 0-75.5 33.9-75.5 75.5s33.9 75.5 75.5 75.5 75.5-33.9 75.5-75.5-33.9-75.5-75.5-75.5zM338.5 440.3c-8.3 0-15-6.7-15-15v-53.9c0-8.3 6.7-15 15-15s15 6.7 15 15v53.9c0 8.2-6.7 15-15 15zM687.6 493.8c-52.7 0-95.5-42.9-95.5-95.5 0-52.7 42.9-95.5 95.5-95.5s95.5 42.9 95.5 95.5c0.1 52.7-42.8 95.5-95.5 95.5z m0-171.1c-41.7 0-75.5 33.9-75.5 75.5s33.9 75.5 75.5 75.5c41.7 0 75.5-33.9 75.5-75.5s-33.8-75.5-75.5-75.5zM687.6 440.3c-8.3 0-15-6.7-15-15v-53.9c0-8.3 6.7-15 15-15s15 6.7 15 15v53.9c0 8.2-6.7 15-15 15zM634.8 218.89999999999998c-5.1 2.1-11-0.3-13.1-5.4-8.1-19.5-26.8-32.1-47.7-32.1-26.3 0-48 19.9-51.2 45.7l33.1 18.5c3.9 2.2 6.8 6 7.8 10.4s0.1 9-2.5 12.7L550.4 284c-3 4.3-7.9 6.8-13.1 6.8h-50.1c-5.2 0-10.1-2.6-13.1-6.8l-10.8-15.4c-2.6-3.7-3.5-8.3-2.5-12.7 1-4.4 3.8-8.2 7.8-10.4l33.4-18.7c-3.3-25.6-25.1-45.5-51.4-45.5-20.9 0-39.6 12.5-47.8 31.9-2.1 5.1-8 7.5-13.1 5.3-5.1-2.1-7.5-8-5.3-13.1 11.3-26.8 37.3-44.2 66.2-44.2 26.3 0 49.3 14.3 61.8 35.5 12.5-21.2 35.5-35.5 61.7-35.5 29 0 55 17.5 66.2 44.5 2.1 5.2-0.3 11.1-5.5 13.2z m-145.5 51.9h45.9l7-10-30-16.8-30 16.8 7.1 10z"  horiz-adv-x="1024" />

    
    <glyph glyph-name="birthday" unicode="&#58887;" d="M987.84670873 18.199214350000034h-115.48404984c36.49396741 28.65347222 56.55441491 74.60308558 56.55441345 125.9365347v163.59624694c0 92.30791582-71.90815118 168.92126847-164.21606702 168.92126995H260.08922594c-90.25843872 0-165.14655046-72.56718124-168.38137666-162.05046819-0.75856252-3.39015792-1.28488159-7.55396079-1.28488161-10.80085149v-159.667704c0-51.33345059 25.50913049-97.28306395 62.00309792-125.93653617h-115.48404981c-13.58325386 0-24.59221978-11.30002508-24.59221978-24.88327892s11.00896594-24.88327894 24.59221978-24.88327892h950.90167793c13.58325386 0 24.59221978 11.30002508 24.59221978 24.88327892s-11.00594943 24.88478718-24.58920476 24.88478718z m-727.75748279 410.19707899h504.61027261c57.34615442 0 105.27285788-42.27593605 115.97115893-96.53354795l-117.80649007-40.93224021c-11.09492565-3.79733877-22.6739454-6.25852146-34.4098036-6.63855685-11.74792418-0.39059164-23.42949141 0.75403924-34.75515521 3.82146776l-126.37538579 34.65109653c-14.16989689 3.83654876-28.79673941 6.10017328-43.47184142 6.10017473h-0.28804265c-14.57707776 0-29.1074043-2.266641-43.20340449-6.02929452l-133.60209393-35.73238842c-10.20214394-2.72207986-20.73003376-4.27087513-31.25943037-4.16832615-10.5414611 0.06333899-21.03466567 1.44775453-31.19156663 4.29349735l-140.9026973 40.68340608c9.08164206 56.22112927 57.93882897 100.48471167 116.68447992 100.48471165z m-121.40627064-152.66570098l130.74127158-35.77763139c14.38404284-4.03863169 30.84169325-6.09866503 45.76713469-6.09866504h1.06319589c14.56652003 0 29.08779858 1.63777148 43.18983026 5.40042648l133.60511042 36.86646157c9.95481953 2.6587409 20.21879568 4.4835143 30.50991587 4.48351429h0.20811443c10.36200039 0 20.69233203-2.22139803 30.69842605-4.92990514l126.37236926-34.49425656c16.0399118-4.34175534 32.5850302-6.53600788 49.2161098-6.00818058 16.61901362 0.54140006 31.88679017 3.40373066 47.60246583 8.78002667l102.99867709 35.48958873v-135.30622234c0-65.18514138-50.7724448-116.88807109-115.95758616-116.88806966H260.08922594c-65.18514138 0-121.40627065 51.70292825-121.40627064 116.88806966v131.59484331z m175.69102951 417.45696415c13.58325386 0 24.88327894-11.00896594 24.88327745-24.59221978v-163.94913686c0-13.58325386-11.30002508-24.59221978-24.88327745-24.59221975s-24.88327894 11.00896594-24.88327891 24.59221975V668.59533673c0 13.58325386 11.30002508 24.59221978 24.88327891 24.59221978z m210.37680981 0c13.58325386 0 24.12923968-11.00896594 24.12924117-24.59221978v-163.94913686c0-13.58325386-10.54598582-24.59221978-24.12924117-24.59221975s-24.12923968 11.00896594-24.12923965 24.59221975V668.59533673c0 13.58325386 10.54598582 24.59221978 24.12923965 24.59221978z m212.63892756 0c13.58325386 0 24.12923968-11.00896594 24.12923968-24.59221978v-163.94913686c0-13.58325386-10.54598582-24.59221978-24.12923968-24.59221975s-24.12923968 11.00896594-24.12923967 24.59221975V668.59533673c0 13.58325386 10.54598582 24.59221978 24.12923967 24.59221978zM316.74468157 723.16663003c21.04069719 0 38.16039263 17.11818721 38.1603941 38.16039263s-17.11818721 38.16039263-38.1603941 38.16039263c-21.04069719 0-38.16039263-17.11818721-38.16039264-38.16039263s17.11969547-38.16039263 38.16039264-38.16039263z m211.36007748 0c21.04069719 0 38.16039263 17.11818721 38.16039409 38.16039263s-17.11818721 38.16039263-38.16039409 38.16039263c-21.04069719 0-38.16039263-17.11818721-38.16039265-38.16039263s17.11818721-38.16039263 38.16039265-38.16039263z m211.35857069 0c21.03768067 0 38.15586935 17.11818721 38.15586789 38.16039263s-17.11818721 38.16039263-38.15586789 38.16039263c-21.04069719 0-38.16039263-17.11818721-38.16039411-38.16039263s17.11969547-38.16039263 38.16039411-38.16039263z"  horiz-adv-x="1024" />

    
    <glyph glyph-name="weight" unicode="&#58912;" d="M811.313131 810.666667h-598.626262C150.238384 810.666667 99.555556 759.854545 99.555556 697.535354v-627.070708c0-62.319192 50.682828-113.131313 113.131313-113.131313h598.626262c62.319192 0 113.131313 50.682828 113.131313 113.131313v627.070708c0 62.319192-50.682828 113.131313-113.131313 113.131313zM872.727273 70.46464600000002c0-33.874747-27.539394-61.414141-61.414142-61.414141h-598.626262C178.812121 9.050505000000044 151.272727 36.589898999999946 151.272727 70.46464600000002v627.070708c0 33.874747 27.539394 61.414141 61.414142 61.414141h598.626262c33.874747 0 61.414141-27.539394 61.414142-61.414141v-627.070708zM802.521212 598.626263c-5.947475 3.232323-146.876768 80.678788-291.167677 80.678788S226.262626 601.8585860000001 220.315152 598.626263c-11.636364-6.464646-16.420202-20.686869-11.248485-32.840404L276.686869 408.824242c2.844444-6.723232 8.533333-11.894949 15.515151-14.222222 2.715152-0.905051 5.559596-1.422222 8.274748-1.422222 4.39596 0 8.791919 1.163636 12.670707 3.361616 0.775758 0.517172 82.876768 45.769697 198.335353 45.769697 114.165657 0 196.913131-44.993939 198.335354-45.769697 6.335354-3.620202 13.963636-4.266667 20.945454-1.939394 6.981818 2.327273 12.541414 7.49899 15.515152 14.222222l67.620202 156.961617c5.042424 12.153535 0.258586 26.375758-11.377778 32.840404z m-93.220202-144.808081c-36.20202 15.515152-107.830303 40.080808-197.818182 40.080808-18.488889 0-36.20202-1.034343-53.010101-2.844445l-26.246464 87.272728c-4.137374 13.705051-18.488889 21.462626-32.19394 17.325252-13.705051-4.137374-21.462626-18.488889-17.325252-32.193939l24.30707-80.549495c-40.468687-8.533333-72.662626-20.29899-93.349495-29.090909L266.343434 563.8464650000001c42.666667 20.557576 144.808081 63.741414 245.010101 63.741414s202.472727-43.183838 245.139394-63.612121L709.30101 453.818182z"  horiz-adv-x="1024" />

    
    <glyph glyph-name="man" unicode="&#58929;" d="M448.31999999 58.773333330000014c142.50666667 0 258.02666667 115.52 258.02666667 258.02666666S590.82666666 574.82666666 448.31999999 574.82666666 190.29333333 459.30666666 190.29333333 316.79999998999995s115.52-258.02666667 258.02666666-258.02666666z m248.10666667 464.21333333c46.50666667-55.89333333 74.45333333-127.78666667 74.45333333-206.08 0-178.13333333-144.42666667-322.56-322.56-322.56S125.86666666 138.66666666000003 125.86666666 316.79999998999995s144.42666667 322.56 322.56 322.56c76.48 0 146.77333333-26.66666667 202.13333333-71.14666666L786.13333333 703.89333333H609.59999999c-17.81333333 0-32.21333333 14.4-32.21333333 32.21333333s14.4 32.21333333 32.21333333 32.21333333h258.02666667c17.81333333 0 32.21333333-14.4 32.21333333-32.21333333v-258.02666667c0-17.81333333-14.4-32.21333333-32.21333333-32.21333333s-32.21333333 14.4-32.21333333 32.21333333V661.86666666L696.42666666 522.9866666600001z"  horiz-adv-x="1024" />

    
    <glyph glyph-name="woman" unicode="&#58930;" d="M450.38222222 188.80000000999996c141.33333333 0 255.78666667 114.56 255.78666666 255.78666666S591.60888888 700.48000001 450.38222222 700.48000001 194.48888888 585.92000001 194.48888888 444.69333334 309.04888888 188.80000000999996 450.38222222 188.80000000999996zM697.95555555 242.24000001000002l77.65333333-77.65333334 45.22666667 45.22666667c12.48 12.48 32.74666667 12.48 45.22666667 0s12.48-32.74666667 0-45.22666667L820.83555555 119.46666667l67.84-67.84c12.48-12.48 12.48-32.74666667 0-45.22666666s-32.74666667-12.48-45.22666667 0l-67.84 67.84-45.22666666-45.22666667c-12.48-12.48-32.74666667-12.48-45.22666667 0s-12.48 32.74666667 0 45.22666667l45.22666667 45.22666666-77.65333334 77.65333334c-55.14666667-45.12-125.65333333-72.21333333-202.34666666-72.21333334-176.64 0-319.78666667 143.14666667-319.78666667 319.78666667s143.14666667 319.78666667 319.78666667 319.78666667 319.78666667-143.14666667 319.78666666-319.78666667c-0.10666667-76.8-27.09333333-147.30666667-72.21333333-202.45333333z"  horiz-adv-x="1024" />

    
    <glyph glyph-name="email" unicode="&#58880;" d="M938.666667 42.66666699999996L85.333333 42.66666699999996c-47.061333 0-85.333333 38.272-85.333333 85.333333L0 640c0 47.061333 38.272 85.333333 85.333333 85.333333l853.333333 0c47.061333 0 85.333333-38.272 85.333333-85.333333l0-512C1024 80.93866700000001 985.728 42.66666699999996 938.666667 42.66666699999996zM85.333333 682.666667c-23.530667 0-42.666667-19.136-42.666667-42.666667l0-512c0-23.530667 19.136-42.666667 42.666667-42.666667l853.333333 0c23.530667 0 42.666667 19.136 42.666667 42.666667L981.333333 640c0 23.530667-19.136 42.666667-42.666667 42.666667L85.333333 682.666667zM512 273.25866699999995L137.749333 515.413333c-9.898667 6.421333-12.736 19.605333-6.336 29.504s19.605333 12.714667 29.504 6.336L512 324.074667 863.082667 551.253333c9.898667 6.378667 23.104 3.562667 29.504-6.336s3.562667-23.082667-6.336-29.504L512 273.25866699999995zM128.021333 170.66666699999996c-6.890667 0-13.674667 3.328-17.770667 9.493333-6.549333 9.813333-3.904 23.04 5.909333 29.589333l192 128c9.813333 6.549333 23.061333 3.904 29.589333-5.909333 6.549333-9.813333 3.904-23.04-5.909333-29.589333l-192-128C136.192 171.84000000000003 132.074667 170.66666699999996 128.021333 170.66666699999996zM895.978667 170.66666699999996c-4.053333 0-8.170667 1.173333-11.818667 3.584l-192 128c-9.813333 6.549333-12.458667 19.776-5.909333 29.589333 6.528 9.813333 19.754667 12.458667 29.589333 5.909333l192-128c9.813333-6.549333 12.458667-19.776 5.909333-29.589333C909.653333 173.99466700000005 902.869333 170.66666699999996 895.978667 170.66666699999996z"  horiz-adv-x="1024" />

    
    <glyph glyph-name="send1" unicode="&#59047;" d="M851.2 345.6c-19.2 19.2-44.8 19.2-57.6 0-19.2-12.8-19.2-44.8 0-57.6l76.8-76.8H627.2c-25.6 0-44.8-19.2-44.8-38.4 0-25.6 19.2-38.4 44.8-38.4h256l-89.6-89.6c-19.2-19.2-19.2-44.8 0-57.6 6.4-6.4 19.2-12.8 32-12.8s19.2 6.4 32 12.8l153.6 153.6c19.2 19.2 19.2 44.8 0 57.6l-160 147.2zM1024 768s0 6.4-6.4 6.4c0 6.4-6.4 12.8-19.2 12.8h-12.8H44.8 25.6c-6.4 0-12.8-6.4-19.2-12.8 0 0 0-6.4-6.4-6.4v-742.4c0-25.6 19.2-38.4 44.8-38.4h518.4c25.6 0 44.8 19.2 44.8 38.4 0 25.6-19.2 38.4-44.8 38.4H83.2V665.6l403.2-339.2c6.4-6.4 19.2-12.8 25.6-12.8s19.2 0 25.6 12.8l403.2 339.2v-249.6c0-25.6 19.2-44.8 44.8-44.8 25.6 0 44.8 19.2 44.8 44.8V755.2c-6.4 0-6.4 6.4-6.4 12.8zM512 409.6L153.6 710.4h716.8L512 409.6z"  horiz-adv-x="1030" />

    
    <glyph glyph-name="send" unicode="&#58910;" d="M536.88037831 27.373476979999964H159.28233529c-27.37948445 0-52.35306951 10.50323627-71.11675449 27.67075555l300.3645952 300.3645952 18.75785955-18.76368498c18.07045973-18.08211058 42.18188231-28.04358258 67.8661689-28.04358257 25.68428658 0 49.79570915 9.96729742 67.86616888 28.04358257l346.89806792 346.90971876c1.9922944-8.14976569 3.00009245-16.50342115 3.00009244-24.88620373v-203.05091698a28.83584 28.83584 0 1 1 57.67750542 0V658.65700693c0 89.94451911-73.16730311 163.11182222-163.11764764 163.11182222H159.28233529c-89.93869369 0-163.11182222-73.16147769-163.11182222-163.11182222v-525.86668942c0-89.93286827 73.17312853-163.12347307 163.11182222-163.12347306h377.59804302a28.84166542 28.84166542 0 0 1 28.84166542 28.85331626 28.83584 28.83584 0 0 1-28.84166542 28.85331627z m-479.51963022 78.45096107a105.06148978 105.06148978 0 0 0-3.49525334 26.9775303v525.860864a105.39936427 105.39936427 0 0 0 3.6933177 27.69988267l290.1701063-290.16428089-290.36817066-290.37399608zM787.48421689 764.09132373a105.03236267 105.03236267 0 0 0 72.46825244-28.9406976l-357.73335324-357.71587698a37.99340373 37.99340373 0 0 0-27.06491164-11.13820728 38.02253085 38.02253085 0 0 0-27.0765625 11.13820728l-359.42272568 359.42855112a105.00323555 105.00323555 0 0 0 70.62741902 27.22802346H787.48421689zM1019.38262471 170.74876871000004l-175.25200213 175.29860551a28.84749085 28.84749085 0 1 1-40.81873351-40.7896064l126.05048604-126.03300977H611.73122845a28.85331627 28.85331627 0 0 1 0-57.70663254h317.63114666l-126.05048604-126.02135893a28.84749085 28.84749085 0 0 1 0-40.7896064 28.70768071 28.70768071 0 0 1 20.41810488-8.47598933c7.37498453 0 14.73831822 2.81950435 20.40062863 8.47598933l175.25200213 175.25200213a28.84749085 28.84749085 0 0 1 0 40.7896064z"  horiz-adv-x="1024" />

    
    <glyph glyph-name="audit" unicode="&#59515;" d="M882.4832 29.2864a278.784 278.784 0 1 1-40.6528-40.96l115.0464-115.0976 40.96 40.96z m-44.544 36.4032l-14.4896-17.8176-17.8688-14.5408a222.6688 222.6688 0 1 0 32.3584 32.3584zM198.144 558.08h241.8176v-57.6H198.144z m0 0M82.9952 837.12h179.968v-85.6064h57.6V837.12h142.4384v-85.6064h57.6V837.12h142.5408v-85.6064h57.5488V837.12h179.8656v-311.2448h57.6V894.72H25.6v-954.2656h311.0912v57.6H82.9952z m0 0M198.144 336.5376h138.5472v-57.6H198.144z"  horiz-adv-x="1024" />

    
    <glyph glyph-name="Enabled" unicode="&#58965;" d="M972.544 383.146667c-1.706667-237.824-186.624-440.32-424.704-459.434667-239.018667-19.2-451.925333 154.197333-491.52 388.096C16.554667 547.84 177.408 775.68 406.186667 831.744c231.936 56.661333 472.576-84.48 545.109333-309.504 14.506667-44.970667 20.821333-91.733333 21.248-139.093333 0.256-33.28 52.053333-33.28 51.712 0-1.706667 235.178667-164.266667 442.709333-393.130667 498.602666C401.664 937.813333 158.805333 821.76 53.077333 612.096c-106.496-211.370667-48.042667-475.306667 133.717334-625.152 182.613333-150.272 453.034667-153.344 639.402666-8.362667a517.973333 517.973333 0 0 1 198.229334 404.565334c0.085333 33.536-51.626667 33.536-51.882667 0zM237.056 397.226667l222.208-219.221334c9.642667-9.472 27.136-10.581333 36.522667 0L821.589333 542.72c22.186667 24.746667-14.336 61.44-36.522666 36.522667L459.264 214.613333h36.522667l-222.208 219.306667c-23.637333 23.381333-60.330667-13.226667-36.522667-36.693333z"  horiz-adv-x="1024" />

    
    <glyph glyph-name="btn-delete" unicode="&#58896;" d="M974.696296 694.992593H26.548148c-11.377778 0-22.755556 11.377778-22.755555 22.755555s11.377778 22.755556 22.755555 22.755556h948.148148c11.377778 0 22.755556-11.377778 22.755556-22.755556s-11.377778-22.755556-22.755556-22.755555zM769.896296-93.866667H216.177778c-53.096296 0-98.607407 45.511111-98.607408 98.607408V694.992593c0 11.377778 11.377778 22.755556 22.755556 22.755555s22.755556-11.377778 22.755555-22.755555v-690.251852c0-30.340741 22.755556-53.096296 53.096297-53.096297h553.718518c30.340741 0 53.096296 22.755556 53.096297 53.096297V694.992593c0 11.377778 11.377778 22.755556 22.755555 22.755555s22.755556-11.377778 22.755556-22.755555v-690.251852c0-53.096296-45.511111-98.607407-98.607408-98.607408zM303.407407 145.066667c-11.377778 0-22.755556 11.377778-22.755555 22.755555V550.874074c0 15.17037 11.377778 22.755556 22.755555 22.755556s22.755556-11.377778 22.755556-22.755556v-383.051852c0-11.377778-7.585185-22.755556-22.755556-22.755555zM493.037037 145.066667c-11.377778 0-22.755556 11.377778-22.755556 22.755555V550.874074c0 15.17037 11.377778 22.755556 22.755556 22.755556s22.755556-11.377778 22.755556-22.755556v-383.051852c0-11.377778-11.377778-22.755556-22.755556-22.755555zM682.666667 145.066667c-11.377778 0-22.755556 11.377778-22.755556 22.755555V550.874074c0 15.17037 7.585185 22.755556 22.755556 22.755556s22.755556-11.377778 22.755555-22.755556v-383.051852c0-11.377778-11.377778-22.755556-22.755555-22.755555zM750.933333 721.540741c-11.377778 0-22.755556 11.377778-22.755555 22.755555v18.962963c0 30.340741-22.755556 53.096296-53.096297 53.096297H310.992593c-30.340741 0-53.096296-22.755556-53.096297-53.096297V744.296296c0-11.377778-11.377778-22.755556-22.755555-22.755555s-22.755556 7.585185-22.755556 22.755555v18.962963C212.385185 816.355556 257.896296 861.866667 310.992593 861.866667h364.088888c53.096296 0 98.607407-45.511111 98.607408-98.607408V744.296296c0-15.17037-11.377778-22.755556-22.755556-22.755555z"  horiz-adv-x="1024" />

    
    <glyph glyph-name="btn-stop" unicode="&#58897;" d="M504.685714-113.371429C230.4-113.371429 7.314286 109.714286 7.314286 384S230.4 881.371429 504.685714 881.371429 1002.057143 658.285714 1002.057143 384s-223.085714-497.371429-497.371429-497.371429z m0 950.857143C256 837.485714 51.2 632.685714 51.2 384c0-248.685714 204.8-453.485714 453.485714-453.485714 248.685714 0 453.485714 204.8 453.485715 453.485714 0 248.685714-204.8 453.485714-453.485715 453.485714zM640 179.2h-270.628571c-18.285714 0-29.257143 3.657143-40.228572 7.314286-7.314286 3.657143-18.285714 14.628571-21.942857 21.942857-7.314286 10.971429-7.314286 21.942857-7.314286 40.228571v270.628572c0 18.285714 3.657143 29.257143 7.314286 40.228571 3.657143 7.314286 14.628571 18.285714 21.942857 21.942857 10.971429 7.314286 21.942857 7.314286 40.228572 7.314286h270.628571c18.285714 0 29.257143-3.657143 40.228571-7.314286 7.314286-3.657143 18.285714-14.628571 21.942858-21.942857 7.314286-10.971429 7.314286-21.942857 7.314285-40.228571v-270.628572c0-18.285714-3.657143-29.257143-7.314285-40.228571-3.657143-10.971429-14.628571-18.285714-21.942858-21.942857-10.971429-3.657143-21.942857-7.314286-40.228571-7.314286z m-270.628571 365.714286c-14.628571 0-14.628571 0-18.285715-3.657143-3.657143 0-3.657143-3.657143-3.657143-3.657143 0-3.657143-3.657143-3.657143-3.657142-18.285714v-270.628572c0-14.628571 0-14.628571 3.657142-18.285714 0-3.657143 3.657143-3.657143 3.657143-3.657143 3.657143 0 3.657143-3.657143 18.285715-3.657143h270.628571c14.628571 0 14.628571 0 18.285714 3.657143 3.657143 0 3.657143 3.657143 3.657143 3.657143 0 3.657143 3.657143 3.657143 3.657143 18.285714v270.628572c0 14.628571 0 14.628571-3.657143 18.285714 0 3.657143-3.657143 3.657143-3.657143 3.657143-3.657143 0-3.657143 3.657143-18.285714 3.657143h-270.628571z"  horiz-adv-x="1024" />

    
    <glyph glyph-name="btn-offshelf" unicode="&#58899;" d="M534.4-42.666667c-12.8 0-25.6 12.8-25.6 25.6V661.333333c0 12.8 12.8 25.6 25.6 25.6s25.6-12.8 25.6-25.6v-678.4c0-12.8-12.8-25.6-25.6-25.6zM534.4-102.4c-4.266667 0-12.8 0-17.066667 8.533333l-290.133333 256c-8.533333 8.533333-12.8 25.6-4.266667 34.133334 8.533333 8.533333 25.6 12.8 34.133334 4.266666l273.066666-238.933333 273.066667 238.933333c8.533333 8.533333 25.6 8.533333 34.133333-4.266666s8.533333-25.6-4.266666-34.133334l-290.133334-256c4.266667-4.266667-4.266667-8.533333-8.533333-8.533333zM1037.866667 605.866667c-12.8 0-25.6 12.8-25.6 25.6V840.533333h-960v-209.066666c0-12.8-12.8-25.6-25.6-25.6s-25.6 12.8-25.6 25.6V866.133333c0 12.8 12.8 25.6 25.6 25.6h1011.2c12.8 0 25.6-12.8 25.6-25.6v-234.666666c0-12.8-8.533333-25.6-25.6-25.6z"  horiz-adv-x="1066" />

    
    <glyph glyph-name="btn-open" unicode="&#58900;" d="M512-113.371429C237.714286-113.371429 14.628571 109.714286 14.628571 384S237.714286 881.371429 512 881.371429 1009.371429 658.285714 1009.371429 384 786.285714-113.371429 512-113.371429z m0 950.857143C263.314286 837.485714 58.514286 632.685714 58.514286 384c0-248.685714 204.8-453.485714 453.485714-453.485714 248.685714 0 453.485714 204.8 453.485714 453.485714 0 248.685714-204.8 453.485714-453.485714 453.485714zM420.571429 160.914286c-3.657143 0-7.314286 0-10.971429 3.657143-7.314286 3.657143-10.971429 10.971429-10.971429 18.285714v402.285714c0 7.314286 3.657143 14.628571 10.971429 18.285714 7.314286 3.657143 14.628571 3.657143 21.942857 0l292.571429-201.142857c7.314286-3.657143 10.971429-10.971429 10.971428-18.285714s-3.657143-14.628571-10.971428-18.285714l-292.571429-201.142857c-3.657143-3.657143-7.314286-3.657143-10.971428-3.657143z m21.942857 384v-318.171429l230.4 160.914286-230.4 157.257143z"  horiz-adv-x="1024" />

    
    <glyph glyph-name="btn-setpermission" unicode="&#58901;" d="M724.992-123.904c-159.744 0-290.816 131.072-290.816 290.816s131.072 290.816 290.816 290.816 290.816-131.072 290.816-290.816-131.072-290.816-290.816-290.816z m0 532.48c-135.168 0-241.664-106.496-241.664-241.664s106.496-241.664 241.664-241.664 241.664 110.592 241.664 241.664-110.592 241.664-241.664 241.664zM393.216-111.616h-368.64c-12.288 0-24.576 12.288-24.576 24.576V855.04C0 867.328 12.288 879.616 24.576 879.616h741.376c12.288 0 24.576-12.288 24.576-24.576v-315.392c0-12.288-12.288-24.576-24.576-24.576s-24.576 12.288-24.576 24.576V830.464H49.152v-892.928h344.064c12.288 0 24.576-12.288 24.576-24.576s-8.192-24.576-24.576-24.576zM385.024 662.528H172.032c-12.288 0-20.48 8.192-20.48 20.48s8.192 20.48 20.48 20.48h212.992c12.288 0 20.48-8.192 20.48-20.48s-12.288-20.48-20.48-20.48zM643.072 576.512H172.032c-12.288 0-20.48 8.192-20.48 20.48s8.192 20.48 20.48 20.48h475.136c12.288 0 20.48-8.192 20.48-20.48s-12.288-20.48-24.576-20.48zM675.84 23.552c-4.096 0-12.288 0-16.384 4.096l-94.208 77.824c-12.288 8.192-12.288 24.576-4.096 32.768 8.192 12.288 24.576 12.288 32.768 4.096l73.728-61.44 155.648 196.608c8.192 12.288 24.576 12.288 32.768 4.096 12.288-8.192 12.288-24.576 4.096-32.768l-172.032-217.088c4.096-4.096 0-8.192-12.288-8.192 4.096 0 4.096 0 0 0z"  horiz-adv-x="1024" />

    
    <glyph glyph-name="btn-detail" unicode="&#58902;" d="M254.103704 475.022222a45.511111 45.511111 0 1 1 91.022222 0 45.511111 45.511111 0 1 1-91.022222 0ZM254.103704 334.696296a45.511111 45.511111 0 1 1 91.022222 0 45.511111 45.511111 0 1 1-91.022222 0ZM769.896296 433.303704h-329.955555c-11.377778 0-18.962963 7.585185-18.962963 18.962963s7.585185 18.962963 18.962963 18.962963h329.955555c11.377778 0 18.962963-7.585185 18.962963-18.962963s-7.585185-18.962963-18.962963-18.962963zM769.896296 292.977778h-329.955555c-11.377778 0-18.962963 7.585185-18.962963 18.962963s7.585185 18.962963 18.962963 18.962963h329.955555c11.377778 0 18.962963-7.585185 18.962963-18.962963s-7.585185-18.962963-18.962963-18.962963zM174.459259-109.037037c-7.585185 0-11.377778 0-18.962963 3.792593-26.548148 18.962963-15.17037 60.681481 3.792593 117.57037 7.585185 22.755556 18.962963 56.888889 15.17037 72.059259C87.22963 171.614815 41.718519 285.392593 41.718519 406.755556 41.718519 664.651852 254.103704 873.244444 512 873.244444s470.281481-208.592593 470.281481-462.696296S769.896296-55.940741 512-55.940741c-60.681481 0-121.362963 11.377778-174.459259 34.133334-11.377778-3.792593-45.511111-26.548148-68.266667-37.925926-41.718519-26.548148-72.059259-49.303704-94.814815-49.303704zM512 827.733333c-235.140741 0-424.77037-185.837037-424.77037-417.185185 0-109.985185 41.718519-216.177778 121.362963-292.029629 18.962963-18.962963 11.377778-53.096296-7.585186-113.777778-3.792593-18.962963-11.377778-41.718519-15.17037-60.681482 15.17037 7.585185 41.718519 22.755556 56.888889 34.133334 53.096296 37.925926 83.437037 53.096296 106.192593 45.511111 53.096296-22.755556 106.192593-30.340741 163.081481-30.340741 235.140741 0 424.77037 185.837037 424.77037 417.185185 0 227.555556-189.62963 417.185185-424.77037 417.185185z"  horiz-adv-x="1024" />

    
    <glyph glyph-name="btn-cancelall" unicode="&#58903;" d="M519.314286-113.371429C245.028571-113.371429 21.942857 109.714286 21.942857 384S245.028571 881.371429 519.314286 881.371429 1016.685714 658.285714 1016.685714 384s-223.085714-497.371429-497.371428-497.371429z m0 950.857143C270.628571 837.485714 65.828571 632.685714 65.828571 384c0-248.685714 204.8-453.485714 453.485715-453.485714 248.685714 0 453.485714 204.8 453.485714 453.485714 0 248.685714-204.8 453.485714-453.485714 453.485714zM340.114286 175.542857c-7.314286 0-10.971429 3.657143-14.628572 7.314286-7.314286 7.314286-7.314286 21.942857 0 29.257143l365.714286 365.714285c7.314286 7.314286 21.942857 7.314286 29.257143 0s7.314286-21.942857 0-29.257142l-365.714286-365.714286c-3.657143-3.657143-10.971429-7.314286-14.628571-7.314286zM705.828571 175.542857c-7.314286 0-10.971429 3.657143-14.628571 7.314286l-365.714286 365.714286c-7.314286 7.314286-7.314286 21.942857 0 29.257142s21.942857 7.314286 29.257143 0l365.714286-365.714285c7.314286-7.314286 7.314286-21.942857 0-29.257143-3.657143-3.657143-10.971429-7.314286-14.628572-7.314286z"  horiz-adv-x="1024" />

    
    <glyph glyph-name="btn-refund" unicode="&#58904;" d="M512-108.307692c-11.815385 0-19.692308 7.876923-19.692308 19.692307s7.876923 19.692308 19.692308 19.692308c248.123077 0 452.923077 204.8 452.923077 452.923077S760.123077 836.923077 512 836.923077 59.076923 632.123077 59.076923 384c0-122.092308 47.261538-236.307692 133.907692-322.953846 7.876923-7.876923 7.876923-19.692308 0-27.569231-7.876923-7.876923-19.692308-7.876923-27.56923 0C70.892308 128 19.692308 250.092308 19.692308 384 19.692308 655.753846 240.246154 876.307692 512 876.307692S1004.307692 655.753846 1004.307692 384 783.753846-108.307692 512-108.307692zM185.107692 9.846154h-7.876923l-106.338461 43.323077c-11.815385 3.938462-15.753846 15.753846-11.815385 27.569231 3.938462 11.815385 15.753846 15.753846 27.569231 11.815384l82.707692-31.507692 7.876923 90.584615c0 11.815385 11.815385 19.692308 19.692308 15.753846s19.692308-11.815385 15.753846-19.692307l-11.815385-118.153846c0-7.876923-3.938462-11.815385-7.876923-15.753847 0-3.938462-3.938462-3.938462-7.876923-3.938461zM512 443.076923c-141.784615 0-295.384615 31.507692-295.384615 98.461539S370.215385 640 512 640s295.384615-31.507692 295.384615-98.461538-153.6-98.461538-295.384615-98.461539z m0 157.538462C342.646154 600.615385 256 557.292308 256 541.538462s86.646154-59.076923 256-59.076924 256 43.323077 256 59.076924-86.646154 59.076923-256 59.076923zM512 301.292308c-141.784615 0-295.384615 31.507692-295.384615 98.461538 0 27.569231 19.692308 47.261538 59.076923 63.015385 11.815385 3.938462 19.692308 0 27.56923-11.815385 3.938462-11.815385 0-19.692308-11.815384-27.569231-31.507692-11.815385-35.446154-23.630769-35.446154-27.56923 0-15.753846 86.646154-59.076923 256-59.076923s256 43.323077 256 59.076923c0 3.938462-3.938462 11.815385-31.507692 23.630769-11.815385 3.938462-15.753846 15.753846-7.876923 27.569231 3.938462 11.815385 15.753846 15.753846 27.56923 7.876923 35.446154-15.753846 55.138462-35.446154 55.138462-59.076923-3.938462-63.015385-157.538462-94.523077-299.323077-94.523077zM512 163.446154c-141.784615 0-295.384615 31.507692-295.384615 98.461538 0 23.630769 19.692308 43.323077 59.076923 63.015385 11.815385 3.938462 19.692308 0 27.56923-11.815385s0-19.692308-11.815384-27.56923c-31.507692-11.815385-35.446154-23.630769-35.446154-27.569231 0-15.753846 86.646154-59.076923 256-59.076923s256 43.323077 256 59.076923c0 3.938462-3.938462 11.815385-31.507692 23.630769-11.815385 3.938462-15.753846 15.753846-7.876923 27.569231 3.938462 11.815385 15.753846 15.753846 27.56923 7.876923 35.446154-15.753846 55.138462-35.446154 55.138462-59.076923-3.938462-63.015385-157.538462-94.523077-299.323077-94.523077z"  horiz-adv-x="1024" />

    
    <glyph glyph-name="btn-review" unicode="&#58905;" d="M754.526316-101.052632c-269.473684 0-512 156.294737-722.189474 468.884211-5.389474 10.778947-5.389474 21.557895 0 32.336842C237.136842 712.757895 474.273684 874.442105 738.357895 874.442105s512-156.294737 743.747368-474.273684c5.389474-10.778947 5.389474-21.557895 0-32.336842-215.578947-312.589474-458.105263-468.884211-727.578947-468.884211z m-668.294737 485.052632c199.410526-285.642105 420.378947-431.157895 668.294737-431.157895 247.915789 0 468.884211 145.515789 668.294737 425.768421-215.578947 285.642105-441.936842 436.547368-684.463158 436.547369s-463.494737-145.515789-652.126316-431.157895zM754.526316 60.631579c-161.684211 0-296.421053 145.515789-296.421053 323.368421s134.736842 323.368421 296.421053 323.368421 296.421053-145.515789 296.421052-323.368421-134.736842-323.368421-296.421052-323.368421z m0 592.842105c-134.736842 0-242.526316-118.568421-242.526316-269.473684s107.789474-269.473684 242.526316-269.473684 242.526316 118.568421 242.526316 269.473684-107.789474 269.473684-242.526316 269.473684z"  horiz-adv-x="1509" />

    
    <glyph glyph-name="btn-disable" unicode="&#58906;" d="M512-108.307692C240.246154-108.307692 19.692308 112.246154 19.692308 384S240.246154 876.307692 512 876.307692 1004.307692 655.753846 1004.307692 384 783.753846-108.307692 512-108.307692z m0 945.230769C263.876923 836.923077 59.076923 632.123077 59.076923 384S263.876923-68.923077 512-68.923077 964.923077 135.876923 964.923077 384 760.123077 836.923077 512 836.923077zM182.075077 49.860923l662.803692 662.843077 27.844923-27.884308L209.880615 22.055385z"  horiz-adv-x="1024" />

    
    <glyph glyph-name="btn-shipping" unicode="&#58907;" d="M812.521739 54.53913h-267.130435c-13.356522 0-22.26087 8.904348-22.260869 22.26087s8.904348 22.26087 22.260869 22.26087h244.869566V851.478261h-712.347827v-752.417391h155.826087c13.356522 0 22.26087-8.904348 22.26087-22.26087s-8.904348-22.26087-22.26087-22.26087h-178.086956c-13.356522 0-22.26087 8.904348-22.26087 22.26087V873.73913c0 13.356522 8.904348 22.26087 22.26087 22.26087h756.869565c13.356522 0 22.26087-8.904348 22.26087-22.26087v-796.93913c0-13.356522-8.904348-22.26087-22.26087-22.26087zM1346.782609 99.06087h-146.921739c-13.356522 0-22.26087 8.904348-22.26087 22.260869s8.904348 22.26087 22.26087 22.26087h124.660869V272.695652l-258.226087 471.930435h-209.252174c-13.356522 0-22.26087 8.904348-22.260869 22.26087s8.904348 22.26087 22.260869 22.260869h222.608696c8.904348 0 17.808696-4.452174 17.808696-13.356522l267.130434-494.191304c0-4.452174 4.452174-8.904348 4.452174-8.904348v-155.826087c0-8.904348-8.904348-17.808696-22.260869-17.808695z m-431.86087 0h-57.878261c-13.356522 0-22.26087 8.904348-22.260869 22.260869s8.904348 22.26087 22.260869 22.26087h57.878261c13.356522 0 22.26087-8.904348 22.26087-22.26087s-8.904348-22.26087-22.26087-22.260869zM389.565217-123.547826c-97.947826 0-178.086957 80.13913-178.086956 178.086956s80.13913 178.086957 178.086956 178.086957 178.086957-80.13913 178.086957-178.086957-80.13913-178.086957-178.086957-178.086956z m0 311.652174c-75.686957 0-133.565217-57.878261-133.565217-133.565218s57.878261-133.565217 133.565217-133.565217 133.565217 57.878261 133.565218 133.565217-57.878261 133.565217-133.565218 133.565218zM1057.391304-123.547826c-97.947826 0-178.086957 80.13913-178.086956 178.086956s80.13913 178.086957 178.086956 178.086957 178.086957-80.13913 178.086957-178.086957-80.13913-178.086957-178.086957-178.086956z m0 311.652174c-75.686957 0-133.565217-57.878261-133.565217-133.565218s57.878261-133.565217 133.565217-133.565217 133.565217 57.878261 133.565218 133.565217-57.878261 133.565217-133.565218 133.565218zM1164.243478 410.713043h-262.678261c-13.356522 0-22.26087 8.904348-22.260869 22.26087V606.608696c0 13.356522 8.904348 22.26087 22.260869 22.260869h169.182609c8.904348 0 17.808696-4.452174 17.808696-13.356522l93.495652-173.634782c4.452174-8.904348 4.452174-13.356522 0-22.26087 0-4.452174-8.904348-8.904348-17.808696-8.904348z m-240.417391 44.52174h204.8L1057.391304 584.347826h-133.565217v-129.113043z"  horiz-adv-x="1380" />

    
    <glyph glyph-name="btn-turndown" unicode="&#58908;" d="M262.678261-105.73913c-13.356522 0-22.26087 8.904348-22.26087 22.260869V450.782609C240.417391 646.678261 333.913043 873.73913 601.043478 873.73913c231.513043 0 360.626087-133.565217 360.626087-378.434782 0-13.356522-8.904348-22.26087-22.260869-22.26087s-17.808696 8.904348-17.808696 22.26087c0 222.608696-106.852174 333.913043-316.104348 333.913043-235.965217 0-320.556522-195.895652-320.556522-378.434782v-534.26087c0-13.356522-8.904348-22.26087-22.260869-22.260869zM258.226087-105.73913c-8.904348 0-13.356522 4.452174-17.808696 8.904347l-191.443478 267.130435c-8.904348 8.904348-4.452174 22.26087 4.452174 31.165218 8.904348 8.904348 22.26087 4.452174 31.165217-4.452174l173.634783-244.869566 191.443478 244.869566c8.904348 8.904348 22.26087 13.356522 31.165218 4.452174 8.904348-8.904348 13.356522-22.26087 4.452174-31.165218l-209.252174-267.130435c-4.452174-8.904348-8.904348-8.904348-17.808696-8.904347z"  horiz-adv-x="1024" />

    
    <glyph glyph-name="btn-addsubvisionsaddcategory" unicode="&#58909;" d="M701.046154-108.307692H106.338462c-19.692308 0-31.507692 3.938462-39.384616 7.876923-11.815385 3.938462-19.692308 11.815385-27.569231 23.630769-3.938462 11.815385-7.876923 19.692308-7.876923 39.384615V569.107692c0 19.692308 0 31.507692 7.876923 39.384616 7.876923 11.815385 15.753846 19.692308 27.569231 27.56923 11.815385 3.938462 19.692308 7.876923 39.384616 7.876924h594.707692c19.692308 0 31.507692-3.938462 39.384615-7.876924 11.815385-7.876923 19.692308-15.753846 23.630769-27.56923 3.938462-11.815385 7.876923-19.692308 7.876924-39.384616v-606.523077c0-19.692308 0-31.507692-7.876924-39.384615-3.938462-11.815385-11.815385-19.692308-23.630769-23.630769-7.876923-7.876923-19.692308-7.876923-39.384615-7.876923zM106.338462 600.615385c-15.753846 0-19.692308 0-19.692308-3.938462-3.938462 0-3.938462-3.938462-7.876923-7.876923 0-3.938462-3.938462-3.938462-3.938462-19.692308v-606.523077c0-15.753846 0-19.692308 3.938462-19.692307 0-3.938462 3.938462-3.938462 7.876923-7.876923 3.938462 0 3.938462-3.938462 19.692308-3.938462h594.707692c15.753846 0 19.692308 0 19.692308 3.938462 3.938462 0 3.938462 3.938462 7.876923 7.876923 0 3.938462 3.938462 3.938462 3.938461 19.692307V569.107692c0 15.753846 0 19.692308-3.938461 19.692308 0 3.938462-3.938462 3.938462-7.876923 7.876923-3.938462 0-3.938462 3.938462-19.692308 3.938462H106.338462zM937.353846 128H342.646154c-19.692308 0-31.507692 3.938462-39.384616 7.876923-11.815385 3.938462-19.692308 11.815385-27.56923 23.630769-3.938462 11.815385-7.876923 19.692308-7.876923 39.384616V805.415385c0 19.692308 0 31.507692 7.876923 39.384615 7.876923 11.815385 15.753846 19.692308 27.56923 27.569231 11.815385 3.938462 19.692308 7.876923 39.384616 7.876923h594.707692c19.692308 0 31.507692-3.938462 39.384616-7.876923 11.815385-7.876923 19.692308-15.753846 23.630769-27.569231 3.938462-11.815385 7.876923-19.692308 7.876923-39.384615v-606.523077c0-19.692308 0-31.507692-7.876923-39.384616-3.938462-11.815385-11.815385-19.692308-23.630769-23.630769-7.876923-7.876923-19.692308-7.876923-39.384616-7.876923zM342.646154 836.923077c-15.753846 0-19.692308 0-19.692308-3.938462-3.938462 0-3.938462-3.938462-7.876923-7.876923 0-3.938462-3.938462-3.938462-3.938461-19.692307v-606.523077c0-15.753846 0-19.692308 3.938461-19.692308 0-3.938462 3.938462-3.938462 7.876923-7.876923 3.938462 0 3.938462-3.938462 19.692308-3.938462h594.707692c15.753846 0 19.692308 0 19.692308 3.938462 3.938462 0 3.938462 3.938462 7.876923 7.876923 0 3.938462 3.938462 3.938462 3.938461 19.692308V805.415385c0 15.753846 0 19.692308-3.938461 19.692307 0 3.938462-3.938462 3.938462-7.876923 7.876923-3.938462 0-3.938462 3.938462-19.692308 3.938462H342.646154zM527.753846 242.215385c-11.815385 0-19.692308 7.876923-19.692308 19.692307v236.307693c0 11.815385 7.876923 19.692308 19.692308 19.692307s19.692308-7.876923 19.692308-19.692307v-240.246154c0-7.876923-7.876923-15.753846-19.692308-15.753846zM657.723077 360.369231h-256c-11.815385 0-19.692308 7.876923-19.692308 19.692307s7.876923 19.692308 19.692308 19.692308h256c11.815385 0 19.692308-7.876923 19.692308-19.692308s-7.876923-19.692308-19.692308-19.692307z"  horiz-adv-x="1024" />

    
    <glyph glyph-name="btn-move" unicode="&#58911;" d="M1041.066667 362.666667H64c-12.8 0-21.333333 8.533333-21.333333 21.333333s8.533333 21.333333 21.333333 21.333333h977.066667c12.8 0 21.333333-8.533333 21.333333-21.333333s-8.533333-21.333333-21.333333-21.333333zM533.333333-89.6c-12.8 0-21.333333 8.533333-21.333333 21.333333V836.266667c0 12.8 8.533333 21.333333 21.333333 21.333333s21.333333-8.533333 21.333334-21.333333v-904.533334c0-8.533333-8.533333-21.333333-21.333334-21.333333zM661.333333 712.533333c-4.266667 0-12.8 0-12.8 4.266667L533.333333 823.466667 418.133333 716.8c-8.533333-8.533333-21.333333-8.533333-29.866666 0-8.533333 8.533333-4.266667 21.333333 4.266666 29.866667l128 123.733333c8.533333 8.533333 21.333333 8.533333 29.866667 0l128-123.733333c8.533333-8.533333 8.533333-21.333333 0-29.866667-4.266667-4.266667-12.8-4.266667-17.066667-4.266667zM533.333333-106.666667c-4.266667 0-8.533333 0-12.8 4.266667l-128 123.733333c-8.533333 8.533333-8.533333 21.333333 0 29.866667 8.533333 8.533333 21.333333 8.533333 29.866667 0l115.2-106.666667 110.933333 106.666667c8.533333 8.533333 21.333333 8.533333 29.866667 0 8.533333-8.533333 8.533333-21.333333 0-29.866667l-128-123.733333c-4.266667-4.266667-8.533333-4.266667-17.066667-4.266667zM917.333333 260.266667c-4.266667 0-12.8 4.266667-17.066666 8.533333-8.533333 8.533333-4.266667 21.333333 4.266666 29.866667l106.666667 85.333333-106.666667 85.333333c-8.533333 8.533333-12.8 21.333333-4.266666 29.866667 8.533333 8.533333 21.333333 12.8 29.866666 4.266667l128-102.4c4.266667-4.266667 8.533333-8.533333 8.533334-17.066667s-4.266667-12.8-8.533334-17.066667l-128-102.4c-4.266667 0-8.533333-4.266667-12.8-4.266666zM149.333333 260.266667c-4.266667 0-8.533333 0-12.8 4.266666l-128 102.4c-4.266667 4.266667-8.533333 8.533333-8.533333 17.066667s4.266667 12.8 8.533333 17.066667l128 102.4c8.533333 8.533333 21.333333 4.266667 29.866667-4.266667 8.533333-8.533333 4.266667-21.333333-4.266667-29.866667L55.466667 384l106.666666-85.333333c8.533333-8.533333 8.533333-21.333333 4.266667-29.866667-4.266667-4.266667-12.8-8.533333-17.066667-8.533333z"  horiz-adv-x="1087" />

    
    <glyph glyph-name="btn-mofang" unicode="&#58891;" d="M603.32973 508.540541h35.978378v-581.18919h-35.978378zM633.772973 489.167568h-5.535135L49.816216 649.686486c-5.535135 0-11.07027 8.302703-11.07027 13.837838s2.767568 13.837838 11.07027 16.605406l354.248649 174.356756c2.767568 2.767568 8.302703 2.767568 11.07027 0l559.048649-130.075675c8.302703-2.767568 13.837838-8.302703 13.837838-13.837838 0-8.302703-2.767568-13.837838-8.302703-19.372973l-334.875676-202.032432c-2.767568 2.767568-8.302703 0-11.07027 0zM105.167568 671.827027l525.837837-143.913513L921.6 702.27027 412.367568 821.275676 105.167568 671.827027zM639.308108-92.021622c-2.767568 0-5.535135 0-8.302703 2.767568L47.048649 168.12973c-5.535135 2.767568-11.07027 8.302703-11.070271 16.605405V660.756757c0 5.535135 2.767568 11.07027 8.302703 13.837838 5.535135 2.767568 11.07027 2.767568 16.605405 2.767567l572.886487-149.448648 326.572973 188.194594c5.535135 2.767568 11.07027 2.767568 16.605405 0s8.302703-8.302703 8.302703-16.605405v-517.535135c0-5.535135-2.767568-11.07027-8.302703-13.837838l-329.34054-257.383784s-5.535135-2.767568-8.302703-2.767568zM71.956757 195.805405L636.540541-50.508108l315.502702 243.545946V671.827027l-307.2-177.124324c-2.767568-2.767568-8.302703-2.767568-13.837838-2.767568L71.956757 635.848649v-440.043244zM348.713514 65.72973h-33.210811V613.708108l340.410811 188.194595 16.605405-33.210811-323.805405-174.356757zM622.702703 217.945946h-5.535135L102.4 395.07027c-8.302703 2.767568-13.837838 13.837838-11.07027 22.140541 2.767568 8.302703 13.837838 13.837838 22.14054 11.07027l506.464865-174.356757L910.52973 425.513514c8.302703 5.535135 19.372973 2.767568 24.908108-5.535136 5.535135-8.302703 2.767568-19.372973-5.535135-24.908108l-298.897298-177.124324h-8.302702zM821.967568 65.72973h-38.745946V605.405405L243.545946 741.016216l11.07027 33.210811 567.351352-138.378378z"  horiz-adv-x="1024" />

    
    <glyph glyph-name="btn-product" unicode="&#58892;" d="M498.346667 486.4c-102.4 0-180.906667 51.2-228.693334 153.6-6.826667 10.24 0 23.893333 10.24 30.72 10.24 6.826667 23.893333 0 30.72-10.24 40.96-85.333333 105.813333-129.706667 191.146667-129.706667 85.333333 0 143.36 40.96 177.493333 126.293334 3.413333 10.24 17.066667 17.066667 27.306667 13.653333 10.24-3.413333 17.066667-17.066667 13.653333-27.306667-44.373333-102.4-119.466667-157.013333-221.866666-157.013333zM952.32-110.933333H88.746667c-51.2 0-88.746667 40.96-88.746667 92.16v13.653333L105.813333 807.253333C112.64 851.626667 150.186667 882.346667 197.973333 882.346667h590.506667c44.373333 0 78.506667-30.72 88.746667-71.68l163.84-812.373334c3.413333-23.893333 0-47.786667-13.653334-68.266666-13.653333-20.48-34.133333-34.133333-58.026666-37.546667-6.826667 0-13.653333-3.413333-17.066667-3.413333zM197.973333 837.973333c-23.893333 0-40.96-17.066667-44.373333-40.96L40.96-11.946667v-6.826666c0-23.893333 20.48-44.373333 47.786667-44.373334h873.813333c13.653333 3.413333 23.893333 10.24 30.72 20.48s10.24 23.893333 6.826667 34.133334L832.853333 803.84c-3.413333 20.48-23.893333 37.546667-44.373333 37.546667H197.973333zM709.973333 708.266667m-51.2 0a51.2 51.2 0 1 1 102.4 0 51.2 51.2 0 1 1-102.4 0ZM266.24 708.266667m-51.2 0a51.2 51.2 0 1 1 102.4 0 51.2 51.2 0 1 1-102.4 0Z"  horiz-adv-x="1042" />

    
    <glyph glyph-name="btn-shumou" unicode="&#58893;" d="M903.529412 106.917647c-12.047059 0-21.082353 9.035294-21.082353 21.082353v6.023529c0 9.035294 6.023529 18.070588 15.058823 18.070589 105.411765 21.082353 180.705882 111.435294 180.705883 213.835294 0 120.470588-102.4 216.847059-225.882353 216.847059-21.082353 0-42.164706-3.011765-60.235294-9.035295-9.035294-3.011765-21.082353 3.011765-24.094118 12.047059-39.152941 111.435294-141.552941 183.717647-259.011765 183.717647-150.588235 0-274.070588-126.494118-274.070588-280.094117v-15.058824c0-6.023529-3.011765-12.047059-6.023529-15.058823-3.011765-3.011765-9.035294-6.023529-15.058824-6.02353h-15.058823c-87.341176 0-159.623529-69.270588-159.62353-153.6s72.282353-153.6 159.62353-153.6H213.835294c6.023529 0 12.047059 0 15.058824-6.023529s6.023529-9.035294 6.023529-15.058824c0-12.047059-9.035294-21.082353-21.082353-21.082353h-15.058823c-108.423529 0-198.776471 87.341176-198.776471 192.752942 0 105.411765 87.341176 192.752941 195.764706 192.752941 3.011765 180.705882 144.564706 319.247059 316.235294 319.247059 126.494118 0 240.941176-78.305882 289.129412-195.764706 18.070588 3.011765 36.141176 6.023529 54.211764 6.023529 144.564706 0 265.035294-114.447059 265.035295-256 0-117.458824-84.329412-219.858824-198.776471-249.976471-6.023529 0-12.047059-6.023529-18.070588-6.023529zM608.376471 197.270588c-120.470588 0-246.964706 39.152941-246.964706 111.435294 0 72.282353 126.494118 108.423529 246.964706 108.42353s246.964706-39.152941 246.964705-108.42353c3.011765-72.282353-126.494118-111.435294-246.964705-111.435294z m0 180.705883c-126.494118 0-207.811765-42.164706-207.811765-72.282353s81.317647-69.270588 207.811765-69.270589 207.811765 42.164706 207.811764 69.270589c3.011765 33.129412-78.305882 72.282353-207.811764 72.282353zM608.376471 76.8c-123.482353 0-246.964706 36.141176-246.964706 102.4 0 12.047059 6.023529 30.117647 27.105882 51.2l24.094118-30.117647c-6.023529-6.023529-12.047059-12.047059-12.047059-18.070588 0-27.105882 81.317647-63.247059 207.811765-63.247059s207.811765 39.152941 207.811764 63.247059c0 9.035294-9.035294 18.070588-15.058823 21.082353l24.094117 30.117647c24.094118-18.070588 30.117647-39.152941 30.117647-51.2 3.011765-69.270588-123.482353-105.411765-246.964705-105.411765zM608.376471-13.552941c-123.482353 0-246.964706 36.141176-246.964706 102.4 0 12.047059 6.023529 30.117647 27.105882 51.2l24.094118-30.117647c-6.023529-6.023529-12.047059-12.047059-12.047059-18.070588 0-27.105882 81.317647-63.247059 207.811765-63.247059s207.811765 39.152941 207.811764 63.247059c0 9.035294-9.035294 18.070588-15.058823 21.082352l24.094117 30.117648c24.094118-18.070588 30.117647-39.152941 30.117647-51.2 3.011765-69.270588-123.482353-105.411765-246.964705-105.411765z"  horiz-adv-x="1120" />

    
    <glyph glyph-name="btn-setting" unicode="&#58894;" d="M580.358919-100.324324h-104.752433c-15.747459 0-21.254919-0.027676-74.945729 131.957621l-41.458162 16.716108c-112.999784-50.867892-126.367135-50.867892-130.850595-50.867891H219.744865l-7.389406 6.282378-74.226162 72.067459c-11.291676 11.180973-15.221622 15.083243 42.897298 145.324973l-16.909838 39.686919C27.675676 309.358703 27.675676 314.976865 27.675676 330.94573v101.874162c0 15.968865 0 21.033514 135.942919 73.174486l16.909837 39.769946c-61.44 128.276757-57.205622 132.262054-45.111351 143.581406L215.289081 767.031351l9.935568 0.304433c12.038919 0 56.762811-16.19027 133.036973-48.128l41.319783 16.660757C449.369946 868.352 455.458595 868.324324 471.150703 868.324324h104.724756c15.692108 0 21.227243 0 74.918055-132.012973l41.513513-16.605405c112.83373 50.757189 126.394811 50.757189 130.905946 50.757189h8.579459l7.36173-6.171676 74.253838-71.956756c11.291676-11.291676 15.138595-15.16627-42.952649-145.463352l16.96519-39.908324C1024 458.668973 1024 453.050811 1024 437.05427v-101.763459c0-15.581405 0-21.061189-136.136649-73.257514l-16.799135-39.825297c61.163243-127.723243 57.122595-131.736216 45.664865-143.16627l-80.453189-78.128433-9.963243-0.276756c-12.011243 0-56.624432 16.217946-132.760217 48.155675l-41.59654-16.633081C602.028973-100.324324 596.355459-100.324324 580.358919-100.324324z m-93.848216 42.067027h82.611892c9.465081 19.151568 29.945081 69.991784 46.356756 113.747027l3.321081 8.745513 75.194811 30.111135 8.081298-3.376432c44.834595-18.985514 97.805838-39.991351 118.451891-46.439784l58.063568 56.32c-7.389405 20.258595-29.723676 69.881081-49.899243 111.726703l-4.068325 8.524108 31.135136 73.700324 8.468756 3.238054c45.277405 17.297297 97.750486 38.635243 117.344865 48.377081v79.152433c-19.843459 9.216-72.095135 28.948757-117.123459 44.806919l-8.800865 3.127351-31.328865 73.755676 3.736216 8.302703c19.26227 43.174054 40.683243 94.069622 47.574487 114.577297l-58.201946 56.458378c-18.791784-6.531459-71.403243-28.893405-115.767352-48.985946l-8.247351-3.763892-75.222486 30.08346-3.348757 8.302703c-17.795459 44.004324-39.880649 95.065946-49.843892 113.968432h-82.556541c-9.520432-19.096216-29.945081-69.964108-46.301405-113.747027l-3.26573-8.634811-75.001081-30.249513-8.081297 3.431783c-44.945297 18.930162-98.027243 39.936-118.728649 46.384433L173.111351 667.011459c7.278703-20.230919 29.696-69.82573 49.788541-111.671351l4.123676-8.524108-31.273514-73.672649-8.441081-3.238054c-45.194378-17.269622-97.556757-38.579892-117.178811-48.294054v-79.235459c19.843459-9.271351 72.039784-29.059459 117.040433-44.972973l8.745513-3.155027L227.244973 220.713514l-3.736216-8.302703c-19.26227-43.091027-40.683243-93.931243-47.574487-114.383568l58.312649-56.624432c18.736432 6.559135 71.264865 28.921081 115.684324 49.041297l8.330379 3.763892 75.056432-30.249514 3.348757-8.302702c17.850811-44.059676 39.852973-95.010595 49.816216-113.913081z m39.299459 272.716108c-96.034595 0-174.218378 76.080432-174.218378 169.541189 0 93.433081 78.183784 169.430486 174.246054 169.430486 95.979243 0 173.996973-76.025081 173.996973-169.430486 0-93.460757-78.045405-169.541189-173.996973-169.541189z m0 296.876973c-72.676324 0-131.736216-57.122595-131.736216-127.308108 0-70.296216 59.059892-127.446486 131.736216-127.446487 72.593297 0 131.625514 57.177946 131.625514 127.418811 0 70.213189-59.032216 127.335784-131.597838 127.335784z"  horiz-adv-x="1024" />

    
    <glyph glyph-name="btn-finance" unicode="&#58895;" d="M512-64.345946c-246.313514 0-445.578378 199.264865-445.578378 448.345946S265.686486 829.578378 512 829.578378s448.345946-199.264865 448.345946-445.578378-202.032432-448.345946-448.345946-448.345946z m0 857.945946c-226.940541 0-412.367568-185.427027-412.367568-412.367568s185.427027-409.6 412.367568-409.6 409.6 185.427027 409.6 409.6S738.940541 793.6 512 793.6zM512 378.464865c-5.535135 0-8.302703 2.767568-13.837838 5.535135l-196.497297 196.497297c-8.302703 8.302703-8.302703 19.372973 0 24.908108s19.372973 8.302703 24.908108 0l182.659459-182.659459 182.65946 182.659459c8.302703 8.302703 19.372973 8.302703 24.908108 0s8.302703-19.372973 0-24.908108L525.837838 381.232432c-5.535135-2.767568-8.302703-2.767568-13.837838-2.767567zM708.497297 309.275676H315.502703c-11.07027 0-16.605405 8.302703-16.605406 19.372973s8.302703 16.605405 16.605406 16.605405h392.994594c11.07027 0 19.372973-8.302703 19.372973-16.605405s-8.302703-19.372973-19.372973-19.372973zM708.497297 212.410811H315.502703c-11.07027 0-16.605405 8.302703-16.605406 19.372973s8.302703 19.372973 16.605406 19.372973h392.994594c11.07027 0 19.372973-8.302703 19.372973-19.372973s-8.302703-19.372973-19.372973-19.372973zM512 54.659459c-11.07027 0-16.605405 8.302703-16.605405 19.372973V395.07027c0 11.07027 8.302703 16.605405 16.605405 16.605406s19.372973-8.302703 19.372973-16.605406v-321.037838c0-11.07027-8.302703-19.372973-19.372973-19.372973z"  horiz-adv-x="1024" />

    
    <glyph glyph-name="View" unicode="&#59018;" d="M956.631728 383.9028544c0 5.33974827-0.90269227 9.8062752-1.15920107 10.33784853-0.19429227 2.64586027-1.09698453 7.46822507-1.936368 9.9994752-0.2248544 0.6298112-0.51629227 1.29018453-0.77280106 1.91999574-0.45298347 1.45173013-0.93543787 2.87071467-1.48338454 3.9993536-81.99657067 179.34655467-258.5346272 299.88711253-439.23467413 299.88711253-180.66730133 0-357.1900768-120.4292224-438.81443733-298.80541013-0.9834656-1.936368-1.6776768-3.79087147-2.11319574-5.40414827-0.1932-0.53157333-0.41914667-1.03149227-0.59597333-1.49975787-1.6132768-4.7263104-1.64493013-8.01507947-1.51613013-7.16041493-0.75752-3.46778027-1.45173013-10.37059413-1.45173014-10.37059413-0.1932-2.07935787-0.1932-3.74066133 0.0327456-5.8058304 0 0 0.69311893-6.031776 1.03258454-7.25646934 0.0960544-1.7093312 0.51520107-4.1936448 1.01512-6.45201386l-0.0327456 0c0.43551893-1.9352768 1.03258453-3.8061536 1.85450346-5.64428374 0.42023787-1.41898453 0.9201568-2.74191467 1.35567574-3.7417536 82.10790613-179.3771168 258.5990272-299.95042133 439.23358293-299.95042133 180.7327936 0 357.27085013 120.47506667 438.33198187 297.95074453 1.25634667 2.32276907 2.0640768 4.51564587 2.61202346 6.41926827 0.2576 0.57960107 0.48463787 1.09589227 0.64509227 1.61218453 1.42007573 4.13033707 1.7093312 7.7094528 1.58053013 7.7094528l-0.0305632-0.0316544C955.76287253 374.48407147 956.631728 378.77377067 956.631728 383.9028544zM896.7658592 381.7099776c-0.0316544-0.1298912-0.0971456-0.2903456-0.1615456-0.42023787-0.0960544-0.3864-0.2565088-0.83829227-0.35474667-1.29018453-72.96418773-157.2485984-227.0189792-262.7599264-384.2042688-262.7599264-156.79779733 0-310.57970773 105.21879893-384.26976106 263.0175264-0.17791893 0.54794667-0.30671893 1.06533013-0.49991894 1.58053013-0.0327456 0.51629227-0.1288 0.93543787-0.1604544 1.22687574-0.0644 0.3209088-0.1288 0.77280107-0.17791893 1.16138453l0 0.40277333c0.17791893 0.6614656 0.30562773 1.32183893 0.37111893 2.04770347 0.1288 0.3864 0.2259456 0.75752 0.37111894 1.1766656C200.6742336 545.183552 354.85891733 650.7429077300001 512.04420693 650.7429077300001c157.2485984 0 311.40271893-105.65541013 384.1726144-262.74355413 0.0644-0.30671893 0.1298912-0.5654112 0.22703787-0.77498347 0.0644-0.2576 0.1277088-0.51629227 0.2565088-0.7902656 0.1615456-1.1777568 0.2903456-2.33914133 0.45189227-2.9187424C896.9590592 382.90301547 896.8630048 382.3223232 896.7658592 381.7099776zM512.04420693 532.2020256000001c-81.7051328 0-148.21839893-66.48051947-148.21839893-148.2020256 0-81.7051328 66.51326613-148.21839893 148.21839893-148.21839893 81.7051328 0 148.21839893 66.51326613 148.21839894 148.21839893C660.26260587 465.72150613 593.74933973 532.2020256000001 512.04420693 532.2020256000001zM512.04420693 295.06896107c-48.99753813 0-88.92994773 39.9007552-88.92994773 88.92994773 0 49.01391147 39.9324096 88.9135744 88.92994773 88.9135744 49.02919253 0 88.9321312-39.9007552 88.9321312-88.9135744C600.97524587 334.96971627000005 561.07339947 295.06896107 512.04420693 295.06896107z"  horiz-adv-x="1024" />

    
    <glyph glyph-name="Details" unicode="&#58939;" d="M790.88 576.144L233.12 576.144c-13.728 0-24.816 11.136-24.816 24.816 0 13.728 11.136 24.816 24.816 24.816L790.88 625.7760000000001c13.728 0 24.816-11.136 24.816-24.816C815.696 587.28 804.56 576.144 790.88 576.144L790.88 576.144zM790.88 576.144M472.496 151.29600000000005L472.496 151.29600000000005l-239.328 0c-13.728 0-24.816 11.136-24.816 24.816 0 13.728 11.136 24.816 24.816 24.816l0 0 239.328 0c13.728 0 24.816-11.136 24.816-24.816C497.312 162.43200000000002 486.176 151.29600000000005 472.496 151.29600000000005L472.496 151.29600000000005zM472.496 151.29600000000005M790.88 363.744L233.12 363.744c-13.728 0-24.816 11.136-24.816 24.816 0 13.728 11.136 24.816 24.816 24.816L790.88 413.376c13.728 0 24.816-11.136 24.816-24.816C815.696 374.832 804.56 363.744 790.88 363.744L790.88 363.744zM790.88 363.744M734.336-80.832l-49.776 0c-13.728 0-24.816 11.136-24.816 24.816s11.136 24.816 24.816 24.816l49.584 0c0.864 0.096 12.576 2.016 43.824 25.824 21.6 16.512 47.472 39.648 72.72 65.184 24.864 25.104 47.904 51.168 64.8 73.344 23.376 30.672 26.496 42.624 26.784 44.112L942.272 651.84c0 81.216-66.096 147.312-147.312 147.312L228.944 799.152c-81.216 0-147.312-66.096-147.312-147.312l0-535.68c0-81.264 66.096-147.312 147.312-147.312L470.24-31.152000000000044c13.728 0 24.816-11.136 24.816-24.816s-11.136-24.816-24.816-24.816L228.944-80.78399999999999C120.368-80.832 32 7.5359999999999445 32 116.15999999999997L32 651.84c0 108.624 88.368 196.944 196.944 196.944l566.064 0C903.632 848.832 992 760.4639999999999 992 651.84l0-475.008c0-11.328-3.888-29.568-34.272-70.128-18.144-24.288-43.2-52.896-70.464-80.496-27.744-28.128-56.304-53.664-80.352-71.904C765.392-77.18399999999997 745.616-80.832 734.336-80.832L734.336-80.832zM734.336-80.832M680.912-75.69600000000003c-13.728 0-24.816 11.136-24.816 24.816l0 124.944c0 97.344 79.2 176.544 176.544 176.544l109.776 0c13.728 0 24.816-11.136 24.816-24.816 0-13.728-11.136-24.816-24.816-24.816L832.64 200.976c-69.984 0-126.912-56.928-126.912-126.912l0-124.944C705.776-64.55999999999995 694.64-75.69600000000003 680.912-75.69600000000003L680.912-75.69600000000003zM680.912-75.69600000000003"  horiz-adv-x="1024" />

    
    <glyph glyph-name="Delete" unicode="&#59125;" d="M650.66666667 785.49333333H373.33333333v53.33333334h277.33333334v-53.33333334z m320-56v-53.33333333H848v-746.98666667H176V676.16H53.33333333v53.33333333h917.33333334z m-176-53.33333333H229.33333333v-693.65333333h565.33333334V676.16z m-401.17333334-155.73333333h-53.33333333v-309.33333334h53.33333333v309.33333334z m150.50666667 0h-53.33333333v-309.33333334h53.33333333v309.33333334z m139.84 0h-53.33333333v-309.33333334h53.33333333v309.33333334z"  horiz-adv-x="1024" />

    
    <glyph glyph-name="OffShelves" unicode="&#59268;" d="M948.47704178 823.25155081H63.34418489c-20.60864475 0-37.32396563-16.46652682-37.32396564-36.74385066v-214.30272c0-20.31980089 16.72502992-36.7450643 37.32396564-36.7450643s37.32396563 16.42526341 37.32396563 36.7450643V749.76384948h810.48492563v-177.55886933c0-20.31980089 16.72502992-36.7450643 37.32396563-36.7450643s37.32396563 16.42526341 37.32396563 36.7450643v214.30272c0 20.31858725-16.72502992 36.74385067-37.32396563 36.74385066zM666.91011318 230.45658547999994L544.97431703 84.93996562999996V608.866304c0 20.31858725-16.72502992 36.82637748-37.32396562 36.82637748-20.60864475 0-37.32396563-16.49686755-37.32396563-36.82637748v-525.3244397L347.22065067 230.45658547999994c-14.63273245 14.50894222-38.37011437 14.50894222-53.00284682 0-14.63394608-14.44704711-14.63394608-37.9247123 0-52.40331378l184.46563556-220.1439194c7.798784-7.71504355 18.14376297-11.02946608 28.36616534-10.46998282 10.23211141-0.54856059 20.5989357 2.75493925 28.40742873 10.46998282l184.46684919 220.1439194c14.63273245 14.47860148 14.63273245 37.96718933 0 52.40452741-14.64365511 14.51865125-38.38103703 14.51865125-53.01376949 0z"  horiz-adv-x="1024" />

    
    <glyph glyph-name="OnShelves" unicode="&#59266;" d="M75.52295822-55.251550810000026L960.65581511-55.251550810000026c20.60864474 0 37.32396563 16.46652682 37.32396564 36.74385066l0 214.30272c0 20.31980089-16.72502992 36.7450643-37.32396564 36.7450643s-37.32396563-16.42526341-37.32396563-36.7450643L923.33184949 18.236150520000024l-810.48492564 0 0 177.55886933c0 20.31980089-16.72502992 36.7450643-37.32396563 36.7450643s-37.32396563-16.42526341-37.32396563-36.7450643l0-214.30272c0-20.31858725 16.72502992-36.74385067 37.32396563-36.74385066zM357.08988682 537.5434145199999L479.02568297 683.06003437 479.02568297 159.133696c0-20.31858725 16.72502992-36.82637748 37.32396562-36.82637749 20.60864474 0 37.32396563 16.49686755 37.32396563 36.82637749l0 525.3244397L676.77934933 537.54341451c14.63273245-14.50894222 38.37011437-14.50894222 53.00284682 0 14.63394608 14.44704711 14.63394608 37.9247123 0 52.40331378l-184.46563556 220.14391941c-7.798784 7.71504355-18.14376297 11.02946608-28.36616534 10.46998282-10.23211141 0.54856059-20.59893569-2.75493925-28.40742873-10.46998282l-184.46684919-220.1439194c-14.63273245-14.47860148-14.63273245-37.96718933 0-52.40452741 14.64365511-14.51865125 38.38103703-14.51865125 53.01376949 0z"  horiz-adv-x="1024" />

    
    <glyph glyph-name="Edit" unicode="&#58898;" d="M899.51144244 504.18838525c-18.85308003 0-35.34952507-16.49644503-35.34952507-35.34952508v-400.62795079c0-25.92298506-21.20971504-49.48933509-49.48933511-49.48933511H183.09440102c-25.92298506 0-49.48933509 21.20971504-49.4893351 49.48933511V699.78909062c0 25.92298506 21.20971504 49.48933509 49.4893351 49.48933511h400.62795079c18.85308003 0 35.34952507 16.49644503 35.34952509 35.34952505s-16.49644503 35.34952507-35.34952509 35.34952508h-400.62795079c-65.98578013 0-120.18838525-54.2026051-120.18838524-120.18838524v-631.57818124c0-65.98578013 54.2026051-120.18838525 120.18838524-120.18838524h631.57818124c65.98578013 0 120.18838525 54.2026051 120.18838524 120.18838524v400.62795079c0 18.85308003-16.49644503 35.34952507-35.34952506 35.34952508zM949.00077754 810.55093586c-14.13981003 14.13981003-35.34952507 14.13981003-49.4893351 0l-471.32700092-471.32700096c-14.13981003-14.13981003-14.13981003-35.34952507 0-49.48933509 7.06990501-7.06990501 16.49644503-9.42654002 25.92298502-9.42654s18.85308003 2.35663501 25.92298507 9.42654l471.32700093 471.32700094c9.42654002 11.78317502 9.42654002 35.34952507-2.356635 49.48933511z"  horiz-adv-x="1024" />

    
    <glyph glyph-name="Product" unicode="&#59271;" d="M982.486486 627.545946l-96.864864 193.72973c-2.767568 5.535135-8.302703 8.302703-13.837838 8.302702H166.054054c-5.535135 0-11.07027-2.767568-13.837838-8.302702l-110.702702-193.72973c0-2.767568-2.767568-5.535135-2.767568-8.302703v-608.864865c0-24.908108 19.372973-44.281081 44.281081-44.281081h857.945946c24.908108 0 44.281081 19.372973 44.281081 44.281081V619.243243c0 2.767568 0 5.535135-2.767568 8.302703zM940.972973 635.848649H528.605405V796.367568h334.875676L940.972973 635.848649zM174.356757 796.367568h321.037838v-160.518919H83.027027l91.32973 160.518919zM952.043243 10.378377999999998c0-5.535135-5.535135-11.07027-11.07027-11.07027H83.027027c-5.535135 0-11.07027 5.535135-11.07027 11.07027V602.637838h880.086486V10.378377999999998z"  horiz-adv-x="1024" />

    
    <glyph glyph-name="Consumer" unicode="&#59267;" d="M674.75862031 419.86206937c-8.27586188 5.51724094-19.31034469 0-22.06896468-5.51724187-5.51724094-8.27586188 0-19.31034469 5.51724093-22.06896563 88.2758625-46.89655219 234.48275906-160.00000031 240-388.96551749-113.10344812-44.13793125-234.48275906-66.20689687-355.86206906-66.20689594s-242.75862094 22.06896563-355.86206906 66.20689594c5.51724094 234.48275906 193.10344781 441.37931063 342.06896531 441.37931062 115.86206906 0 209.6551725 93.79310344 209.6551725 209.6551725S644.41379281 864 528.55172375 864 318.89655219 770.20689656 318.89655219 654.3448275000001c0-85.51724156 52.41379312-160.00000031 126.89655094-193.10344781C283.03448281 400.55172375 153.37931 177.10344843999997 153.37931-7.7241374999999834v-5.51724188c0-2.75862094 2.75862094-5.51724094 5.51724188-5.51724093 0 0 2.75862094-2.75862094 5.51724093-2.75862094 121.37931-49.65517219 248.27586188-74.48275875 377.93103469-74.48275875 129.65517281 0 256.55172375 24.82758656 377.93103469 74.48275875 5.51724094 2.75862094 11.03448281 8.27586188 11.03448281 16.55172375 0 182.06896594-93.79310344 336.55172437-256.55172469 424.82758687zM351.99999969 654.3448275000001c0 96.55172438 79.99999969 176.55172406 176.55172406 176.55172406 96.55172438 0 176.55172406-79.99999969 176.55172406-176.55172406s-79.99999969-176.55172406-176.55172406-176.55172406c-96.55172438 0-176.55172406 79.99999969-176.55172406 176.55172406z"  horiz-adv-x="1088" />

    
    <glyph glyph-name="Home" unicode="&#58889;" d="M1041.989189 378.46486500000003c-5.535135 0-8.302703 2.767568-11.07027 5.535135L529.989189 843.416216 29.059459 384c-8.302703-5.535135-19.372973-5.535135-24.908108 0-5.535135 8.302703-5.535135 19.372973 0 24.908108L516.151351 879.394595c5.535135 5.535135 16.605405 5.535135 24.908108 0l512-470.486487c8.302703-5.535135 8.302703-19.372973 0-24.908108 0-2.767568-5.535135-5.535135-11.07027-5.535135zM848.259459-64.34594600000003h-196.497297c-11.07027 0-19.372973 8.302703-19.372973 19.372973V325.881081c0 5.535135-5.535135 8.302703-8.302703 8.302703h-177.124324c-5.535135 0-11.07027-5.535135-11.07027-8.302703V-44.972973000000025c0-11.07027-8.302703-19.372973-16.605406-19.372973H211.718919c-24.908108 0-44.281081 19.372973-44.281081 47.048649V425.513514c0 11.07027 8.302703 16.605405 16.605405 16.605405s16.605405-8.302703 16.605406-16.605405v-442.810811c0-5.535135 5.535135-8.302703 11.07027-8.302703h190.962162V325.881081c0 24.908108 19.372973 44.281081 44.281081 44.281081h177.124324c24.908108 0 47.048649-19.372973 47.048649-44.281081v-351.481081H848.259459c5.535135 0 8.302703 5.535135 8.302703 8.302703V425.513514c0 11.07027 8.302703 16.605405 19.372973 16.605405s19.372973-8.302703 19.372973-16.605405v-442.810811c0-24.908108-22.140541-47.048649-47.048649-47.048649z"  horiz-adv-x="1059" />

    
    <glyph glyph-name="Order" unicode="&#58890;" d="M927.497382 815.581152h-171.560209V879.91623c0 8.041885-8.041885 16.08377-16.08377 16.08377H284.146597c-8.041885 0-16.08377-8.041885-16.08377-16.08377v-64.335078H96.502618c-8.041885 0-16.08377-8.041885-16.08377-16.08377v-911.413612c0-8.041885 8.041885-16.08377 16.08377-16.08377h830.994764c8.041885 0 16.08377 8.041885 16.08377 16.08377V799.497382c0 8.041885-8.041885 16.08377-16.08377 16.08377zM300.230366 863.832461h423.539268v-101.863875H300.230366V863.832461z m611.183247-959.664922H112.586387V783.4136129999999h155.47644V745.884817c0-8.041885 8.041885-16.08377 16.08377-16.08377h455.706806c8.041885 0 16.08377 8.041885 16.08377 16.08377V783.4136129999999h155.47644v-879.246074zM230.534031 614.534031c-8.041885 0-16.08377-8.041885-16.083769-16.083769s8.041885-16.08377 16.083769-16.08377h554.890053c8.041885 0 16.08377 8.041885 16.083769 16.08377s-8.041885 16.08377-16.083769 16.083769H230.534031zM785.424084 480.502618H230.534031c-8.041885 0-16.08377-8.041885-16.083769-16.08377s8.041885-16.08377 16.083769-16.083769h554.890053c8.041885 0 16.08377 8.041885 16.083769 16.083769s-5.361257 16.08377-16.083769 16.08377zM785.424084 346.47120399999994H230.534031c-8.041885 0-16.08377-8.041885-16.083769-16.083769s8.041885-16.08377 16.083769-16.08377h554.890053c8.041885 0 16.08377 8.041885 16.083769 16.08377s-5.361257 16.08377-16.083769 16.083769zM619.225131 212.439791H230.534031c-8.041885 0-16.08377-8.041885-16.083769-16.08377s8.041885-16.08377 16.083769-16.08377h388.6911c8.041885 0 16.08377 8.041885 16.08377 16.08377s-8.041885 16.08377-16.08377 16.08377z"  horiz-adv-x="1024" />

    
    <glyph glyph-name="Application" unicode="&#59269;" d="M447.146667 429.948718H20.48c-9.846154 0-19.692308 9.846154-19.692308 19.692308V876.307692c0 9.846154 9.846154 19.692308 19.692308 19.692308h426.666667c9.846154 0 19.692308-9.846154 19.692307-19.692308v-426.666666c0-9.846154-9.846154-19.692308-19.692307-19.692308zM40.172308 469.333333h387.282051V856.6153850000001H40.172308v-387.282052zM447.146667-128H20.48c-9.846154 0-19.692308 9.846154-19.692308 19.692308V318.358974c0 9.846154 9.846154 19.692308 19.692308 19.692308h426.666667c9.846154 0 19.692308-9.846154 19.692307-19.692308v-426.666666c0-9.846154-9.846154-19.692308-19.692307-19.692308zM40.172308-88.61538499999995h387.282051V298.66666699999996H40.172308v-387.282052zM1005.095385-128H578.428718c-9.846154 0-19.692308 9.846154-19.692308 19.692308V318.358974c0 9.846154 9.846154 19.692308 19.692308 19.692308h426.666667c9.846154 0 19.692308-9.846154 19.692307-19.692308v-426.666666c0-9.846154-9.846154-19.692308-19.692307-19.692308z m-406.974359 39.384615h387.282051V298.66666699999996H598.121026v-387.282052zM791.762051 429.948718c-128 0-233.025641 105.025641-233.025641 233.025641s105.025641 233.025641 233.025641 233.025641 233.025641-105.025641 233.025641-233.025641-105.025641-233.025641-233.025641-233.025641z m0 426.666667c-108.307692 0-193.641026-85.333333-193.641025-193.641026s85.333333-193.641026 193.641025-193.641026 193.641026 85.333333 193.641026 193.641026S900.069744 856.6153850000001 791.762051 856.6153850000001z"  horiz-adv-x="1064" />

    
    <glyph glyph-name="Prescriber" unicode="&#59270;" d="M1004.43630875 426.70916344L532.72316187 860.17529906c-5.09960156 5.09960156-15.29880469 5.09960156-22.94820749 0l-471.71314782-433.46613562c-7.64940281-5.09960156-7.64940281-17.84860594 0-22.9482075 5.09960156-7.64940281 17.84860594-7.64940281 22.9482075 0L522.52395781 824.47808719l461.51394469-423.26693156c2.54980125-2.54980125 7.64940281-5.09960156 10.19920312-5.09960157 5.09960156 0 10.19920312 2.54980125 12.74900438 5.09960156 5.09960156 7.64940281 5.09960156 17.84860594-2.54980125 25.49800782zM841.24905781 454.7569725c-7.64940281 0-15.29880469-7.64940281-15.29880468-15.29880563v-423.26693156H219.09766344V439.45816687c0 7.64940281-7.64940281 15.29880469-15.29880469 15.29880563s-15.29880469-7.64940281-15.29880469-15.29880563v-438.56573624c0-7.64940281 7.64940281-15.29880469 15.29880469-15.29880469h637.45019906c7.64940281 0 15.29880469 7.64940281 15.29880469 15.29880468V439.45816687c0 7.64940281-7.64940281 15.29880469-15.29880469 15.29880563zM634.71519313 299.21912344h-89.24302782V388.46215125c0 7.64940281-5.09960156 12.74900438-12.74900343 12.74900438s-12.74900438-5.09960156-12.74900438-12.74900438v-89.24302781H433.28093c-7.64940281 0-12.74900438-5.09960156-12.74900344-12.74900438s5.09960156-12.74900438 12.74900344-12.74900344h89.24302781V184.47808781000003c0-7.64940281 5.09960156-12.74900438 12.74900438-12.74900437s12.74900438 5.09960156 12.74900437 12.74900437v89.24302782H637.26499438c7.64940281 0 12.74900438 5.09960156 12.74900343 12.74900343s-7.64940281 12.74900438-15.29880469 12.74900438zM713.75901781 95.23505999999998c7.64940281 0 12.74900438 5.09960156 12.74900438 12.74900344V464.95617563c0 7.64940281-5.09960156 12.74900438-12.74900438 12.74900343H356.78690656c-7.64940281 0-12.74900438-5.09960156-12.74900437-12.74900344v-356.97211218c0-7.64940281 5.09960156-12.74900438 12.74900437-12.74900344h356.97211125z m-344.22310781 356.97211125h331.47410438v-331.47410344h-331.47410438v331.47410344z"  horiz-adv-x="1061" />

    
    <glyph glyph-name="Data" unicode="&#59209;" d="M974.933333 398.933333l-128 128C842.666667 531.2 838.4 533.333333 832 533.333333c-12.8 0-21.333333-8.533333-21.333333-21.333333 0-6.4 2.133333-10.666667 6.4-14.933333l91.733333-91.733333L392.533333 405.333333 682.666667 695.466667 682.666667 576c0-12.8 8.533333-21.333333 21.333333-21.333333 12.8 0 21.333333 8.533333 21.333333 21.333333L725.333333 746.666667c0 12.8-8.533333 21.333333-21.333333 21.333333l-170.666667 0c-12.8 0-21.333333-8.533333-21.333333-21.333333 0-12.8 8.533333-21.333333 21.333333-21.333333l119.466667 0-320-320L211.2 405.333333c-8.533333 36.266667-42.666667 64-83.2 64-46.933333 0-85.333333-38.4-85.333333-85.333333s38.4-85.333333 85.333333-85.333333c40.533333 0 72.533333 27.733333 83.2 64l121.6 0 320-320L533.333333 42.66666699999996c-12.8 0-21.333333-8.533333-21.333333-21.333333 0-12.8 8.533333-21.333333 21.333333-21.333333l170.666667 0c12.8 0 21.333333 8.533333 21.333333 21.333333l0 170.666667c0 12.8-8.533333 21.333333-21.333333 21.333333-12.8 0-21.333333-8.533333-21.333333-21.333333l0-119.466667L392.533333 362.66666699999996l516.266667 0-91.733333-91.733333C812.8 266.66666699999996 810.666667 262.4 810.666667 256c0-12.8 8.533333-21.333333 21.333333-21.333333 6.4 0 10.666667 2.133333 14.933333 6.4l128 128c4.266667 4.266667 6.4 8.533333 6.4 14.933333C981.333333 390.4 979.2 394.666667 974.933333 398.933333zM128 341.33333300000004c-23.466667 0-42.666667 19.2-42.666667 42.666667s19.2 42.666667 42.666667 42.666667c23.466667 0 42.666667-19.2 42.666667-42.666667S151.466667 341.33333300000004 128 341.33333300000004z"  horiz-adv-x="1024" />

    
    <glyph glyph-name="Finance" unicode="&#58917;" d="M954.112 552.1305600000001V85.27359999999999c0-21.78048 0.7168-42.8544-8.33536-63.47776-26.60352-60.61056-85.8624-58.8032-140.66176-58.8032H195.43552c-64.10752 0-108.5952 43.20256-108.5952 107.72992V478.11584 669.40928c0 11.93984-0.13312 23.8848 0.19968 35.81952 1.43872 51.62496 49.46944 91.86304 99.24096 91.86304H796.89728c55.22432 0 97.64864-44.78976 99.15904-98.93376 0.9216-32.9472 52.1216-33.03936 51.2 0-2.5344 90.91584-74.47552 150.13376-162.16576 150.13376H197.80608c-87.68512 0-159.62624-59.21792-162.16064-150.13376-1.03936-37.31456 0-74.80832 0-112.13312v-459.23328c0-51.58912-4.37248-102.33856 25.22624-148.10112 27.01824-41.75872 75.98592-66.89792 125.3632-66.89792h651.46368c19.84512 0 38.96832 0.68608 58.48064 5.66272 54.59456 13.94688 95.78496 62.60224 106.48064 116.7872 9.14432 46.35648 2.65728 99.03104 2.65728 145.79712V425.04704 552.13568c-0.00512 33.01376-51.20512 33.01376-51.20512-0.00512zM279.04 654.46912h576.07168c55.15776 0 97.48992-44.91776 98.9952-98.92864 0.9216-32.9472 52.1216-33.03424 51.2 0-2.55488 91.50464-74.99776 150.12864-162.944 150.12864H279.03488c-33.01376 0-33.01376-51.2 0.00512-51.2zM353.18784 509.24544a641855.6928 641855.6928 0 0 1 156.24192-156.19072c9.86112-9.86624 26.3424-9.86624 36.1984 0 52.224 52.18304 104.448 104.40192 156.672 156.61568 23.36768 23.36256-12.83584 59.5712-36.1984 36.20352l-156.672-156.65152h36.1984L389.39136 545.4489599999999c-23.36768 23.36768-59.5712-12.84096-36.20352-36.20352zM309.67296 265.74336000000005h430.09024c33.01376 0 33.01376 51.2 0 51.2H309.67296c-33.01376 0-33.01376-51.2 0-51.2zM309.67296 134.22591999999997h430.09024c33.01376 0 33.01376 51.2 0 51.2H309.67296c-33.01376 0-33.01376-51.2 0-51.2zM503.18848 372.39296v-308.1984c0-33.01376 51.2-33.01376 51.2 0v308.1984c0 33.01888-51.2 33.01888-51.2 0z"  horiz-adv-x="1024" />

    
    <glyph glyph-name="Setting" unicode="&#59265;" d="M962.92864 293.8112c-9.09824-48.42496-43.42272-80.96256-85.41696-80.96256h-4.8128a54.66624 54.66624 0 0 1-54.0672-55.08096 49.7408 49.7408 0 0 1 2.4576-12.96896q1.08544-3.69664 2.50368-7.2704a100.53632 100.53632 0 0 0-34.78528-122.7776l-3.072-1.9968c-0.54784-0.3584-1.11616-0.70144-1.6896-1.024l-104.14592-58.368a28.672 28.672 0 0 0-2.56-1.2288l-1.024-0.512a100.65408 100.65408 0 0 0-40.61696-8.35072 105.01632 105.01632 0 0 0-75.81184 31.7696 141.89056 141.89056 0 0 1-33.75616 25.72288 26.39872 26.39872 0 0 1-12.288 3.072 23.38304 23.38304 0 0 1-12.17024-3.33312 145.88928 145.88928 0 0 1-33.76128-26.112 104.73984 104.73984 0 0 0-76.31872-32.3328 99.79392 99.79392 0 0 0-39.89504 8.09984l-0.87552 0.35328-3.22048 1.536q-0.88064 0.43008-1.7408 0.9216l-107.8272 59.95008a28.38016 28.38016 0 0 0-2.56 1.64352l-1.024 0.7168a100.52096 100.52096 0 0 0-34.01728 122.46016q1.3312 3.456 2.35008 7.01952a50.04288 50.04288 0 0 1 2.5088 13.02016 54.66624 54.66624 0 0 1-54.04672 55.05536h-4.34688c-42.30656 0-76.8 32.5376-85.888 80.96256a531.18464 531.18464 0 0 0-9.41056 90.50112 520.84736 520.84736 0 0 0 9.46176 90.54208c9.05728 48.41984 43.58144 80.96256 85.98528 80.96256h4.1984A54.66112 54.66112 0 0 1 205.312 610.88256a80.73216 80.73216 0 0 1-4.96128 20.23936 100.6336 100.6336 0 0 0 33.86368 122.15808l0.81408 0.5632 2.9696 1.95072c0.56832 0.3584 1.14688 0.70144 1.7408 1.024l102.16448 57.64608a30.6688 30.6688 0 0 0 2.50368 1.23392l1.024 0.512a99.584 99.584 0 0 0 40.70912 8.46336 103.7568 103.7568 0 0 0 76.88192-33.31072 150.1184 150.1184 0 0 1 35.80416-28.07808 23.35232 23.35232 0 0 1 21.73952-0.1536 148.08064 148.08064 0 0 1 36.46976 28.99968 103.69536 103.69536 0 0 0 77.34272 33.82272 99.6352 99.6352 0 0 0 40.00256-8.192l0.9216-0.41472 3.11808-1.47968q0.86016-0.4352 1.6896-0.92672l105.88672-59.28448a28.55936 28.55936 0 0 0 2.45248-1.536l1.024-0.7168a100.67968 100.67968 0 0 0 34.01728-122.46016c0-0.0512-1.1264-2.82112-2.3552-7.01952a49.92 49.92 0 0 1-2.50368-13.02016 54.67648 54.67648 0 0 1 54.0672-55.08096h4.24448c42.35776 0 76.88704-32.54272 85.9392-80.96256a525.312 525.312 0 0 0 9.46176-90.48576v-0.05632a534.3744 534.3744 0 0 0-9.41568-90.50624z m-49.46432 173.92128c-2.96448 15.83104-12.63616 34.35008-30.00832 34.35008h-4.27008a113.96096 113.96096 0 0 0-113.44384 114.176 106.22464 106.22464 0 0 0 4.9408 29.696 133.4016 133.4016 0 0 0 4.94592 14.12096 43.87328 43.87328 0 0 1-14.15168 52.40832l-0.26112 0.1536-0.2048 0.1536-106.74176 59.33568-0.2048 0.1536-0.26112 0.10752a47.77984 47.77984 0 0 1-52.0192-11.72992c-16.69632-18.36544-57.2672-53.13536-91.5456-53.13536-13.824 0-31.05792 6.22592-49.664 18.00704a213.08928 213.08928 0 0 0-41.20576 34.11968 47.77984 47.77984 0 0 1-52.1728 11.3152l-0.256-0.1024-0.20992-0.1536-102.99392-57.94304-0.20992-0.10752-0.26112-0.2048a43.99616 43.99616 0 0 1-14.10048-52.40832 142.47424 142.47424 0 0 0 4.9408-14.12096 105.6256 105.6256 0 0 0 4.9408-29.696 113.98656 113.98656 0 0 0-113.50016-114.176h-4.34688c-17.26976-0.1024-26.89024-18.57536-29.85472-34.35008a466.432 466.432 0 0 1-8.58624-80.896 466.8672 466.8672 0 0 1 8.58624-80.95232c2.96448-15.82592 12.58496-34.35008 29.90592-34.35008h4.352a113.96096 113.96096 0 0 0 113.44896-114.176 105.3952 105.3952 0 0 0-4.9408-29.696 117.02784 117.02784 0 0 0-4.9408-14.11072 43.84256 43.84256 0 0 1 14.20288-52.41344l0.26112-0.1536 0.26112-0.15872 108.544-60.0832 0.256-0.10752 0.31232-0.1024a48.71168 48.71168 0 0 1 52.0192 11.15648c16.384 17.3312 56.22784 50.0224 89.46688 50.0224 32.97792 0 72.61696-32.06656 88.94464-49.03936a48.7936 48.7936 0 0 1 52.17792-10.79296l0.20992 0.1024 0.256 0.15872 104.86272 58.68544 0.26112 0.15872 0.20992 0.1536a43.93984 43.93984 0 0 1 14.14656 52.41344 142.18752 142.18752 0 0 0-4.992 14.11072 107.33056 107.33056 0 0 0-4.8896 29.696 113.98144 113.98144 0 0 0 113.49504 114.176h4.7872c10.61376 0 24.65792 8.97536 29.44512 34.35008h0.04608a478.67392 478.67392 0 0 1 8.58624 80.896 466.65216 466.65216 0 0 1-8.576 80.98304z m-203.8784-142.848a23.95136 23.95136 0 0 0-1.024-8.75008 189.58336 189.58336 0 0 0-73.07264-95.38048 185.856 185.856 0 0 0-107.28448-34.03264 189.48608 189.48608 0 0 0-178.51904 128.8448 24.15104 24.15104 0 0 0-1.024 7.59808 192.12288 192.12288 0 0 0 4.37248 124.21632 24.09472 24.09472 0 0 0 1.39776 6.82496 188.928 188.928 0 0 0 173.76768 116.49024 185.344 185.344 0 0 0 79.04768-17.664 189.29664 189.29664 0 0 0 96.54784-98.9952 23.94112 23.94112 0 0 0 1.536-8.38656 194.41152 194.41152 0 0 0 4.25472-120.75008z m-179.8656 196.98176a142.94016 142.94016 0 1 1 68.29056-267.89888 144.60928 144.60928 0 0 1-26.84416 261.57568 140.98944 140.98944 0 0 1-41.4464 6.33856z"  horiz-adv-x="1024" />

    
    <glyph glyph-name="mofang" unicode="&#59229;" d="M545.63728245 866.18961541l359.01861356-159.45949867A82.85044939 82.85044939 0 0 0 953.86906294 631.00480599v-494.00961198a82.85044939 82.85044939 0 0 0-49.21316693-75.72531075l-359.01861356-159.43188228a82.85044939 82.85044939 0 0 0-67.2745649 0l-359.01861356 159.43188228A82.85044939 82.85044939 0 0 0 70.13093706 136.99519400999998V631.00480599a82.85044939 82.85044939 0 0 0 49.21316693 75.72531075l359.01861356 159.43188228a82.85044939 82.85044939 0 0 0 67.2745649 0zM152.98138643 553.01491675v-416.01972274l324.49759257-144.10454916V413.96424629L152.98138643 553.01491675z m718.03722714-2.98261618l-310.6891852-133.11305578V-0.9784218999999439L871.01861357 136.99519400999998V550.03230057zM512 790.43668829l-345.09973807-153.24571498 348.60707333-149.40697662 345.01688891 147.88805214L512 790.43668829z"  horiz-adv-x="1024" />

    
    <glyph glyph-name="Subscription" unicode="&#58943;" d="M730.45333333 505.36296334v145.63555556a24.27259221 24.27259221 0 0 0 48.54518557 0v-145.63555556h145.63555555a24.27259221 24.27259221 0 0 0 0-48.54518556h-145.63555555v-145.63555556a24.27259221 24.27259221 0 0 0-48.54518557 0v145.63555556h-145.63555555a24.27259221 24.27259221 0 0 0 0 48.54518556h145.63555555z m169.90814777-197.65172224a24.27259221 24.27259221 0 0 0 48.54518557 0V-36.40130333000002a72.81777778 72.81777778 0 0 0-112.40637668-61.09411555l-310.71345778 201.34115555a24.27259221 24.27259221 0 0 1-26.38430776 0l-311.97563222-201.55960888A72.81777778 72.81777778 0 0 0 75.09333333-36.571212230000015V699.54370333a169.90814777 169.90814777 0 0 0 169.90814777 169.9081489h533.9970378a169.90814777 169.90814777 0 0 0 169.90814777-169.9081489v-50.00153999a24.27259221 24.27259221 0 0 0-48.54518557 0V699.54370333a121.36296334 121.36296334 0 0 1-121.3629622 121.36296334H245.0014811a121.36296334 121.36296334 0 0 1-121.3629622-121.36296334v-736.11491556a24.27259221 24.27259221 0 0 1 37.45260999-20.38897778l311.97563221 201.58388224a72.81777778 72.81777778 0 0 0 79.12865223-0.07281778l310.68918557-201.34115555A24.27259221 24.27259221 0 0 1 900.3614811-36.40130333000002V307.68696889z"  horiz-adv-x="1024" />

    


  </font>
</defs>
</svg>
