<?xml version="1.0" encoding="UTF-8"?>
<svg width="180px" height="137px" viewBox="0 0 180 137" version="1.1" xmlns="http://www.w3.org/2000/svg" xmlns:xlink="http://www.w3.org/1999/xlink">
    <!-- Generator: Sketch 54.1 (76490) - https://sketchapp.com -->
    <title>编组 16</title>
    <desc>Created with Sketch.</desc>
    <g id="最后" stroke="none" stroke-width="1" fill="none" fill-rule="evenodd">
        <g id="编组-16">
            <g id="编组-16复制">
                <path d="M66.6735162,33 L76.5266678,33 C77.6312373,33 78.5266678,33.8954305 78.5266678,35 L78.5266678,62.3378308 C78.5266678,63.4424003 77.6312373,64.3378308 76.5266678,64.3378308 L66.6735162,64.3378308 C65.5689467,64.3378308 64.6735162,63.4424003 64.6735162,62.3378308 L64.6735162,35 C64.6735162,33.8954305 65.5689467,33 66.6735162,33 Z" id="矩形" fill="#F6F6F6"></path>
                <path d="M86,44 L95.7466949,44 C96.8512644,44 97.7466949,44.8954305 97.7466949,46 L97.7466949,62 C97.7466949,63.1045695 96.8512644,64 95.7466949,64 L86,64 C84.8954305,64 84,63.1045695 84,62 L84,46 C84,44.8954305 84.8954305,44 86,44 Z" id="矩形复制-9" fill="#F6F6F6"></path>
                <path d="M105.41817,39.1584897 L115.164864,39.1584897 C116.269434,39.1584897 117.164864,40.0539202 117.164864,41.1584897 L117.164864,62 C117.164864,63.1045695 116.269434,64 115.164864,64 L105.41817,64 C104.3136,64 103.41817,63.1045695 103.41817,62 L103.41817,41.1584897 C103.41817,40.0539202 104.3136,39.1584897 105.41817,39.1584897 Z" id="矩形复制-11" fill="#F6F6F6"></path>
                <path d="M133.055163,15.8236462 L134.555163,15.8236462 L134.555163,36.6679488 L133.055163,36.6679488 L133.055163,15.8236462 Z M130.795659,65.9034459 L132.048927,66.7276544 C129.305832,70.8987262 124.70619,73.4564154 119.68003,73.4564154 L63.3869343,73.4564154 C55.1687745,73.4564154 48.5118014,66.6728793 48.5118014,58.3124154 L48.5118014,20.4390308 L50.0118014,20.4390308 L50.0118014,58.3124154 C50.0118014,65.8507096 56.0035908,71.9564154 63.3869343,71.9564154 L119.68003,71.9564154 C124.19385,71.9564154 128.32606,69.6586476 130.795659,65.9034459 Z" id="形状" fill="#B2545E" fill-rule="nonzero"></path>
                <path d="M136.532359,16.5736462 L46.5019044,16.5736462 C45.2578125,16.5736462 44.2550126,15.5515447 44.2550126,14.2978 L44.2550126,7.50026154 C44.2550126,6.2465168 45.2578125,5.22441538 46.5019044,5.22441538 L136.532359,5.22441538 C137.776798,5.22441538 138.779704,6.24641109 138.779704,7.50026154 L138.779704,14.2978 C138.779704,15.5516504 137.776798,16.5736462 136.532359,16.5736462 Z M136.532359,15.0736462 C136.941974,15.0736462 137.279704,14.729488 137.279704,14.2978 L137.279704,7.50026154 C137.279704,7.06857352 136.941974,6.72441538 136.532359,6.72441538 L46.5019044,6.72441538 C46.0927079,6.72441538 45.7550126,7.06861057 45.7550126,7.50026154 L45.7550126,14.2978 C45.7550126,14.729451 46.0927079,15.0736462 46.5019044,15.0736462 L136.532359,15.0736462 Z" id="Stroke-3" fill="#B2545E" fill-rule="nonzero"></path>
                <path d="M79.9436587,5.97446154 L79.9436587,3.87030769 C79.9436587,2.69152552 80.8406098,1.75 81.9283736,1.75 L101.176907,1.75 C102.264395,1.75 103.161622,2.69170784 103.161622,3.87030769 L103.161622,5.97446154 L104.661622,5.97446154 L104.661622,3.87030769 C104.661622,1.87907966 103.10949,0.25 101.176907,0.25 L81.9283736,0.25 C79.9954741,0.25 78.4436587,1.87893361 78.4436587,3.87030769 L78.4436587,5.97446154 L79.9436587,5.97446154 Z" id="Stroke-5" fill="#B2545E" fill-rule="nonzero"></path>
                <path d="M73.3509684,64.3378308 L73.3509684,63.1378308 L76.3509684,63.1378308 L76.3509684,64.3378308 L73.3509684,64.3378308 Z M68.0381365,64.3378308 L68.0381365,63.1378308 L71.0381365,63.1378308 L71.0381365,64.3378308 L68.0381365,64.3378308 Z M64.6735162,60.4778456 L65.8735162,60.4778456 L65.8735162,62.2767414 C65.8735162,62.5131138 65.9824654,62.7362147 66.1771951,62.9000112 L65.4047467,63.8183377 C64.9449246,63.4315593 64.6735162,62.8757821 64.6735162,62.2767414 L64.6735162,60.4778456 Z M64.6735162,55.1650137 L65.8735162,55.1650137 L65.8735162,58.1650137 L64.6735162,58.1650137 L64.6735162,55.1650137 Z M64.6735162,49.8521818 L65.8735162,49.8521818 L65.8735162,52.8521818 L64.6735162,52.8521818 L64.6735162,49.8521818 Z M64.6735162,44.5393499 L65.8735162,44.5393499 L65.8735162,47.5393499 L64.6735162,47.5393499 L64.6735162,44.5393499 Z M64.6735162,39.2265181 L65.8735162,39.2265181 L65.8735162,42.2265181 L64.6735162,42.2265181 L64.6735162,39.2265181 Z M65.5074578,33.5761545 L66.2229038,34.5395532 C66.0004415,34.7047598 65.8735162,34.9444056 65.8735162,35.1993402 L65.8735162,36.9136862 L64.6735162,36.9136862 L64.6735162,35.1993402 C64.6735162,34.5549411 64.9873459,33.9624038 65.5074578,33.5761545 Z M71.1223319,33.1378308 L71.1223319,34.3378308 L68.1223319,34.3378308 L68.1223319,33.1378308 L71.1223319,33.1378308 Z M76.4643881,33.1405924 L76.4059044,34.3391664 C76.3786108,34.3380561 76.3786108,34.3380561 76.3509684,34.3378308 L73.4351638,34.3378308 L73.4351638,33.1378308 L76.3509684,33.1378308 C76.4078702,33.138294 76.4078702,33.138294 76.4643881,33.1405924 Z M78.5266678,38.2709086 L77.3266678,38.2709086 L77.3266678,35.2709086 L78.5266678,35.2709086 L78.5266678,38.2709086 Z M78.5266678,43.5837405 L77.3266678,43.5837405 L77.3266678,40.5837405 L78.5266678,40.5837405 L78.5266678,43.5837405 Z M78.5266678,48.8965723 L77.3266678,48.8965723 L77.3266678,45.8965723 L78.5266678,45.8965723 L78.5266678,48.8965723 Z M78.5266678,54.2094042 L77.3266678,54.2094042 L77.3266678,51.2094042 L78.5266678,51.2094042 L78.5266678,54.2094042 Z M78.5266678,59.5222361 L77.3266678,59.5222361 L77.3266678,56.5222361 L78.5266678,56.5222361 L78.5266678,59.5222361 Z M76.3509684,64.3378308 L76.3509684,63.1378308 C76.8996227,63.1378308 77.3266678,62.7417686 77.3266678,62.2767414 L77.3266678,61.835068 L78.5266678,61.835068 L78.5266678,62.2767414 C78.5266678,63.4255442 77.5430154,64.3378308 76.3509684,64.3378308 Z" id="Stroke-7" fill="#B4B4B4" fill-rule="nonzero"></path>
                <path d="M92.6702931,64.3378308 L92.6702931,63.1378308 L95.6702931,63.1378308 L95.6702931,64.3378308 L92.6702931,64.3378308 Z M87.3574613,64.3378308 L87.3574613,63.1378308 L90.3574613,63.1378308 L90.3574613,64.3378308 L87.3574613,64.3378308 Z M83.992388,60.4684644 L85.1923881,60.4684644 L85.1923881,62.237134 C85.1923881,62.4893569 85.3051555,62.7256432 85.5040728,62.8965302 L84.7221041,63.8067637 C84.2625642,63.4119795 83.992388,62.8458683 83.992388,62.237134 L83.992388,60.4684644 Z M83.992388,55.1556326 L85.1923881,55.1556326 L85.1923881,58.1556326 L83.992388,58.1556326 L83.992388,55.1556326 Z M83.992388,49.8428007 L85.1923881,49.8428007 L85.1923881,52.8428007 L83.992388,52.8428007 L83.992388,49.8428007 Z M84.6974095,44.1903936 L85.4930357,45.0887136 C85.300828,45.2589486 85.1923881,45.4908965 85.1923881,45.7380962 L85.1923881,47.5299688 L83.992388,47.5299688 L83.992388,45.7380962 C83.992388,45.1409145 84.252584,44.5843677 84.6974095,44.1903936 Z M90.3346241,43.6378308 L90.3346241,44.8378308 L87.3346241,44.8378308 L87.3346241,43.6378308 L90.3346241,43.6378308 Z M95.6474559,43.6378308 L95.6474559,44.8378308 L92.6474559,44.8378308 L92.6474559,43.6378308 L95.6474559,43.6378308 Z M97.8459925,48.6736086 L96.6459925,48.6736086 L96.6459866,45.7348983 C96.6457745,45.7158941 96.6457745,45.7158941 96.645007,45.6970929 L97.8436142,45.6392936 C97.8454688,45.6847364 97.8454688,45.6847364 97.8459824,45.7326587 L97.8459925,48.6736086 Z M97.8459925,53.9864384 L96.6459925,53.9864384 L96.6459925,50.9864384 L97.8459925,50.9864384 L97.8459925,53.9864384 Z M97.8459925,59.2992703 L96.6459925,59.2992703 L96.6459925,56.2992703 L97.8459925,56.2992703 L97.8459925,59.2992703 Z M95.6702931,64.3378308 L95.6702931,63.1378308 C96.2153447,63.1378308 96.6459925,62.7276816 96.6459925,62.237134 L96.6459925,61.6121022 L97.8459925,61.6121022 L97.8459925,62.237134 C97.8459925,63.4038663 96.8653499,64.3378308 95.6702931,64.3378308 Z" id="Stroke-9" fill="#B4B4B4" fill-rule="nonzero"></path>
                <path d="M111.989165,64.3378308 L111.989165,63.1378308 L114.989165,63.1378308 L114.989165,64.3378308 L111.989165,64.3378308 Z M106.676333,64.3378308 L106.676333,63.1378308 L109.676333,63.1378308 L109.676333,64.3378308 L106.676333,64.3378308 Z M103.311713,60.4757957 L104.511713,60.4757957 L104.511713,62.2685033 C104.511713,62.5081769 104.621466,62.7340185 104.817065,62.8992888 L104.042583,63.8159004 C103.582845,63.4274493 103.311713,62.869532 103.311713,62.2685033 L103.311713,60.4757957 Z M103.311713,55.1629638 L104.511713,55.1629638 L104.511713,58.1629638 L103.311713,58.1629638 L103.311713,55.1629638 Z M103.311713,49.8501319 L104.511713,49.8501319 L104.511713,52.8501319 L103.311713,52.8501319 L103.311713,49.8501319 Z M103.311713,44.5373001 L104.511713,44.5373001 L104.511713,47.5373001 L103.311713,47.5373001 L103.311713,44.5373001 Z M105.179171,39.1584897 L105.339829,40.3476865 C104.85948,40.4125806 104.511713,40.7841234 104.511713,41.2071582 L104.511713,42.2244682 L103.311713,42.2244682 L103.311713,41.2071582 C103.311713,40.1652751 104.120158,39.3015601 105.179171,39.1584897 Z M110.451643,39.1378308 L110.451643,40.3378308 L107.451643,40.3378308 L107.451643,39.1378308 L110.451643,39.1378308 Z M116.015833,39.3820802 L115.471288,40.4514119 C115.326034,40.3774431 115.161663,40.3378308 114.989165,40.3378308 L112.764475,40.3378308 L112.764475,39.1378308 L114.989165,39.1378308 C115.351348,39.1378308 115.702267,39.2224002 116.015833,39.3820802 Z M117.164864,44.9639195 L115.964864,44.9639195 L115.964864,41.9639195 L117.164864,41.9639195 L117.164864,44.9639195 Z M117.164864,50.2767514 L115.964864,50.2767514 L115.964864,47.2767514 L117.164864,47.2767514 L117.164864,50.2767514 Z M117.164864,55.5895833 L115.964864,55.5895833 L115.964864,52.5895833 L117.164864,52.5895833 L117.164864,55.5895833 Z M117.164864,60.9024152 L115.964864,60.9024152 L115.964864,57.9024152 L117.164864,57.9024152 L117.164864,60.9024152 Z M114.989165,64.3378308 L114.989165,63.1378308 C115.307532,63.1378308 115.596264,63.0015586 115.778347,62.7789539 L116.707194,63.5387196 C116.296742,64.0405144 115.666792,64.3378308 114.989165,64.3378308 Z" id="Stroke-11" fill="#B4B4B4" fill-rule="nonzero"></path>
                <g id="Logos_Main_Logo" transform="translate(83.904586, 21.769138)" fill="#EC001A" fill-rule="nonzero">
                    <path d="M3.86245955,8.24223214 C3.76557902,8.24241731 3.67373951,8.20137823 3.61231931,8.13045536 C3.49999138,7.99913631 3.51998745,7.80674813 3.65719741,7.69866964 C4.74236462,6.85216071 6.47237864,6.34690179 8.2847918,6.34690179 C10.0872729,6.34690179 11.8132406,6.85216071 12.8980399,7.69866964 C12.9874721,7.76790101 13.0310933,7.87703773 13.0124718,7.98496904 C12.9938503,8.09290036 12.9158152,8.18322893 12.8077615,8.22192887 C12.6997078,8.26062881 12.5780514,8.24182066 12.4886192,8.17258929 C11.5145437,7.41383036 9.94307443,6.96080357 8.28515965,6.96080357 C6.64195901,6.96080357 5.0259795,7.42532143 4.06845739,8.1729375 C4.01035796,8.21794978 3.93753674,8.24244577 3.86245955,8.24223214 L3.86245955,8.24223214 Z M2.9812455,7.16886612 C2.91694448,6.98570915 2.98353495,6.78414667 3.14661704,6.66830357 C4.40173247,5.77652679 6.3222945,5.24410714 8.28368824,5.24410714 C10.2380928,5.24410714 12.1538727,5.77652679 13.4078846,6.66830357 C13.54338,6.7640332 13.6146313,6.92091775 13.594799,7.07986032 C13.5749667,7.23880289 13.4670636,7.37565632 13.3117359,7.43886926 C13.1564082,7.50208219 12.9772537,7.48205107 12.8417584,7.38632143 C11.4933307,6.5387878 9.90217573,6.10430994 8.28405609,6.14180357 C6.6623788,6.10348794 5.06744883,6.53794465 3.71531823,7.38632143 C3.63369842,7.44506642 3.53386716,7.47664852 3.43133549,7.47616071 C3.22634075,7.47576199 3.04554653,7.35202308 2.9812455,7.16886612 Z M13.84048,6.059625 C13.6463722,6.05928061 13.455883,6.00987311 13.2887001,5.91650893 C12.7739185,5.62600375 12.6039195,4.99631808 12.9083398,4.50763393 C13.0539223,4.2728543 13.292325,4.10265828 13.5708102,4.03469543 C13.8492955,3.96673259 14.14491,4.00660453 14.39226,4.14549107 C14.8142385,4.38118448 15.0174889,4.85497873 14.8885721,5.30243735 C14.7596553,5.74989598 14.3304392,6.06040832 13.84048,6.06066964 L13.84048,6.059625 Z M2.71586084,6.059625 L2.71586084,6.059625 L2.70960734,6.059625 C2.37489346,6.05821153 2.05961215,5.91061168 1.85526749,5.65966335 C1.65092282,5.40871502 1.58040053,5.08252335 1.66416828,4.77575893 C1.78667272,4.32236192 2.2174309,4.00465784 2.71181446,4.00307143 C3.04771137,4.00294328 3.36477685,4.14991953 3.57062881,4.40117628 C3.77648077,4.65243304 3.84796105,4.97970414 3.76424272,5.28763393 C3.69427182,5.55218269 3.51511277,5.77910259 3.26690507,5.91755357 C3.100045,6.00993233 2.9102668,6.05871921 2.7169644,6.05892857 L2.71586084,6.059625 Z M11.1610367,4.99269643 C10.6942982,4.99437643 10.2784881,4.71390883 10.1277759,4.29575294 C9.97706378,3.87759704 10.1250711,3.4150368 10.4955644,3.14632122 C10.8660577,2.87760564 11.3763858,2.86268092 11.763696,3.10923427 C12.1510062,3.35578761 12.3288959,3.80881688 12.20574,4.23498214 C12.079257,4.68205924 11.6510751,4.99280139 11.1621402,4.99234821 L11.1610367,4.99269643 Z M5.41406472,4.99269643 L5.3890507,4.99269643 C4.89868397,4.99096136 4.47043459,4.6782447 4.34417372,4.2297054 C4.21791285,3.7811661 4.42499595,3.30819385 4.84943159,3.07570998 C5.27386722,2.84322612 5.81025157,2.9089654 6.15814489,3.23610592 C6.50603821,3.56324645 6.5790451,4.07054654 6.33627292,4.47385714 C6.19489421,4.7110085 5.95908364,4.88469456 5.68149407,4.95613393 C5.5946163,4.97841854 5.50516449,4.99046501 5.41516828,4.992 L5.41406472,4.99269643 Z M8.27780259,4.63403571 C7.83803298,4.63530402 7.44081357,4.38553101 7.27155748,4.00130515 C7.10230139,3.61707928 7.19438321,3.17416375 7.50482122,2.87930161 C7.81525923,2.58443947 8.28284001,2.49577282 8.68930732,2.65468927 C9.09577463,2.81360571 9.36097961,3.18876947 9.36113053,3.6050625 C9.36073145,4.17131383 8.87708795,4.63084829 8.27890615,4.63333929 L8.27780259,4.63403571 Z M15.2217691,3.84254464 C14.8322481,3.84105406 14.473324,3.64244565 14.2808354,3.32188473 C14.0883467,3.00132381 14.091701,2.60778439 14.2896289,2.29020536 C14.5581509,1.86399492 15.1103102,1.68064051 15.6012636,1.85465347 C16.092217,2.02866644 16.3813756,2.51021663 16.2881496,2.99855878 C16.1949236,3.48690094 15.7460091,3.84219394 15.2217691,3.84254464 L15.2217691,3.84254464 Z M1.33493959,3.84254464 L1.33493959,3.84254464 L1.32758252,3.84254464 C0.838508303,3.8402565 0.411269805,3.52906174 0.283623289,3.08213882 C0.155976772,2.6352159 0.359357356,2.16262717 0.780584682,1.92736607 C1.17477356,1.7084521 1.67155219,1.74650534 2.0234285,2.0225679 C2.3753048,2.29863046 2.5070125,2.75365259 2.35293561,3.16094506 C2.19885873,3.56823753 1.79195429,3.84068054 1.33493959,3.84254464 L1.33493959,3.84254464 Z M11.877247,2.50714286 C11.7805488,2.5071758 11.6842866,2.49487771 11.5910572,2.47058036 C11.0421828,2.32786766 10.7041119,1.80684964 10.8178126,1.27889454 C10.9315132,0.750939441 11.4580639,0.396775217 12.0221528,0.468841014 C12.5862417,0.54090681 12.9947717,1.01453329 12.956553,1.55213168 C12.9183344,2.08973007 12.4464501,2.50727136 11.877247,2.50714286 L11.877247,2.50714286 Z M4.68056526,2.50714286 L4.67394391,2.50714286 C4.1333429,2.5010795 3.67961584,2.11985231 3.60910139,1.61244876 C3.53858694,1.10504521 3.87272025,0.625707014 4.39327184,0.4875 C4.48648316,0.463118951 4.58275746,0.450819321 4.6794617,0.4509375 C5.2797988,0.4509375 5.76646818,0.9116245 5.76646818,1.47991071 C5.76646818,2.04819693 5.2797988,2.50888393 4.6794617,2.50888393 L4.68056526,2.50714286 Z M8.2785383,2.05725 C7.83876869,2.0585183 7.44154928,1.8087453 7.27229319,1.42451943 C7.10303709,1.04029357 7.19511892,0.597378037 7.50555693,0.302515897 C7.81599494,0.00765375713 8.28357571,-0.0810128941 8.69004302,0.0779035509 C9.09651033,0.236819996 9.36171532,0.611983756 9.36186624,1.02827679 C9.36187038,1.59507051 8.87766243,2.05514011 8.27890615,2.05725 L8.2785383,2.05725 Z" id="Primary_Logo"></path>
                </g>
                <path d="M35.1725828,89.9804894 L36.6209695,89.5903919 L25.2961849,47.542782 C25.0968964,46.802847 24.0470867,46.802847 23.8477982,47.542782 L12.5230135,89.5903919 L13.9714002,89.9804894 L24.5719915,50.6217252 L35.1725828,89.9804894 Z" id="路径-16" fill="#B2545E" fill-rule="nonzero"></path>
                <path d="M12.9086427,89.1162066 L13.5857711,90.4546748 L33.1968531,80.5334664 C33.7504534,80.2534011 33.7439967,79.4605847 33.1859085,79.1895729 L19.5297612,72.5580457 L29.6415462,64.6852018 L28.7200431,63.5016343 L17.6576139,72.1146317 C17.219362,72.4558463 17.2911194,73.1384525 17.7907458,73.3810748 L31.1696779,79.8779842 L12.9086427,89.1162066 Z" id="路径-17" fill="#B2545E" fill-rule="nonzero"></path>
                <path d="M24.3251977,54.0191385 C26.81664,54.0191385 28.8373336,52.0049633 28.8373336,49.5191385 C28.8373336,47.0333137 26.81664,45.0191385 24.3251977,45.0191385 C21.8337553,45.0191385 19.8130618,47.0333137 19.8130618,49.5191385 C19.8130618,52.0049633 21.8337553,54.0191385 24.3251977,54.0191385 Z M24.3251977,52.5191385 C22.6610994,52.5191385 21.3130618,51.1754493 21.3130618,49.5191385 C21.3130618,47.8628276 22.6610994,46.5191385 24.3251977,46.5191385 C25.9892959,46.5191385 27.3373336,47.8628276 27.3373336,49.5191385 C27.3373336,51.1754493 25.9892959,52.5191385 24.3251977,52.5191385 Z" id="椭圆形" fill="#B2545E" fill-rule="nonzero"></path>
                <path d="M17.9612366,43.1551774 C18.2541299,42.8622842 18.7290036,42.8622842 19.0218968,43.1551774 C19.31479,43.4480706 19.31479,43.9229444 19.0218968,44.2158376 C16.0821551,47.1555793 16.0744698,51.9127705 19.0030178,54.8413184 C19.295911,55.1342116 19.295911,55.6090853 19.0030178,55.9019786 C18.7101245,56.1948718 18.2352508,56.1948718 17.9423576,55.9019786 C14.4272547,52.3868757 14.4364743,46.6799398 17.9612366,43.1551774 Z M30.6891587,55.8830995 C30.3962655,56.1759927 29.9213918,56.1759927 29.6284985,55.8830995 C29.3356053,55.5902063 29.3356053,55.1153325 29.6284985,54.8224393 C32.5682402,51.8826976 32.5759255,47.1255065 29.6473776,44.1969585 C29.3544844,43.9040653 29.3544844,43.4291916 29.6473776,43.1362984 C29.9402708,42.8434051 30.4151446,42.8434051 30.7080378,43.1362984 C34.2231407,46.6514013 34.2139211,52.3583371 30.6891587,55.8830995 Z" id="形状" fill="#D0D0D0" fill-rule="nonzero"></path>
                <path d="M14.795751,39.4419834 C15.0886442,39.1490902 15.5635179,39.1490902 15.8564112,39.4419834 C16.1493044,39.7348766 16.1493044,40.2097504 15.8564112,40.5026436 C10.8597818,45.499273 10.8467177,53.5859591 15.8255181,58.5647595 C16.1184114,58.8576528 16.1184114,59.3325265 15.8255181,59.6254197 C15.5326249,59.9183129 15.0577512,59.9183129 14.764858,59.6254197 C9.19950256,54.0600643 9.21410099,45.0236334 14.795751,39.4419834 Z M33.8546444,59.5962935 C33.5617511,59.8891867 33.0868774,59.8891867 32.7939842,59.5962935 C32.501091,59.3034003 32.501091,58.8285265 32.7939842,58.5356333 C37.7906135,53.539004 37.8036777,45.4523178 32.8248772,40.4735174 C32.531984,40.1806242 32.531984,39.7057504 32.8248772,39.4128572 C33.1177704,39.119964 33.5926442,39.119964 33.8855374,39.4128572 C39.4508928,44.9782126 39.4362944,54.0146435 33.8546444,59.5962935 Z" id="形状" fill="#D0D0D0" fill-rule="nonzero"></path>
                <polygon id="路径-18" fill="#B2545E" fill-rule="nonzero" points="71.9671698 73.4564154 109.909108 73.4564154 125.394531 90.2931553 126.49857 89.277726 110.567469 71.9564154 71.2330141 71.9564154 57.7397512 89.3253229 58.9243044 90.2455585"></polygon>
                <path d="M1,90.7854407 L1,88.7854407 L178.187867,88.7854407 L178.187867,90.7854407 L1,90.7854407 Z M1,88.7854407 L178.187867,88.7854407 C179.5212,88.7854407 179.5212,90.7854407 178.187867,90.7854407 L1,90.7854407 C-0.333333333,90.7854407 -0.333333333,88.7854407 1,88.7854407 Z" id="直线-18" fill="#D0D0D0" fill-rule="nonzero"></path>
                <g id="编组-15" transform="translate(150.236779, 60.301689) rotate(-42.000000) translate(-150.236779, -60.301689) translate(131.736779, 30.801689)" fill-rule="nonzero">
                    <path d="M18.3313769,37.2915213 C28.6867159,37.2915213 37.0813769,28.8968604 37.0813769,18.5415213 C37.0813769,8.18618228 28.6867159,-0.208478663 18.3313769,-0.208478663 C7.97603781,-0.208478663 -0.418623135,8.18618228 -0.418623135,18.5415213 C-0.418623135,28.8968604 7.97603781,37.2915213 18.3313769,37.2915213 Z M18.3313769,35.7915213 C8.80446493,35.7915213 1.08137686,28.0684333 1.08137686,18.5415213 C1.08137686,9.0146094 8.80446493,1.29152134 18.3313769,1.29152134 C27.8582888,1.29152134 35.5813769,9.0146094 35.5813769,18.5415213 C35.5813769,28.0684333 27.8582888,35.7915213 18.3313769,35.7915213 Z" id="椭圆形" fill="#960011"></path>
                    <path d="M18.3313769,37.2915213 C28.6867159,37.2915213 37.0813769,28.8968604 37.0813769,18.5415213 C37.0813769,8.18618228 28.6867159,-0.208478663 18.3313769,-0.208478663 C7.97603781,-0.208478663 -0.418623135,8.18618228 -0.418623135,18.5415213 C-0.418623135,28.8968604 7.97603781,37.2915213 18.3313769,37.2915213 Z M18.3313769,35.7915213 C8.80446493,35.7915213 1.08137686,28.0684333 1.08137686,18.5415213 C1.08137686,9.0146094 8.80446493,1.29152134 18.3313769,1.29152134 C27.8582888,1.29152134 35.5813769,9.0146094 35.5813769,18.5415213 C35.5813769,28.0684333 27.8582888,35.7915213 18.3313769,35.7915213 Z" id="椭圆形" fill="#B2545E"></path>
                    <path d="M15.0195466,36.8990374 C15.0406644,36.5008173 15.3697146,36.1887543 15.7684943,36.1887543 L20.435161,36.1887543 C20.8339406,36.1887543 21.1629909,36.5008173 21.1841086,36.8990374 L22.1654296,55.4039484 C22.2844437,57.6482138 20.5615871,59.5640304 18.3173217,59.6830445 C18.2455533,59.6868504 18.1736968,59.6887543 18.1018276,59.6887543 C15.8544087,59.6887543 14.0325158,57.8668613 14.0325158,55.6194425 C14.0325158,55.5475733 14.0344197,55.4757167 14.0382256,55.4039484 L15.0195466,36.8990374 Z M15.5361209,55.4833823 C15.5337179,55.5286959 15.5325158,55.5740652 15.5325158,55.6194425 C15.5325158,57.0384342 16.6828359,58.1887543 18.1018276,58.1887543 C18.1472049,58.1887543 18.1925742,58.1875522 18.2378878,58.1851492 C19.6548885,58.1100052 20.7426783,56.900383 20.6675344,55.4833823 L19.7238798,37.6887543 L16.4797754,37.6887543 L15.5361209,55.4833823 Z" id="矩形" fill="#B2545E"></path>
                    <polygon id="直线-12" fill="#B2545E" points="15.0844214 51.1417328 20.9943138 51.1417328 20.9943138 49.6417328 15.0844214 49.6417328"></polygon>
                </g>
                <path d="M135.499247,38.7378308 L135.499247,60.9169529 C135.499247,62.1412122 134.720876,63.2300213 133.56248,63.6261636 L134.047846,65.0454663 C135.813103,64.4417928 136.999247,62.7825778 136.999247,60.9169529 L136.999247,38.7378308 L135.499247,38.7378308 Z" id="直线-15" fill="#E8C7CA" fill-rule="nonzero"></path>
                <path d="M142.749247,67.6 C151.364889,67.6 158.349247,60.6156421 158.349247,52 C158.349247,43.3843579 151.364889,36.4 142.749247,36.4 C134.133604,36.4 127.149247,43.3843579 127.149247,52 C127.149247,60.6156421 134.133604,67.6 142.749247,67.6 Z M142.749247,66.4 C134.796346,66.4 128.349247,59.9529004 128.349247,52 C128.349247,44.0470996 134.796346,37.6 142.749247,37.6 C150.702147,37.6 157.149247,44.0470996 157.149247,52 C157.149247,59.9529004 150.702147,66.4 142.749247,66.4 Z" id="椭圆形" fill="#DEDEDE" fill-rule="nonzero"></path>
            </g>
            <path d="M136.532359,15.0736462 C136.941974,15.0736462 137.279704,14.729488 137.279704,14.2978 L137.279704,7.50026154 C137.279704,7.06857352 136.941974,6.72441538 136.532359,6.72441538 L46.5019044,6.72441538 C46.0927079,6.72441538 45.7550126,7.06861057 45.7550126,7.50026154 L45.7550126,14.2978 C45.7550126,14.729451 46.0927079,15.0736462 46.5019044,15.0736462 L136.532359,15.0736462 Z" id="路径" fill="#F3F3F3" fill-rule="nonzero"></path>
            <path d="M72.0712465,136 L70.7752465,136 L63.9712465,125.722 L63.9712465,136 L62.6032465,136 L62.6032465,123.184 L63.8992465,123.184 L70.7032465,133.426 L70.7032465,123.184 L72.0712465,123.184 L72.0712465,136 Z M82.3132465,131.572 C82.3132465,132.94 82.1332465,134.182 81.2332465,135.1 C80.6212465,135.712 79.7752465,136.108 78.6952465,136.108 C77.6152465,136.108 76.7692465,135.712 76.1572465,135.1 C75.2572465,134.182 75.0772465,132.94 75.0772465,131.572 C75.0772465,130.204 75.2572465,128.962 76.1572465,128.044 C76.7692465,127.432 77.6152465,127.036 78.6952465,127.036 C79.7752465,127.036 80.6212465,127.432 81.2332465,128.044 C82.1332465,128.962 82.3132465,130.204 82.3132465,131.572 Z M81.0172465,131.572 C81.0172465,130.582 80.9632465,129.484 80.3152465,128.836 C79.9012465,128.422 79.3252465,128.188 78.6952465,128.188 C78.0652465,128.188 77.5072465,128.422 77.0932465,128.836 C76.4452465,129.484 76.3732465,130.582 76.3732465,131.572 C76.3732465,132.562 76.4452465,133.66 77.0932465,134.308 C77.5072465,134.722 78.0652465,134.956 78.6952465,134.956 C79.3252465,134.956 79.9012465,134.722 80.3152465,134.308 C80.9632465,133.66 81.0172465,132.562 81.0172465,131.572 Z M98.6932465,129.448 C98.6932465,131.23 98.7652465,133.48 97.4332465,134.812 C96.6592465,135.586 95.5252465,136 94.1932465,136 L89.8012465,136 L89.8012465,123.184 L94.1932465,123.184 C95.5252465,123.184 96.6592465,123.598 97.4332465,124.372 C98.7652465,125.704 98.6932465,127.666 98.6932465,129.448 Z M97.3252465,129.448 C97.3252465,127.882 97.3612465,126.262 96.4792465,125.344 C95.8132465,124.66 94.9492465,124.408 93.9592465,124.408 L91.1692465,124.408 L91.1692465,134.776 L93.9592465,134.776 C94.9492465,134.776 95.8132465,134.524 96.4792465,133.84 C97.3612465,132.922 97.3252465,131.014 97.3252465,129.448 Z M107.999247,136 L106.703247,136 L106.703247,135.154 C105.983247,135.874 105.335247,136.108 104.147247,136.108 C102.923247,136.108 102.203247,135.874 101.645247,135.298 C101.213247,134.866 100.979247,134.2 100.979247,133.498 C100.979247,131.95 102.059247,130.942 104.039247,130.942 L106.703247,130.942 L106.703247,130.096 C106.703247,128.8 106.055247,128.152 104.435247,128.152 C103.301247,128.152 102.725247,128.422 102.203247,129.16 L101.321247,128.35 C102.113247,127.324 103.013247,127.036 104.453247,127.036 C106.829247,127.036 107.999247,128.062 107.999247,129.988 L107.999247,136 Z M106.703247,132.868 L106.703247,131.914 L104.219247,131.914 C102.887247,131.914 102.239247,132.454 102.239247,133.48 C102.239247,134.506 102.869247,134.992 104.273247,134.992 C105.029247,134.992 105.695247,134.938 106.253247,134.398 C106.559247,134.11 106.703247,133.606 106.703247,132.868 Z M114.551247,136 L113.633247,136 C112.121247,136 111.365247,134.938 111.365247,133.624 L111.365247,128.188 L110.249247,128.188 L110.249247,127.198 L111.365247,127.198 L111.365247,124.426 L112.661247,124.426 L112.661247,127.198 L114.551247,127.198 L114.551247,128.188 L112.661247,128.188 L112.661247,133.588 C112.661247,134.398 113.039247,134.884 113.867247,134.884 L114.551247,134.884 L114.551247,136 Z M123.443247,136 L122.147247,136 L122.147247,135.154 C121.427247,135.874 120.779247,136.108 119.591247,136.108 C118.367247,136.108 117.647247,135.874 117.089247,135.298 C116.657247,134.866 116.423247,134.2 116.423247,133.498 C116.423247,131.95 117.503247,130.942 119.483247,130.942 L122.147247,130.942 L122.147247,130.096 C122.147247,128.8 121.499247,128.152 119.879247,128.152 C118.745247,128.152 118.169247,128.422 117.647247,129.16 L116.765247,128.35 C117.557247,127.324 118.457247,127.036 119.897247,127.036 C122.273247,127.036 123.443247,128.062 123.443247,129.988 L123.443247,136 Z M122.147247,132.868 L122.147247,131.914 L119.663247,131.914 C118.331247,131.914 117.683247,132.454 117.683247,133.48 C117.683247,134.506 118.313247,134.992 119.717247,134.992 C120.473247,134.992 121.139247,134.938 121.697247,134.398 C122.003247,134.11 122.147247,133.606 122.147247,132.868 Z" id="NoData" fill="#666666" fill-rule="nonzero"></path>
            <path d="M24.3251977,52.5191385 C22.6610994,52.5191385 21.3130618,51.1754493 21.3130618,49.5191385 C21.3130618,47.8628276 22.6610994,46.5191385 24.3251977,46.5191385 C25.9892959,46.5191385 27.3373336,47.8628276 27.3373336,49.5191385 C27.3373336,51.1754493 25.9892959,52.5191385 24.3251977,52.5191385 Z" id="路径" fill="#FFFFFF" fill-rule="nonzero"></path>
        </g>
    </g>
</svg>